%TF.GenerationSoftware,KiCad,Pcbnew,(6.0.11)*%
%TF.CreationDate,2023-09-13T09:35:20+02:00*%
%TF.ProjectId,WLED_ESP32_Controller,574c4544-5f45-4535-9033-325f436f6e74,rev?*%
%TF.SameCoordinates,Original*%
%TF.FileFunction,Profile,NP*%
%FSLAX46Y46*%
G04 Gerber Fmt 4.6, Leading zero omitted, Abs format (unit mm)*
G04 Created by KiCad (PCBNEW (6.0.11)) date 2023-09-13 09:35:20*
%MOMM*%
%LPD*%
G01*
G04 APERTURE LIST*
%TA.AperFunction,Profile*%
%ADD10C,0.050000*%
%TD*%
G04 APERTURE END LIST*
D10*
X147320000Y-123190000D02*
X148590000Y-123190000D01*
X149860000Y-93980000D02*
X149860000Y-121920000D01*
X118110000Y-99060000D02*
X118110000Y-93980000D01*
X87630000Y-95250000D02*
X87630000Y-101600000D01*
X92710000Y-95250000D02*
X92710000Y-99060000D01*
X88900000Y-92710000D02*
X91440000Y-92710000D01*
X93980000Y-100330000D02*
X116840000Y-100330000D01*
X119380000Y-92710000D02*
X148590000Y-92710000D01*
X87630000Y-101600000D02*
X87630000Y-121920000D01*
X87630000Y-93980000D02*
X87630000Y-95250000D01*
X92710000Y-95250000D02*
X92710000Y-93980000D01*
X116840000Y-100330000D02*
G75*
G03*
X118110000Y-99060000I0J1270000D01*
G01*
X92710000Y-93980000D02*
G75*
G03*
X91440000Y-92710000I-1270000J0D01*
G01*
X88900000Y-123190000D02*
X147320000Y-123190000D01*
X92710000Y-99060000D02*
G75*
G03*
X93980000Y-100330000I1270000J0D01*
G01*
X88900000Y-92710000D02*
G75*
G03*
X87630000Y-93980000I0J-1270000D01*
G01*
X149860000Y-93980000D02*
G75*
G03*
X148590000Y-92710000I-1270000J0D01*
G01*
X87630000Y-121920000D02*
G75*
G03*
X88900000Y-123190000I1270000J0D01*
G01*
X148590000Y-123190000D02*
G75*
G03*
X149860000Y-121920000I0J1270000D01*
G01*
X119380000Y-92710000D02*
G75*
G03*
X118110000Y-93980000I0J-1270000D01*
G01*
M02*
