M48
; DRILL file {KiCad (6.0.11)} date Wed Sep 13 09:35:20 2023
; FORMAT={-:-/ absolute / inch / decimal}
; #@! TF.CreationDate,2023-09-13T09:35:20+02:00
; #@! TF.GenerationSoftware,Kicad,Pcbnew,(6.0.11)
; #@! TF.FileFunction,Plated,1,2,PTH
FMAT,2
INCH
; #@! TA.AperFunction,Plated,PTH,ViaDrill
T1C0.0157
; #@! TA.AperFunction,Plated,PTH,ComponentDrill
T2C0.0394
; #@! TA.AperFunction,Plated,PTH,ComponentDrill
T3C0.0598
%
G90
G05
T1
X3.7Y-4.35
X3.9Y-4.1
X4.0Y-4.1
X4.4Y-4.4
X4.4Y-4.45
X4.4Y-4.55
X4.4Y-4.6
X4.6Y-4.0
X4.6Y-4.1
X4.65Y-4.25
X4.75Y-4.2
X4.85Y-4.25
X5.25Y-4.5
X5.25Y-4.55
X5.25Y-4.6
X5.25Y-4.7
X5.3018Y-4.2482
X5.45Y-4.5
X5.45Y-4.55
T2
X3.55Y-3.85
X3.55Y-3.95
X3.55Y-4.05
X3.55Y-4.15
X3.55Y-4.25
X3.55Y-4.35
X3.55Y-4.45
X4.85Y-3.9
X4.95Y-3.9
X5.05Y-3.9
X5.15Y-3.9
T3
X5.65Y-3.75
X5.65Y-3.95
X5.65Y-4.15
X5.65Y-4.35
X5.65Y-4.55
X5.65Y-4.75
T0
M30
