%TF.GenerationSoftware,KiCad,Pcbnew,(6.0.11)*%
%TF.CreationDate,2023-09-13T09:35:20+02:00*%
%TF.ProjectId,WLED_ESP32_Controller,574c4544-5f45-4535-9033-325f436f6e74,rev?*%
%TF.SameCoordinates,Original*%
%TF.FileFunction,Paste,Top*%
%TF.FilePolarity,Positive*%
%FSLAX46Y46*%
G04 Gerber Fmt 4.6, Leading zero omitted, Abs format (unit mm)*
G04 Created by KiCad (PCBNEW (6.0.11)) date 2023-09-13 09:35:20*
%MOMM*%
%LPD*%
G01*
G04 APERTURE LIST*
G04 Aperture macros list*
%AMRoundRect*
0 Rectangle with rounded corners*
0 $1 Rounding radius*
0 $2 $3 $4 $5 $6 $7 $8 $9 X,Y pos of 4 corners*
0 Add a 4 corners polygon primitive as box body*
4,1,4,$2,$3,$4,$5,$6,$7,$8,$9,$2,$3,0*
0 Add four circle primitives for the rounded corners*
1,1,$1+$1,$2,$3*
1,1,$1+$1,$4,$5*
1,1,$1+$1,$6,$7*
1,1,$1+$1,$8,$9*
0 Add four rect primitives between the rounded corners*
20,1,$1+$1,$2,$3,$4,$5,0*
20,1,$1+$1,$4,$5,$6,$7,0*
20,1,$1+$1,$6,$7,$8,$9,0*
20,1,$1+$1,$8,$9,$2,$3,0*%
G04 Aperture macros list end*
%ADD10R,1.500000X2.000000*%
%ADD11R,3.800000X2.000000*%
%ADD12RoundRect,0.250000X0.475000X-0.337500X0.475000X0.337500X-0.475000X0.337500X-0.475000X-0.337500X0*%
%ADD13RoundRect,0.249999X0.450001X-0.350001X0.450001X0.350001X-0.450001X0.350001X-0.450001X-0.350001X0*%
%ADD14RoundRect,0.250000X-0.475000X0.337500X-0.475000X-0.337500X0.475000X-0.337500X0.475000X0.337500X0*%
%ADD15R,1.500000X1.500000*%
%ADD16RoundRect,0.090000X0.895000X0.210000X-0.895000X0.210000X-0.895000X-0.210000X0.895000X-0.210000X0*%
%ADD17RoundRect,0.249999X-0.350001X-0.450001X0.350001X-0.450001X0.350001X0.450001X-0.350001X0.450001X0*%
%ADD18R,2.000000X0.900000*%
%ADD19R,0.900000X2.000000*%
%ADD20R,5.000000X5.000000*%
G04 APERTURE END LIST*
D10*
%TO.C,U1*%
X121440000Y-113030000D03*
D11*
X119140000Y-119330000D03*
D10*
X119140000Y-113030000D03*
X116840000Y-113030000D03*
%TD*%
D12*
%TO.C,C2*%
X121920000Y-110025000D03*
X121920000Y-107950000D03*
%TD*%
D13*
%TO.C,R5*%
X121920000Y-104870000D03*
X121920000Y-102870000D03*
%TD*%
D12*
%TO.C,C3*%
X93980000Y-108755000D03*
X93980000Y-106680000D03*
%TD*%
D14*
%TO.C,C4*%
X93980000Y-102870000D03*
X93980000Y-104945000D03*
%TD*%
D15*
%TO.C,SW1*%
X125730000Y-120830000D03*
X125730000Y-113030000D03*
%TD*%
D16*
%TO.C,U3*%
X135825000Y-120650000D03*
X135825000Y-119380000D03*
X135825000Y-118110000D03*
X135825000Y-116840000D03*
X135825000Y-115570000D03*
X135825000Y-114300000D03*
X135825000Y-113030000D03*
X130875000Y-113030000D03*
X130875000Y-114300000D03*
X130875000Y-115570000D03*
X130875000Y-116840000D03*
X130875000Y-118110000D03*
X130875000Y-119380000D03*
X130875000Y-120650000D03*
%TD*%
D17*
%TO.C,R1*%
X130810000Y-110490000D03*
X132810000Y-110490000D03*
%TD*%
%TO.C,R2*%
X130810000Y-107950000D03*
X132810000Y-107950000D03*
%TD*%
%TO.C,R3*%
X130810000Y-105410000D03*
X132810000Y-105410000D03*
%TD*%
%TO.C,R4*%
X130810000Y-102870000D03*
X132810000Y-102870000D03*
%TD*%
D13*
%TO.C,R6*%
X119380000Y-104870000D03*
X119380000Y-102870000D03*
%TD*%
D12*
%TO.C,C1*%
X119380000Y-110025000D03*
X119380000Y-107950000D03*
%TD*%
D15*
%TO.C,SW2*%
X125730000Y-110580000D03*
X125730000Y-102780000D03*
%TD*%
D18*
%TO.C,U2*%
X96910000Y-102235000D03*
X96910000Y-103505000D03*
X96910000Y-104775000D03*
X96910000Y-106045000D03*
X96910000Y-107315000D03*
X96910000Y-108585000D03*
X96910000Y-109855000D03*
X96910000Y-111125000D03*
X96910000Y-112395000D03*
X96910000Y-113665000D03*
X96910000Y-114935000D03*
X96910000Y-116205000D03*
X96910000Y-117475000D03*
X96910000Y-118745000D03*
D19*
X99695000Y-119745000D03*
X100965000Y-119745000D03*
X102235000Y-119745000D03*
X103505000Y-119745000D03*
X104775000Y-119745000D03*
X106045000Y-119745000D03*
X107315000Y-119745000D03*
X108585000Y-119745000D03*
X109855000Y-119745000D03*
X111125000Y-119745000D03*
D18*
X113910000Y-118745000D03*
X113910000Y-117475000D03*
X113910000Y-116205000D03*
X113910000Y-114935000D03*
X113910000Y-113665000D03*
X113910000Y-112395000D03*
X113910000Y-111125000D03*
X113910000Y-109855000D03*
X113910000Y-108585000D03*
X113910000Y-107315000D03*
X113910000Y-106045000D03*
X113910000Y-104775000D03*
X113910000Y-103505000D03*
X113910000Y-102235000D03*
D20*
X104410000Y-109735000D03*
%TD*%
M02*
