%TF.GenerationSoftware,KiCad,Pcbnew,(6.0.11)*%
%TF.CreationDate,2023-09-13T09:35:20+02:00*%
%TF.ProjectId,WLED_ESP32_Controller,574c4544-5f45-4535-9033-325f436f6e74,rev?*%
%TF.SameCoordinates,Original*%
%TF.FileFunction,Other,Comment*%
%FSLAX46Y46*%
G04 Gerber Fmt 4.6, Leading zero omitted, Abs format (unit mm)*
G04 Created by KiCad (PCBNEW (6.0.11)) date 2023-09-13 09:35:20*
%MOMM*%
%LPD*%
G01*
G04 APERTURE LIST*
%ADD10C,0.100000*%
%ADD11C,0.150000*%
G04 APERTURE END LIST*
D10*
%TO.C,U2*%
X112936190Y-92153095D02*
X112936190Y-92391190D01*
X113174285Y-92415000D01*
X113150476Y-92391190D01*
X113126666Y-92343571D01*
X113126666Y-92224523D01*
X113150476Y-92176904D01*
X113174285Y-92153095D01*
X113221904Y-92129285D01*
X113340952Y-92129285D01*
X113388571Y-92153095D01*
X113412380Y-92176904D01*
X113436190Y-92224523D01*
X113436190Y-92343571D01*
X113412380Y-92391190D01*
X113388571Y-92415000D01*
X113436190Y-91534047D02*
X113102857Y-91534047D01*
X113150476Y-91534047D02*
X113126666Y-91510238D01*
X113102857Y-91462619D01*
X113102857Y-91391190D01*
X113126666Y-91343571D01*
X113174285Y-91319761D01*
X113436190Y-91319761D01*
X113174285Y-91319761D02*
X113126666Y-91295952D01*
X113102857Y-91248333D01*
X113102857Y-91176904D01*
X113126666Y-91129285D01*
X113174285Y-91105476D01*
X113436190Y-91105476D01*
X113436190Y-90867380D02*
X113102857Y-90867380D01*
X113150476Y-90867380D02*
X113126666Y-90843571D01*
X113102857Y-90795952D01*
X113102857Y-90724523D01*
X113126666Y-90676904D01*
X113174285Y-90653095D01*
X113436190Y-90653095D01*
X113174285Y-90653095D02*
X113126666Y-90629285D01*
X113102857Y-90581666D01*
X113102857Y-90510238D01*
X113126666Y-90462619D01*
X113174285Y-90438809D01*
X113436190Y-90438809D01*
D11*
X99338571Y-91942380D02*
X99338571Y-90942380D01*
X99910000Y-91942380D02*
X99481428Y-91370952D01*
X99910000Y-90942380D02*
X99338571Y-91513809D01*
X100338571Y-91418571D02*
X100671904Y-91418571D01*
X100814761Y-91942380D02*
X100338571Y-91942380D01*
X100338571Y-90942380D01*
X100814761Y-90942380D01*
X101243333Y-91418571D02*
X101576666Y-91418571D01*
X101719523Y-91942380D02*
X101243333Y-91942380D01*
X101243333Y-90942380D01*
X101719523Y-90942380D01*
X102148095Y-91942380D02*
X102148095Y-90942380D01*
X102529047Y-90942380D01*
X102624285Y-90990000D01*
X102671904Y-91037619D01*
X102719523Y-91132857D01*
X102719523Y-91275714D01*
X102671904Y-91370952D01*
X102624285Y-91418571D01*
X102529047Y-91466190D01*
X102148095Y-91466190D01*
X103148095Y-91561428D02*
X103910000Y-91561428D01*
X104576666Y-90942380D02*
X104767142Y-90942380D01*
X104862380Y-90990000D01*
X104957619Y-91085238D01*
X105005238Y-91275714D01*
X105005238Y-91609047D01*
X104957619Y-91799523D01*
X104862380Y-91894761D01*
X104767142Y-91942380D01*
X104576666Y-91942380D01*
X104481428Y-91894761D01*
X104386190Y-91799523D01*
X104338571Y-91609047D01*
X104338571Y-91275714D01*
X104386190Y-91085238D01*
X104481428Y-90990000D01*
X104576666Y-90942380D01*
X105433809Y-90942380D02*
X105433809Y-91751904D01*
X105481428Y-91847142D01*
X105529047Y-91894761D01*
X105624285Y-91942380D01*
X105814761Y-91942380D01*
X105910000Y-91894761D01*
X105957619Y-91847142D01*
X106005238Y-91751904D01*
X106005238Y-90942380D01*
X106338571Y-90942380D02*
X106910000Y-90942380D01*
X106624285Y-91942380D02*
X106624285Y-90942380D01*
X107910000Y-90942380D02*
X108576666Y-90942380D01*
X107910000Y-91942380D01*
X108576666Y-91942380D01*
X109148095Y-90942380D02*
X109338571Y-90942380D01*
X109433809Y-90990000D01*
X109529047Y-91085238D01*
X109576666Y-91275714D01*
X109576666Y-91609047D01*
X109529047Y-91799523D01*
X109433809Y-91894761D01*
X109338571Y-91942380D01*
X109148095Y-91942380D01*
X109052857Y-91894761D01*
X108957619Y-91799523D01*
X108910000Y-91609047D01*
X108910000Y-91275714D01*
X108957619Y-91085238D01*
X109052857Y-90990000D01*
X109148095Y-90942380D01*
X110005238Y-91942380D02*
X110005238Y-90942380D01*
X110576666Y-91942380D01*
X110576666Y-90942380D01*
X111052857Y-91418571D02*
X111386190Y-91418571D01*
X111529047Y-91942380D02*
X111052857Y-91942380D01*
X111052857Y-90942380D01*
X111529047Y-90942380D01*
X102648095Y-97656666D02*
X103124285Y-97656666D01*
X102552857Y-97942380D02*
X102886190Y-96942380D01*
X103219523Y-97942380D01*
X103552857Y-97275714D02*
X103552857Y-97942380D01*
X103552857Y-97370952D02*
X103600476Y-97323333D01*
X103695714Y-97275714D01*
X103838571Y-97275714D01*
X103933809Y-97323333D01*
X103981428Y-97418571D01*
X103981428Y-97942380D01*
X104314761Y-97275714D02*
X104695714Y-97275714D01*
X104457619Y-96942380D02*
X104457619Y-97799523D01*
X104505238Y-97894761D01*
X104600476Y-97942380D01*
X104695714Y-97942380D01*
X105410000Y-97894761D02*
X105314761Y-97942380D01*
X105124285Y-97942380D01*
X105029047Y-97894761D01*
X104981428Y-97799523D01*
X104981428Y-97418571D01*
X105029047Y-97323333D01*
X105124285Y-97275714D01*
X105314761Y-97275714D01*
X105410000Y-97323333D01*
X105457619Y-97418571D01*
X105457619Y-97513809D01*
X104981428Y-97609047D01*
X105886190Y-97275714D02*
X105886190Y-97942380D01*
X105886190Y-97370952D02*
X105933809Y-97323333D01*
X106029047Y-97275714D01*
X106171904Y-97275714D01*
X106267142Y-97323333D01*
X106314761Y-97418571D01*
X106314761Y-97942380D01*
X106790952Y-97275714D02*
X106790952Y-97942380D01*
X106790952Y-97370952D02*
X106838571Y-97323333D01*
X106933809Y-97275714D01*
X107076666Y-97275714D01*
X107171904Y-97323333D01*
X107219523Y-97418571D01*
X107219523Y-97942380D01*
X108124285Y-97942380D02*
X108124285Y-97418571D01*
X108076666Y-97323333D01*
X107981428Y-97275714D01*
X107790952Y-97275714D01*
X107695714Y-97323333D01*
X108124285Y-97894761D02*
X108029047Y-97942380D01*
X107790952Y-97942380D01*
X107695714Y-97894761D01*
X107648095Y-97799523D01*
X107648095Y-97704285D01*
X107695714Y-97609047D01*
X107790952Y-97561428D01*
X108029047Y-97561428D01*
X108124285Y-97513809D01*
D10*
X93471904Y-95841190D02*
X93233809Y-95841190D01*
X93210000Y-96079285D01*
X93233809Y-96055476D01*
X93281428Y-96031666D01*
X93400476Y-96031666D01*
X93448095Y-96055476D01*
X93471904Y-96079285D01*
X93495714Y-96126904D01*
X93495714Y-96245952D01*
X93471904Y-96293571D01*
X93448095Y-96317380D01*
X93400476Y-96341190D01*
X93281428Y-96341190D01*
X93233809Y-96317380D01*
X93210000Y-96293571D01*
X94090952Y-96341190D02*
X94090952Y-96007857D01*
X94090952Y-96055476D02*
X94114761Y-96031666D01*
X94162380Y-96007857D01*
X94233809Y-96007857D01*
X94281428Y-96031666D01*
X94305238Y-96079285D01*
X94305238Y-96341190D01*
X94305238Y-96079285D02*
X94329047Y-96031666D01*
X94376666Y-96007857D01*
X94448095Y-96007857D01*
X94495714Y-96031666D01*
X94519523Y-96079285D01*
X94519523Y-96341190D01*
X94757619Y-96341190D02*
X94757619Y-96007857D01*
X94757619Y-96055476D02*
X94781428Y-96031666D01*
X94829047Y-96007857D01*
X94900476Y-96007857D01*
X94948095Y-96031666D01*
X94971904Y-96079285D01*
X94971904Y-96341190D01*
X94971904Y-96079285D02*
X94995714Y-96031666D01*
X95043333Y-96007857D01*
X95114761Y-96007857D01*
X95162380Y-96031666D01*
X95186190Y-96079285D01*
X95186190Y-96341190D01*
X116471904Y-95841190D02*
X116233809Y-95841190D01*
X116210000Y-96079285D01*
X116233809Y-96055476D01*
X116281428Y-96031666D01*
X116400476Y-96031666D01*
X116448095Y-96055476D01*
X116471904Y-96079285D01*
X116495714Y-96126904D01*
X116495714Y-96245952D01*
X116471904Y-96293571D01*
X116448095Y-96317380D01*
X116400476Y-96341190D01*
X116281428Y-96341190D01*
X116233809Y-96317380D01*
X116210000Y-96293571D01*
X117090952Y-96341190D02*
X117090952Y-96007857D01*
X117090952Y-96055476D02*
X117114761Y-96031666D01*
X117162380Y-96007857D01*
X117233809Y-96007857D01*
X117281428Y-96031666D01*
X117305238Y-96079285D01*
X117305238Y-96341190D01*
X117305238Y-96079285D02*
X117329047Y-96031666D01*
X117376666Y-96007857D01*
X117448095Y-96007857D01*
X117495714Y-96031666D01*
X117519523Y-96079285D01*
X117519523Y-96341190D01*
X117757619Y-96341190D02*
X117757619Y-96007857D01*
X117757619Y-96055476D02*
X117781428Y-96031666D01*
X117829047Y-96007857D01*
X117900476Y-96007857D01*
X117948095Y-96031666D01*
X117971904Y-96079285D01*
X117971904Y-96341190D01*
X117971904Y-96079285D02*
X117995714Y-96031666D01*
X118043333Y-96007857D01*
X118114761Y-96007857D01*
X118162380Y-96031666D01*
X118186190Y-96079285D01*
X118186190Y-96341190D01*
D11*
%TO.C,H2*%
X138690000Y-96520000D02*
G75*
G03*
X138690000Y-96520000I-2800000J0D01*
G01*
%TO.C,H1*%
X94240000Y-119380000D02*
G75*
G03*
X94240000Y-119380000I-2800000J0D01*
G01*
D10*
%TO.C,U2*%
X96210000Y-96615000D02*
X96010000Y-96415000D01*
X91610000Y-96615000D02*
X96210000Y-96615000D01*
X96210000Y-96615000D02*
X96010000Y-96815000D01*
X114610000Y-96615000D02*
X119210000Y-96615000D01*
X91610000Y-96615000D02*
X91810000Y-96815000D01*
X119210000Y-96615000D02*
X119010000Y-96415000D01*
X114610000Y-96615000D02*
X114810000Y-96815000D01*
X113810000Y-94490000D02*
X113810000Y-89890000D01*
X113810000Y-89890000D02*
X113610000Y-90090000D01*
X114610000Y-96615000D02*
X114810000Y-96415000D01*
X91610000Y-96615000D02*
X91810000Y-96415000D01*
X113810000Y-94490000D02*
X113610000Y-94290000D01*
X113810000Y-94490000D02*
X114010000Y-94290000D01*
X119210000Y-96615000D02*
X119010000Y-96815000D01*
X113810000Y-89890000D02*
X114010000Y-90090000D01*
%TD*%
M02*
