%TF.GenerationSoftware,KiCad,Pcbnew,(6.0.11)*%
%TF.CreationDate,2023-09-13T09:35:20+02:00*%
%TF.ProjectId,WLED_ESP32_Controller,574c4544-5f45-4535-9033-325f436f6e74,rev?*%
%TF.SameCoordinates,Original*%
%TF.FileFunction,Copper,L1,Top*%
%TF.FilePolarity,Positive*%
%FSLAX46Y46*%
G04 Gerber Fmt 4.6, Leading zero omitted, Abs format (unit mm)*
G04 Created by KiCad (PCBNEW (6.0.11)) date 2023-09-13 09:35:20*
%MOMM*%
%LPD*%
G01*
G04 APERTURE LIST*
G04 Aperture macros list*
%AMRoundRect*
0 Rectangle with rounded corners*
0 $1 Rounding radius*
0 $2 $3 $4 $5 $6 $7 $8 $9 X,Y pos of 4 corners*
0 Add a 4 corners polygon primitive as box body*
4,1,4,$2,$3,$4,$5,$6,$7,$8,$9,$2,$3,0*
0 Add four circle primitives for the rounded corners*
1,1,$1+$1,$2,$3*
1,1,$1+$1,$4,$5*
1,1,$1+$1,$6,$7*
1,1,$1+$1,$8,$9*
0 Add four rect primitives between the rounded corners*
20,1,$1+$1,$2,$3,$4,$5,0*
20,1,$1+$1,$4,$5,$6,$7,0*
20,1,$1+$1,$6,$7,$8,$9,0*
20,1,$1+$1,$8,$9,$2,$3,0*%
G04 Aperture macros list end*
%TA.AperFunction,SMDPad,CuDef*%
%ADD10R,1.500000X2.000000*%
%TD*%
%TA.AperFunction,SMDPad,CuDef*%
%ADD11R,3.800000X2.000000*%
%TD*%
%TA.AperFunction,SMDPad,CuDef*%
%ADD12RoundRect,0.250000X0.475000X-0.337500X0.475000X0.337500X-0.475000X0.337500X-0.475000X-0.337500X0*%
%TD*%
%TA.AperFunction,SMDPad,CuDef*%
%ADD13RoundRect,0.249999X0.450001X-0.350001X0.450001X0.350001X-0.450001X0.350001X-0.450001X-0.350001X0*%
%TD*%
%TA.AperFunction,SMDPad,CuDef*%
%ADD14RoundRect,0.250000X-0.475000X0.337500X-0.475000X-0.337500X0.475000X-0.337500X0.475000X0.337500X0*%
%TD*%
%TA.AperFunction,ComponentPad*%
%ADD15R,1.700000X1.700000*%
%TD*%
%TA.AperFunction,ComponentPad*%
%ADD16O,1.700000X1.700000*%
%TD*%
%TA.AperFunction,SMDPad,CuDef*%
%ADD17R,1.500000X1.500000*%
%TD*%
%TA.AperFunction,SMDPad,CuDef*%
%ADD18RoundRect,0.090000X0.895000X0.210000X-0.895000X0.210000X-0.895000X-0.210000X0.895000X-0.210000X0*%
%TD*%
%TA.AperFunction,SMDPad,CuDef*%
%ADD19R,1.000000X1.500000*%
%TD*%
%TA.AperFunction,SMDPad,CuDef*%
%ADD20RoundRect,0.249999X-0.350001X-0.450001X0.350001X-0.450001X0.350001X0.450001X-0.350001X0.450001X0*%
%TD*%
%TA.AperFunction,SMDPad,CuDef*%
%ADD21R,2.000000X0.900000*%
%TD*%
%TA.AperFunction,SMDPad,CuDef*%
%ADD22R,0.900000X2.000000*%
%TD*%
%TA.AperFunction,SMDPad,CuDef*%
%ADD23R,5.000000X5.000000*%
%TD*%
%TA.AperFunction,ComponentPad*%
%ADD24R,3.000000X3.000000*%
%TD*%
%TA.AperFunction,ComponentPad*%
%ADD25C,3.000000*%
%TD*%
%TA.AperFunction,ViaPad*%
%ADD26C,0.800000*%
%TD*%
%TA.AperFunction,Conductor*%
%ADD27C,0.250000*%
%TD*%
G04 APERTURE END LIST*
D10*
%TO.P,U1,1,GND*%
%TO.N,GND*%
X121440000Y-113030000D03*
D11*
%TO.P,U1,2,VO*%
%TO.N,+3.3V*%
X119140000Y-119330000D03*
D10*
X119140000Y-113030000D03*
%TO.P,U1,3,VI*%
%TO.N,+5V*%
X116840000Y-113030000D03*
%TD*%
D12*
%TO.P,C2,1*%
%TO.N,+3.3V*%
X121920000Y-110025000D03*
%TO.P,C2,2*%
%TO.N,GND*%
X121920000Y-107950000D03*
%TD*%
D13*
%TO.P,R5,1*%
%TO.N,+3.3V*%
X121920000Y-104870000D03*
%TO.P,R5,2*%
%TO.N,Net-(R5-Pad2)*%
X121920000Y-102870000D03*
%TD*%
D12*
%TO.P,C3,1*%
%TO.N,GND*%
X93980000Y-108755000D03*
%TO.P,C3,2*%
%TO.N,+3.3V*%
X93980000Y-106680000D03*
%TD*%
D14*
%TO.P,C4,1*%
%TO.N,GND*%
X93980000Y-102870000D03*
%TO.P,C4,2*%
%TO.N,+3.3V*%
X93980000Y-104945000D03*
%TD*%
D15*
%TO.P,J2,1,Pin_1*%
%TO.N,+3.3V*%
X123190000Y-99060000D03*
D16*
%TO.P,J2,2,Pin_2*%
%TO.N,TX0*%
X125730000Y-99060000D03*
%TO.P,J2,3,Pin_3*%
%TO.N,RX0*%
X128270000Y-99060000D03*
%TO.P,J2,4,Pin_4*%
%TO.N,GND*%
X130810000Y-99060000D03*
%TD*%
D17*
%TO.P,SW1,1,1*%
%TO.N,GND*%
X125730000Y-120830000D03*
%TO.P,SW1,2,2*%
%TO.N,Net-(R5-Pad2)*%
X125730000Y-113030000D03*
%TD*%
D18*
%TO.P,U3,1,1~{OE}*%
%TO.N,GND*%
X135825000Y-120650000D03*
%TO.P,U3,2,1A*%
%TO.N,DATA1*%
X135825000Y-119380000D03*
%TO.P,U3,3,1Y*%
%TO.N,OUT1*%
X135825000Y-118110000D03*
%TO.P,U3,4,2~{OE}*%
%TO.N,GND*%
X135825000Y-116840000D03*
%TO.P,U3,5,2A*%
%TO.N,DATA2*%
X135825000Y-115570000D03*
%TO.P,U3,6,2Y*%
%TO.N,OUT2*%
X135825000Y-114300000D03*
%TO.P,U3,7,GND*%
%TO.N,GND*%
X135825000Y-113030000D03*
%TO.P,U3,8,3Y*%
%TO.N,OUT3*%
X130875000Y-113030000D03*
%TO.P,U3,9,3A*%
%TO.N,DATA3*%
X130875000Y-114300000D03*
%TO.P,U3,10,3~{OE}*%
%TO.N,GND*%
X130875000Y-115570000D03*
%TO.P,U3,11,4Y*%
%TO.N,OUT4*%
X130875000Y-116840000D03*
%TO.P,U3,12,4A*%
%TO.N,DATA4*%
X130875000Y-118110000D03*
%TO.P,U3,13,4~{OE}*%
%TO.N,GND*%
X130875000Y-119380000D03*
%TO.P,U3,14,VCC*%
%TO.N,+5V*%
X130875000Y-120650000D03*
%TD*%
D19*
%TO.P,JP1,1,A*%
%TO.N,OUT1*%
X135890000Y-110490000D03*
%TO.P,JP1,2,B*%
%TO.N,Net-(J1-Pad4)*%
X137190000Y-110490000D03*
%TD*%
%TO.P,JP2,1,A*%
%TO.N,OUT2*%
X135890000Y-107950000D03*
%TO.P,JP2,2,B*%
%TO.N,Net-(J1-Pad3)*%
X137190000Y-107950000D03*
%TD*%
D20*
%TO.P,R1,1*%
%TO.N,OUT1*%
X130810000Y-110490000D03*
%TO.P,R1,2*%
%TO.N,Net-(J1-Pad4)*%
X132810000Y-110490000D03*
%TD*%
%TO.P,R2,1*%
%TO.N,OUT2*%
X130810000Y-107950000D03*
%TO.P,R2,2*%
%TO.N,Net-(J1-Pad3)*%
X132810000Y-107950000D03*
%TD*%
%TO.P,R3,1*%
%TO.N,OUT3*%
X130810000Y-105410000D03*
%TO.P,R3,2*%
%TO.N,Net-(J1-Pad2)*%
X132810000Y-105410000D03*
%TD*%
%TO.P,R4,1*%
%TO.N,OUT4*%
X130810000Y-102870000D03*
%TO.P,R4,2*%
%TO.N,Net-(J1-Pad1)*%
X132810000Y-102870000D03*
%TD*%
D19*
%TO.P,JP3,1,A*%
%TO.N,OUT3*%
X135890000Y-105410000D03*
%TO.P,JP3,2,B*%
%TO.N,Net-(J1-Pad2)*%
X137190000Y-105410000D03*
%TD*%
%TO.P,JP4,1,A*%
%TO.N,OUT4*%
X135890000Y-102870000D03*
%TO.P,JP4,2,B*%
%TO.N,Net-(J1-Pad1)*%
X137190000Y-102870000D03*
%TD*%
D13*
%TO.P,R6,1*%
%TO.N,+3.3V*%
X119380000Y-104870000D03*
%TO.P,R6,2*%
%TO.N,Net-(R6-Pad2)*%
X119380000Y-102870000D03*
%TD*%
D12*
%TO.P,C1,1*%
%TO.N,+5V*%
X119380000Y-110025000D03*
%TO.P,C1,2*%
%TO.N,GND*%
X119380000Y-107950000D03*
%TD*%
D17*
%TO.P,SW2,1,1*%
%TO.N,GND*%
X125730000Y-110580000D03*
%TO.P,SW2,2,2*%
%TO.N,Net-(R6-Pad2)*%
X125730000Y-102780000D03*
%TD*%
D15*
%TO.P,J3,1,Pin_1*%
%TO.N,ADC1*%
X90170000Y-97790000D03*
D16*
%TO.P,J3,2,Pin_2*%
%TO.N,GND*%
X90170000Y-100330000D03*
%TO.P,J3,3,Pin_3*%
%TO.N,+3.3V*%
X90170000Y-102870000D03*
%TO.P,J3,4,Pin_4*%
%TO.N,IN1*%
X90170000Y-105410000D03*
%TO.P,J3,5,Pin_5*%
%TO.N,GND*%
X90170000Y-107950000D03*
%TO.P,J3,6,Pin_6*%
%TO.N,IN2*%
X90170000Y-110490000D03*
%TO.P,J3,7,Pin_7*%
%TO.N,GND*%
X90170000Y-113030000D03*
%TD*%
D21*
%TO.P,U2,1,GND*%
%TO.N,GND*%
X96910000Y-102235000D03*
%TO.P,U2,2,VDD*%
%TO.N,+3.3V*%
X96910000Y-103505000D03*
%TO.P,U2,3,EN*%
%TO.N,Net-(R5-Pad2)*%
X96910000Y-104775000D03*
%TO.P,U2,4,SENSOR_VP*%
%TO.N,ADC1*%
X96910000Y-106045000D03*
%TO.P,U2,5,SENSOR_VN*%
%TO.N,unconnected-(U2-Pad5)*%
X96910000Y-107315000D03*
%TO.P,U2,6,IO34*%
%TO.N,unconnected-(U2-Pad6)*%
X96910000Y-108585000D03*
%TO.P,U2,7,IO35*%
%TO.N,unconnected-(U2-Pad7)*%
X96910000Y-109855000D03*
%TO.P,U2,8,IO32*%
%TO.N,unconnected-(U2-Pad8)*%
X96910000Y-111125000D03*
%TO.P,U2,9,IO33*%
%TO.N,unconnected-(U2-Pad9)*%
X96910000Y-112395000D03*
%TO.P,U2,10,IO25*%
%TO.N,unconnected-(U2-Pad10)*%
X96910000Y-113665000D03*
%TO.P,U2,11,IO26*%
%TO.N,IN1*%
X96910000Y-114935000D03*
%TO.P,U2,12,IO27*%
%TO.N,IN2*%
X96910000Y-116205000D03*
%TO.P,U2,13,IO14*%
%TO.N,unconnected-(U2-Pad13)*%
X96910000Y-117475000D03*
%TO.P,U2,14,IO12*%
%TO.N,unconnected-(U2-Pad14)*%
X96910000Y-118745000D03*
D22*
%TO.P,U2,15,GND*%
%TO.N,GND*%
X99695000Y-119745000D03*
%TO.P,U2,16,IO13*%
%TO.N,unconnected-(U2-Pad16)*%
X100965000Y-119745000D03*
%TO.P,U2,17,SHD/SD2*%
%TO.N,unconnected-(U2-Pad17)*%
X102235000Y-119745000D03*
%TO.P,U2,18,SWP/SD3*%
%TO.N,unconnected-(U2-Pad18)*%
X103505000Y-119745000D03*
%TO.P,U2,19,SCS/CMD*%
%TO.N,unconnected-(U2-Pad19)*%
X104775000Y-119745000D03*
%TO.P,U2,20,SCK/CLK*%
%TO.N,unconnected-(U2-Pad20)*%
X106045000Y-119745000D03*
%TO.P,U2,21,SDO/SD0*%
%TO.N,unconnected-(U2-Pad21)*%
X107315000Y-119745000D03*
%TO.P,U2,22,SDI/SD1*%
%TO.N,unconnected-(U2-Pad22)*%
X108585000Y-119745000D03*
%TO.P,U2,23,IO15*%
%TO.N,unconnected-(U2-Pad23)*%
X109855000Y-119745000D03*
%TO.P,U2,24,IO2*%
%TO.N,unconnected-(U2-Pad24)*%
X111125000Y-119745000D03*
D21*
%TO.P,U2,25,IO0*%
%TO.N,Net-(R6-Pad2)*%
X113910000Y-118745000D03*
%TO.P,U2,26,IO4*%
%TO.N,unconnected-(U2-Pad26)*%
X113910000Y-117475000D03*
%TO.P,U2,27,IO16*%
%TO.N,DATA1*%
X113910000Y-116205000D03*
%TO.P,U2,28,IO17*%
%TO.N,DATA2*%
X113910000Y-114935000D03*
%TO.P,U2,29,IO5*%
%TO.N,unconnected-(U2-Pad29)*%
X113910000Y-113665000D03*
%TO.P,U2,30,IO18*%
%TO.N,DATA3*%
X113910000Y-112395000D03*
%TO.P,U2,31,IO19*%
%TO.N,DATA4*%
X113910000Y-111125000D03*
%TO.P,U2,32,NC*%
%TO.N,unconnected-(U2-Pad32)*%
X113910000Y-109855000D03*
%TO.P,U2,33,IO21*%
%TO.N,unconnected-(U2-Pad33)*%
X113910000Y-108585000D03*
%TO.P,U2,34,RXD0/IO3*%
%TO.N,RX0*%
X113910000Y-107315000D03*
%TO.P,U2,35,TXD0/IO1*%
%TO.N,TX0*%
X113910000Y-106045000D03*
%TO.P,U2,36,IO22*%
%TO.N,unconnected-(U2-Pad36)*%
X113910000Y-104775000D03*
%TO.P,U2,37,IO23*%
%TO.N,unconnected-(U2-Pad37)*%
X113910000Y-103505000D03*
%TO.P,U2,38,GND*%
%TO.N,GND*%
X113910000Y-102235000D03*
D23*
%TO.P,U2,39,GND*%
X104410000Y-109735000D03*
%TD*%
D24*
%TO.P,J1,1,Pin_1*%
%TO.N,Net-(J1-Pad1)*%
X143510000Y-95250000D03*
D25*
%TO.P,J1,2,Pin_2*%
%TO.N,Net-(J1-Pad2)*%
X143510000Y-100330000D03*
%TO.P,J1,3,Pin_3*%
%TO.N,Net-(J1-Pad3)*%
X143510000Y-105410000D03*
%TO.P,J1,4,Pin_4*%
%TO.N,Net-(J1-Pad4)*%
X143510000Y-110490000D03*
%TO.P,J1,5,Pin_5*%
%TO.N,GND*%
X143510000Y-115570000D03*
%TO.P,J1,6,Pin_6*%
%TO.N,+5V*%
X143510000Y-120650000D03*
%TD*%
D26*
%TO.N,GND*%
X93980000Y-110490000D03*
X118110000Y-107950000D03*
X133350000Y-115570000D03*
X123190000Y-107950000D03*
%TO.N,+3.3V*%
X120650000Y-106680000D03*
X99060000Y-104140000D03*
%TO.N,RX0*%
X116840000Y-104140000D03*
%TO.N,OUT2*%
X138430000Y-114300000D03*
X134666795Y-107903205D03*
%TO.N,DATA1*%
X111760000Y-116840000D03*
X133350000Y-119380000D03*
%TO.N,DATA2*%
X138430000Y-115570000D03*
X111760000Y-115570000D03*
%TO.N,DATA3*%
X133350000Y-114300000D03*
X111760000Y-113030000D03*
%TO.N,DATA4*%
X133350000Y-116840000D03*
X111760000Y-111760000D03*
%TO.N,Net-(R5-Pad2)*%
X101600000Y-104140000D03*
X116840000Y-101600000D03*
%TD*%
D27*
%TO.N,+3.3V*%
X121920000Y-110025000D02*
X121920000Y-110250000D01*
X93980000Y-104945000D02*
X95420000Y-103505000D01*
X119140000Y-113030000D02*
X119140000Y-119330000D01*
X121920000Y-110250000D02*
X119140000Y-113030000D01*
X99060000Y-104140000D02*
X98425000Y-103505000D01*
X121920000Y-105410000D02*
X120650000Y-106680000D01*
X90170000Y-102870000D02*
X91905000Y-102870000D01*
X120650000Y-108305690D02*
X121920000Y-109575690D01*
X95420000Y-103505000D02*
X96910000Y-103505000D01*
X121920000Y-109575690D02*
X121920000Y-110025000D01*
X93980000Y-104945000D02*
X93980000Y-106680000D01*
X98425000Y-103505000D02*
X96910000Y-103505000D01*
X121920000Y-104870000D02*
X121920000Y-105410000D01*
X120650000Y-106680000D02*
X120650000Y-108305690D01*
X119380000Y-104870000D02*
X119380000Y-105410000D01*
X91905000Y-102870000D02*
X93980000Y-104945000D01*
X119380000Y-105410000D02*
X120650000Y-106680000D01*
%TO.N,TX0*%
X116114999Y-105090001D02*
X115160000Y-106045000D01*
X125730000Y-99060000D02*
X124554999Y-97884999D01*
X115160000Y-106045000D02*
X113910000Y-106045000D01*
X121581152Y-97884999D02*
X118591152Y-100874999D01*
X116114999Y-101251999D02*
X116114999Y-105090001D01*
X118591152Y-100874999D02*
X116491999Y-100874999D01*
X116491999Y-100874999D02*
X116114999Y-101251999D01*
X124554999Y-97884999D02*
X121581152Y-97884999D01*
%TO.N,RX0*%
X114675002Y-107315000D02*
X113910000Y-107315000D01*
X116840000Y-105150002D02*
X114675002Y-107315000D01*
X116840000Y-104140000D02*
X116840000Y-105150002D01*
%TO.N,+5V*%
X116840000Y-113030000D02*
X116840000Y-112565000D01*
X124719999Y-119754999D02*
X127374999Y-119754999D01*
X116979999Y-120655001D02*
X123819997Y-120655001D01*
X123819997Y-120655001D02*
X124719999Y-119754999D01*
X127374999Y-119754999D02*
X128270000Y-120650000D01*
X128270000Y-120650000D02*
X130875000Y-120650000D01*
X142010001Y-122149999D02*
X143510000Y-120650000D01*
X130875000Y-120650000D02*
X132374999Y-122149999D01*
X116840000Y-112565000D02*
X119380000Y-110025000D01*
X132374999Y-122149999D02*
X142010001Y-122149999D01*
X116840000Y-120515002D02*
X116979999Y-120655001D01*
X116840000Y-113030000D02*
X116840000Y-120515002D01*
%TO.N,OUT4*%
X129890000Y-116840000D02*
X130875000Y-116840000D01*
X131835010Y-101844990D02*
X133594990Y-101844990D01*
X133594990Y-101844990D02*
X134620000Y-102870000D01*
X134620000Y-102870000D02*
X135890000Y-102870000D01*
X128720010Y-104959990D02*
X128720010Y-115670010D01*
X128720010Y-115670010D02*
X129890000Y-116840000D01*
X130810000Y-102870000D02*
X128720010Y-104959990D01*
X130810000Y-102870000D02*
X131835010Y-101844990D01*
%TO.N,OUT3*%
X134713590Y-105410000D02*
X135890000Y-105410000D01*
X133688580Y-104384990D02*
X134713590Y-105410000D01*
X129605000Y-106615000D02*
X130810000Y-105410000D01*
X130810000Y-105410000D02*
X131835010Y-104384990D01*
X130875000Y-113030000D02*
X129605000Y-111760000D01*
X129605000Y-111760000D02*
X129605000Y-106615000D01*
X131835010Y-104384990D02*
X133688580Y-104384990D01*
%TO.N,OUT2*%
X130810000Y-107950000D02*
X131835010Y-106924990D01*
X133688580Y-106924990D02*
X133698610Y-106935020D01*
X131835010Y-106924990D02*
X133688580Y-106924990D01*
X134666795Y-107903205D02*
X135843205Y-107903205D01*
X133698610Y-106935020D02*
X134875020Y-106935020D01*
X134875020Y-106935020D02*
X135890000Y-107950000D01*
X135825000Y-114300000D02*
X138430000Y-114300000D01*
%TO.N,OUT1*%
X134840000Y-118110000D02*
X135825000Y-118110000D01*
X134514990Y-117784990D02*
X134840000Y-118110000D01*
X131835010Y-109464990D02*
X133688580Y-109464990D01*
X130810000Y-110490000D02*
X134514990Y-114194990D01*
X130810000Y-110490000D02*
X131835010Y-109464990D01*
X134713590Y-110490000D02*
X135890000Y-110490000D01*
X134514990Y-114194990D02*
X134514990Y-117784990D01*
X133688580Y-109464990D02*
X134713590Y-110490000D01*
%TO.N,Net-(J1-Pad4)*%
X137190000Y-110490000D02*
X143510000Y-110490000D01*
X133885010Y-111565010D02*
X136524626Y-111565010D01*
X137190000Y-110899636D02*
X137190000Y-110490000D01*
X136524626Y-111565010D02*
X137190000Y-110899636D01*
X132810000Y-110490000D02*
X133885010Y-111565010D01*
%TO.N,Net-(J1-Pad3)*%
X137190000Y-107950000D02*
X140970000Y-107950000D01*
X133885010Y-109025010D02*
X136524626Y-109025010D01*
X137190000Y-108359636D02*
X137190000Y-107950000D01*
X132810000Y-107950000D02*
X133885010Y-109025010D01*
X140970000Y-107950000D02*
X143510000Y-105410000D01*
X136524626Y-109025010D02*
X137190000Y-108359636D01*
%TO.N,DATA1*%
X133350000Y-119380000D02*
X135825000Y-119380000D01*
X112395000Y-116205000D02*
X113910000Y-116205000D01*
X111760000Y-116840000D02*
X112395000Y-116205000D01*
%TO.N,DATA2*%
X113910000Y-114935000D02*
X112591998Y-114935000D01*
X112591998Y-114935000D02*
X111858499Y-115668499D01*
X135825000Y-115570000D02*
X138430000Y-115570000D01*
%TO.N,DATA3*%
X130875000Y-114300000D02*
X133350000Y-114300000D01*
X112395000Y-112395000D02*
X113910000Y-112395000D01*
X111760000Y-113030000D02*
X112395000Y-112395000D01*
%TO.N,DATA4*%
X133130000Y-116840000D02*
X133350000Y-116840000D01*
X111760000Y-111760000D02*
X112395000Y-111125000D01*
X131860000Y-118110000D02*
X133130000Y-116840000D01*
X130875000Y-118110000D02*
X131860000Y-118110000D01*
X112395000Y-111125000D02*
X113910000Y-111125000D01*
%TO.N,Net-(R6-Pad2)*%
X124714990Y-103795010D02*
X125730000Y-102780000D01*
X119380000Y-102870000D02*
X120305010Y-103795010D01*
X119380000Y-102870000D02*
X117290010Y-104959990D01*
X117290010Y-106229990D02*
X115235001Y-108284999D01*
X115235001Y-108284999D02*
X115235001Y-118185001D01*
X114675002Y-118745000D02*
X113910000Y-118745000D01*
X117290010Y-104959990D02*
X117290010Y-106229990D01*
X120305010Y-103795010D02*
X124714990Y-103795010D01*
X115235001Y-118185001D02*
X114675002Y-118745000D01*
%TO.N,Net-(J1-Pad1)*%
X132810000Y-102870000D02*
X133885010Y-103945010D01*
X137190000Y-103279636D02*
X137190000Y-102870000D01*
X136524626Y-103945010D02*
X137190000Y-103279636D01*
X137190000Y-102122408D02*
X143510000Y-95802408D01*
X137190000Y-102870000D02*
X137190000Y-102122408D01*
X143510000Y-95802408D02*
X143510000Y-95250000D01*
X133885010Y-103945010D02*
X136524626Y-103945010D01*
%TO.N,Net-(J1-Pad2)*%
X132810000Y-105410000D02*
X133885010Y-106485010D01*
X137190000Y-105410000D02*
X138430000Y-105410000D01*
X137190000Y-105819636D02*
X137190000Y-105410000D01*
X133885010Y-106485010D02*
X136524626Y-106485010D01*
X136524626Y-106485010D02*
X137190000Y-105819636D01*
X138430000Y-105410000D02*
X143510000Y-100330000D01*
%TO.N,IN2*%
X90170000Y-110490000D02*
X95885000Y-116205000D01*
X95885000Y-116205000D02*
X96910000Y-116205000D01*
%TO.N,IN1*%
X90170000Y-105410000D02*
X91345001Y-106585001D01*
X91345001Y-110395001D02*
X95885000Y-114935000D01*
X91345001Y-106585001D02*
X91345001Y-110395001D01*
X95885000Y-114935000D02*
X96910000Y-114935000D01*
%TO.N,ADC1*%
X88994999Y-98965001D02*
X88994999Y-103434001D01*
X88994999Y-103434001D02*
X89700998Y-104140000D01*
X92929990Y-106430988D02*
X92929990Y-107255680D01*
X90170000Y-97790000D02*
X88994999Y-98965001D01*
X93266820Y-107592510D02*
X94693180Y-107592510D01*
X94693180Y-107592510D02*
X96240690Y-106045000D01*
X96240690Y-106045000D02*
X96910000Y-106045000D01*
X90639002Y-104140000D02*
X92929990Y-106430988D01*
X92929990Y-107255680D02*
X93266820Y-107592510D01*
X89700998Y-104140000D02*
X90639002Y-104140000D01*
%TO.N,Net-(R5-Pad2)*%
X100874999Y-104865001D02*
X101600000Y-104140000D01*
X96910000Y-104775000D02*
X97000001Y-104865001D01*
X119723190Y-101600000D02*
X120993190Y-102870000D01*
X123085001Y-101704999D02*
X127104999Y-101704999D01*
X97000001Y-104865001D02*
X100874999Y-104865001D01*
X128270000Y-111490000D02*
X126730000Y-113030000D01*
X128270000Y-102870000D02*
X128270000Y-111490000D01*
X126730000Y-113030000D02*
X125730000Y-113030000D01*
X127104999Y-101704999D02*
X128270000Y-102870000D01*
X121920000Y-102870000D02*
X123085001Y-101704999D01*
X120993190Y-102870000D02*
X121920000Y-102870000D01*
X116840000Y-101600000D02*
X119723190Y-101600000D01*
%TD*%
%TA.AperFunction,Conductor*%
%TO.N,GND*%
G36*
X148560018Y-93220000D02*
G01*
X148574852Y-93222310D01*
X148574855Y-93222310D01*
X148583724Y-93223691D01*
X148593659Y-93222392D01*
X148594746Y-93222250D01*
X148623431Y-93221793D01*
X148696741Y-93229013D01*
X148726212Y-93231916D01*
X148750432Y-93236733D01*
X148869546Y-93272866D01*
X148892355Y-93282315D01*
X149002124Y-93340987D01*
X149022655Y-93354705D01*
X149118876Y-93433671D01*
X149136329Y-93451124D01*
X149215295Y-93547345D01*
X149229013Y-93567876D01*
X149287685Y-93677645D01*
X149297134Y-93700454D01*
X149333267Y-93819568D01*
X149338084Y-93843789D01*
X149347541Y-93939809D01*
X149347091Y-93955868D01*
X149347800Y-93955877D01*
X149347690Y-93964853D01*
X149346309Y-93973724D01*
X149347473Y-93982626D01*
X149347473Y-93982628D01*
X149350436Y-94005283D01*
X149351500Y-94021621D01*
X149351500Y-121870633D01*
X149350000Y-121890018D01*
X149346309Y-121913724D01*
X149347473Y-121922626D01*
X149347750Y-121924746D01*
X149348207Y-121953431D01*
X149347289Y-121962755D01*
X149338084Y-122056212D01*
X149333267Y-122080432D01*
X149297134Y-122199546D01*
X149287685Y-122222355D01*
X149229013Y-122332124D01*
X149215295Y-122352655D01*
X149136329Y-122448876D01*
X149118876Y-122466329D01*
X149022655Y-122545295D01*
X149002124Y-122559013D01*
X148892355Y-122617685D01*
X148869546Y-122627134D01*
X148750432Y-122663267D01*
X148726211Y-122668084D01*
X148630191Y-122677541D01*
X148614132Y-122677091D01*
X148614123Y-122677800D01*
X148605147Y-122677690D01*
X148596276Y-122676309D01*
X148587374Y-122677473D01*
X148587372Y-122677473D01*
X148574856Y-122679110D01*
X148564714Y-122680436D01*
X148548379Y-122681500D01*
X144479880Y-122681500D01*
X144411759Y-122661498D01*
X144365266Y-122607842D01*
X144355162Y-122537568D01*
X144384656Y-122472988D01*
X144416309Y-122446712D01*
X144637879Y-122317237D01*
X144637880Y-122317236D01*
X144641582Y-122315073D01*
X144857089Y-122146094D01*
X144915007Y-122086328D01*
X145044686Y-121952509D01*
X145047669Y-121949431D01*
X145050202Y-121945983D01*
X145050206Y-121945978D01*
X145207257Y-121732178D01*
X145209795Y-121728723D01*
X145226691Y-121697604D01*
X145338418Y-121491830D01*
X145338419Y-121491828D01*
X145340468Y-121488054D01*
X145404862Y-121317641D01*
X145435751Y-121235895D01*
X145435752Y-121235891D01*
X145437269Y-121231877D01*
X145470112Y-121088475D01*
X145497449Y-120969117D01*
X145497450Y-120969113D01*
X145498407Y-120964933D01*
X145499552Y-120952109D01*
X145522531Y-120694627D01*
X145522531Y-120694625D01*
X145522751Y-120692161D01*
X145523193Y-120650000D01*
X145522775Y-120643863D01*
X145504859Y-120381055D01*
X145504858Y-120381049D01*
X145504567Y-120376778D01*
X145449032Y-120108612D01*
X145357617Y-119850465D01*
X145232013Y-119607112D01*
X145222040Y-119592921D01*
X145077008Y-119386562D01*
X145074545Y-119383057D01*
X144976566Y-119277619D01*
X144891046Y-119185588D01*
X144891043Y-119185585D01*
X144888125Y-119182445D01*
X144884810Y-119179731D01*
X144884806Y-119179728D01*
X144754069Y-119072721D01*
X144676205Y-119008990D01*
X144458851Y-118875796D01*
X144446366Y-118868145D01*
X144446365Y-118868145D01*
X144442704Y-118865901D01*
X144430403Y-118860501D01*
X144195873Y-118757549D01*
X144195869Y-118757548D01*
X144191945Y-118755825D01*
X143928566Y-118680800D01*
X143924324Y-118680196D01*
X143924318Y-118680195D01*
X143723834Y-118651662D01*
X143657443Y-118642213D01*
X143513589Y-118641460D01*
X143387877Y-118640802D01*
X143387871Y-118640802D01*
X143383591Y-118640780D01*
X143379347Y-118641339D01*
X143379343Y-118641339D01*
X143260302Y-118657011D01*
X143112078Y-118676525D01*
X143107938Y-118677658D01*
X143107936Y-118677658D01*
X143076178Y-118686346D01*
X142847928Y-118748788D01*
X142843980Y-118750472D01*
X142599982Y-118854546D01*
X142599978Y-118854548D01*
X142596030Y-118856232D01*
X142553852Y-118881475D01*
X142364725Y-118994664D01*
X142364721Y-118994667D01*
X142361043Y-118996868D01*
X142147318Y-119168094D01*
X142068090Y-119251583D01*
X141962605Y-119362741D01*
X141958808Y-119366742D01*
X141799002Y-119589136D01*
X141670857Y-119831161D01*
X141669385Y-119835184D01*
X141669383Y-119835188D01*
X141580166Y-120078984D01*
X141576743Y-120088337D01*
X141518404Y-120355907D01*
X141518068Y-120360177D01*
X141504943Y-120526947D01*
X141496917Y-120628918D01*
X141512682Y-120902320D01*
X141513507Y-120906525D01*
X141513508Y-120906533D01*
X141535032Y-121016240D01*
X141565405Y-121171053D01*
X141566792Y-121175103D01*
X141566793Y-121175108D01*
X141591454Y-121247135D01*
X141625946Y-121347876D01*
X141626565Y-121349685D01*
X141629707Y-121420612D01*
X141594004Y-121481978D01*
X141530792Y-121514301D01*
X141507358Y-121516499D01*
X137217942Y-121516499D01*
X137149821Y-121496497D01*
X137103328Y-121442841D01*
X137093224Y-121372567D01*
X137122718Y-121307987D01*
X137136057Y-121295418D01*
X137151522Y-121279953D01*
X137237325Y-121168131D01*
X137245512Y-121153950D01*
X137299448Y-121023738D01*
X137303686Y-121007921D01*
X137315002Y-120921961D01*
X137312791Y-120907779D01*
X137299633Y-120904000D01*
X134350748Y-120904000D01*
X134336977Y-120908044D01*
X134334948Y-120921583D01*
X134346314Y-121007921D01*
X134350552Y-121023738D01*
X134404488Y-121153950D01*
X134412675Y-121168131D01*
X134498478Y-121279953D01*
X134515892Y-121297367D01*
X134514654Y-121298605D01*
X134550630Y-121347876D01*
X134554851Y-121418747D01*
X134520086Y-121480649D01*
X134457373Y-121513930D01*
X134432058Y-121516499D01*
X132689594Y-121516499D01*
X132621473Y-121496497D01*
X132600498Y-121479594D01*
X132349376Y-121228471D01*
X132315351Y-121166159D01*
X132322063Y-121091157D01*
X132349936Y-121023866D01*
X132353095Y-121016240D01*
X132354191Y-121007921D01*
X132367962Y-120903312D01*
X132367962Y-120903311D01*
X132368500Y-120899225D01*
X132368499Y-120400776D01*
X132367871Y-120396000D01*
X132354172Y-120291945D01*
X132353095Y-120283760D01*
X132338612Y-120248794D01*
X132295948Y-120145796D01*
X132295947Y-120145794D01*
X132292788Y-120138168D01*
X132287761Y-120131617D01*
X132287759Y-120131613D01*
X132256820Y-120091292D01*
X132231220Y-120025072D01*
X132245485Y-119955523D01*
X132256821Y-119937885D01*
X132287322Y-119898135D01*
X132295515Y-119883944D01*
X132321554Y-119821083D01*
X132366102Y-119765802D01*
X132433466Y-119743382D01*
X132502257Y-119760941D01*
X132547080Y-119806301D01*
X132610960Y-119916944D01*
X132615378Y-119921851D01*
X132615379Y-119921852D01*
X132700920Y-120016855D01*
X132738747Y-120058866D01*
X132893248Y-120171118D01*
X132899276Y-120173802D01*
X132899278Y-120173803D01*
X133061681Y-120246109D01*
X133067712Y-120248794D01*
X133161112Y-120268647D01*
X133248056Y-120287128D01*
X133248061Y-120287128D01*
X133254513Y-120288500D01*
X133445487Y-120288500D01*
X133451939Y-120287128D01*
X133451944Y-120287128D01*
X133538888Y-120268647D01*
X133632288Y-120248794D01*
X133638319Y-120246109D01*
X133800722Y-120173803D01*
X133800724Y-120173802D01*
X133806752Y-120171118D01*
X133961253Y-120058866D01*
X133965668Y-120053963D01*
X133970580Y-120049540D01*
X133971705Y-120050789D01*
X134025014Y-120017949D01*
X134058200Y-120013500D01*
X134270819Y-120013500D01*
X134338940Y-120033502D01*
X134385433Y-120087158D01*
X134395537Y-120157432D01*
X134387228Y-120187718D01*
X134350552Y-120276261D01*
X134346314Y-120292079D01*
X134334998Y-120378039D01*
X134337209Y-120392221D01*
X134350367Y-120396000D01*
X137299252Y-120396000D01*
X137313023Y-120391956D01*
X137315052Y-120378417D01*
X137303686Y-120292079D01*
X137299448Y-120276262D01*
X137245513Y-120146052D01*
X137237322Y-120131865D01*
X137206821Y-120092115D01*
X137181220Y-120025895D01*
X137195485Y-119956346D01*
X137206820Y-119938708D01*
X137237759Y-119898387D01*
X137237761Y-119898383D01*
X137242788Y-119891832D01*
X137246056Y-119883944D01*
X137294992Y-119765802D01*
X137303095Y-119746240D01*
X137304191Y-119737921D01*
X137317962Y-119633312D01*
X137317962Y-119633311D01*
X137318500Y-119629225D01*
X137318499Y-119130776D01*
X137317871Y-119126000D01*
X137304172Y-119021945D01*
X137303095Y-119013760D01*
X137283529Y-118966522D01*
X137245948Y-118875796D01*
X137245947Y-118875794D01*
X137242788Y-118868168D01*
X137207135Y-118821704D01*
X137181535Y-118755484D01*
X137195800Y-118685935D01*
X137207135Y-118668296D01*
X137226685Y-118642818D01*
X137242788Y-118621832D01*
X137245949Y-118614202D01*
X137288686Y-118511025D01*
X137303095Y-118476240D01*
X137310916Y-118416837D01*
X137317962Y-118363312D01*
X137317962Y-118363311D01*
X137318500Y-118359225D01*
X137318499Y-117860776D01*
X137303095Y-117743760D01*
X137299937Y-117736134D01*
X137245948Y-117605796D01*
X137245947Y-117605794D01*
X137242788Y-117598168D01*
X137237761Y-117591617D01*
X137237759Y-117591613D01*
X137206820Y-117551292D01*
X137181220Y-117485072D01*
X137195485Y-117415523D01*
X137206821Y-117397885D01*
X137237322Y-117358135D01*
X137245513Y-117343948D01*
X137299448Y-117213738D01*
X137303686Y-117197921D01*
X137308724Y-117159654D01*
X142285618Y-117159654D01*
X142292673Y-117169627D01*
X142323679Y-117195551D01*
X142330598Y-117200579D01*
X142555272Y-117341515D01*
X142562807Y-117345556D01*
X142804520Y-117454694D01*
X142812551Y-117457680D01*
X143066832Y-117533002D01*
X143075184Y-117534869D01*
X143337340Y-117574984D01*
X143345874Y-117575700D01*
X143611045Y-117579867D01*
X143619596Y-117579418D01*
X143882883Y-117547557D01*
X143891284Y-117545955D01*
X144147824Y-117478653D01*
X144155926Y-117475926D01*
X144400949Y-117374434D01*
X144408617Y-117370628D01*
X144637598Y-117236822D01*
X144644679Y-117232009D01*
X144724655Y-117169301D01*
X144733125Y-117157442D01*
X144726608Y-117145818D01*
X143522812Y-115942022D01*
X143508868Y-115934408D01*
X143507035Y-115934539D01*
X143500420Y-115938790D01*
X142292910Y-117146300D01*
X142285618Y-117159654D01*
X137308724Y-117159654D01*
X137315002Y-117111961D01*
X137312791Y-117097779D01*
X137299633Y-117094000D01*
X135697000Y-117094000D01*
X135628879Y-117073998D01*
X135582386Y-117020342D01*
X135571000Y-116968000D01*
X135571000Y-116712000D01*
X135591002Y-116643879D01*
X135644658Y-116597386D01*
X135697000Y-116586000D01*
X137299252Y-116586000D01*
X137313023Y-116581956D01*
X137315052Y-116568417D01*
X137303686Y-116482079D01*
X137299448Y-116466261D01*
X137262772Y-116377718D01*
X137255183Y-116307128D01*
X137286962Y-116243641D01*
X137348021Y-116207414D01*
X137379181Y-116203500D01*
X137721800Y-116203500D01*
X137789921Y-116223502D01*
X137809147Y-116239843D01*
X137809420Y-116239540D01*
X137814332Y-116243963D01*
X137818747Y-116248866D01*
X137827396Y-116255150D01*
X137886578Y-116298148D01*
X137973248Y-116361118D01*
X137979276Y-116363802D01*
X137979278Y-116363803D01*
X138141681Y-116436109D01*
X138147712Y-116438794D01*
X138241113Y-116458647D01*
X138328056Y-116477128D01*
X138328061Y-116477128D01*
X138334513Y-116478500D01*
X138525487Y-116478500D01*
X138531939Y-116477128D01*
X138531944Y-116477128D01*
X138618887Y-116458647D01*
X138712288Y-116438794D01*
X138718319Y-116436109D01*
X138880722Y-116363803D01*
X138880724Y-116363802D01*
X138886752Y-116361118D01*
X139041253Y-116248866D01*
X139120247Y-116161134D01*
X139164621Y-116111852D01*
X139164625Y-116111847D01*
X139169040Y-116106944D01*
X139229198Y-116002748D01*
X139261223Y-115947279D01*
X139261224Y-115947278D01*
X139264527Y-115941556D01*
X139323542Y-115759928D01*
X139335655Y-115644684D01*
X139342814Y-115576565D01*
X139343504Y-115570000D01*
X139341739Y-115553204D01*
X141497665Y-115553204D01*
X141512932Y-115817969D01*
X141514005Y-115826470D01*
X141565065Y-116086722D01*
X141567276Y-116094974D01*
X141653184Y-116345894D01*
X141656499Y-116353779D01*
X141775664Y-116590713D01*
X141780020Y-116598079D01*
X141909347Y-116786250D01*
X141919601Y-116794594D01*
X141933342Y-116787448D01*
X143137978Y-115582812D01*
X143144356Y-115571132D01*
X143874408Y-115571132D01*
X143874539Y-115572965D01*
X143878790Y-115579580D01*
X145085730Y-116786520D01*
X145097939Y-116793187D01*
X145109439Y-116784497D01*
X145206831Y-116651913D01*
X145211418Y-116644685D01*
X145337962Y-116411621D01*
X145341530Y-116403827D01*
X145435271Y-116155750D01*
X145437748Y-116147544D01*
X145496954Y-115889038D01*
X145498294Y-115880577D01*
X145522031Y-115614616D01*
X145522277Y-115609677D01*
X145522666Y-115572485D01*
X145522523Y-115567519D01*
X145504362Y-115301123D01*
X145503201Y-115292649D01*
X145449419Y-115032944D01*
X145447120Y-115024709D01*
X145358588Y-114774705D01*
X145355191Y-114766854D01*
X145233550Y-114531178D01*
X145229122Y-114523866D01*
X145110031Y-114354417D01*
X145099509Y-114346037D01*
X145086121Y-114353089D01*
X143882022Y-115557188D01*
X143874408Y-115571132D01*
X143144356Y-115571132D01*
X143145592Y-115568868D01*
X143145461Y-115567035D01*
X143141210Y-115560420D01*
X141933814Y-114353024D01*
X141921804Y-114346466D01*
X141910064Y-114355434D01*
X141801935Y-114505911D01*
X141797418Y-114513196D01*
X141673325Y-114747567D01*
X141669839Y-114755395D01*
X141578700Y-115004446D01*
X141576311Y-115012670D01*
X141519812Y-115271795D01*
X141518563Y-115280250D01*
X141497754Y-115544653D01*
X141497665Y-115553204D01*
X139341739Y-115553204D01*
X139336432Y-115502712D01*
X139324232Y-115386635D01*
X139324232Y-115386633D01*
X139323542Y-115380072D01*
X139264527Y-115198444D01*
X139169040Y-115033056D01*
X139156662Y-115019309D01*
X139125946Y-114955303D01*
X139134710Y-114884850D01*
X139156661Y-114850693D01*
X139169040Y-114836944D01*
X139264527Y-114671556D01*
X139323542Y-114489928D01*
X139325134Y-114474786D01*
X139342814Y-114306565D01*
X139343504Y-114300000D01*
X139336432Y-114232712D01*
X139324232Y-114116635D01*
X139324232Y-114116633D01*
X139323542Y-114110072D01*
X139282091Y-113982500D01*
X142286584Y-113982500D01*
X142292980Y-113993770D01*
X143497188Y-115197978D01*
X143511132Y-115205592D01*
X143512965Y-115205461D01*
X143519580Y-115201210D01*
X144726604Y-113994186D01*
X144733795Y-113981017D01*
X144726473Y-113970780D01*
X144679233Y-113932115D01*
X144672261Y-113927160D01*
X144446122Y-113788582D01*
X144438552Y-113784624D01*
X144195704Y-113678022D01*
X144187644Y-113675120D01*
X143932592Y-113602467D01*
X143924214Y-113600685D01*
X143661656Y-113563318D01*
X143653111Y-113562691D01*
X143387908Y-113561302D01*
X143379374Y-113561839D01*
X143116433Y-113596456D01*
X143108035Y-113598149D01*
X142852238Y-113668127D01*
X142844143Y-113670946D01*
X142600199Y-113774997D01*
X142592577Y-113778881D01*
X142365013Y-113915075D01*
X142357981Y-113919962D01*
X142295053Y-113970377D01*
X142286584Y-113982500D01*
X139282091Y-113982500D01*
X139264527Y-113928444D01*
X139256809Y-113915075D01*
X139203359Y-113822498D01*
X139169040Y-113763056D01*
X139123744Y-113712749D01*
X139045675Y-113626045D01*
X139045674Y-113626044D01*
X139041253Y-113621134D01*
X138886752Y-113508882D01*
X138880724Y-113506198D01*
X138880722Y-113506197D01*
X138718319Y-113433891D01*
X138718318Y-113433891D01*
X138712288Y-113431206D01*
X138599721Y-113407279D01*
X138531944Y-113392872D01*
X138531939Y-113392872D01*
X138525487Y-113391500D01*
X138334513Y-113391500D01*
X138328061Y-113392872D01*
X138328056Y-113392872D01*
X138260279Y-113407279D01*
X138147712Y-113431206D01*
X138141682Y-113433891D01*
X138141681Y-113433891D01*
X137979278Y-113506197D01*
X137979276Y-113506198D01*
X137973248Y-113508882D01*
X137967907Y-113512762D01*
X137967906Y-113512763D01*
X137876906Y-113578879D01*
X137818747Y-113621134D01*
X137814332Y-113626037D01*
X137809420Y-113630460D01*
X137808295Y-113629211D01*
X137754986Y-113662051D01*
X137721800Y-113666500D01*
X137379181Y-113666500D01*
X137311060Y-113646498D01*
X137264567Y-113592842D01*
X137254463Y-113522568D01*
X137262772Y-113492282D01*
X137299448Y-113403739D01*
X137303686Y-113387921D01*
X137315002Y-113301961D01*
X137312791Y-113287779D01*
X137299633Y-113284000D01*
X135697000Y-113284000D01*
X135628879Y-113263998D01*
X135582386Y-113210342D01*
X135571000Y-113158000D01*
X135571000Y-112902000D01*
X135591002Y-112833879D01*
X135644658Y-112787386D01*
X135697000Y-112776000D01*
X137299252Y-112776000D01*
X137313023Y-112771956D01*
X137315052Y-112758417D01*
X137303686Y-112672079D01*
X137299448Y-112656262D01*
X137245512Y-112526050D01*
X137237325Y-112511869D01*
X137151522Y-112400047D01*
X137139953Y-112388478D01*
X137028131Y-112302675D01*
X137013946Y-112294485D01*
X136959844Y-112272075D01*
X136904563Y-112227527D01*
X136882143Y-112160163D01*
X136899702Y-112091372D01*
X136918968Y-112066572D01*
X136930309Y-112055231D01*
X136945343Y-112042390D01*
X136955319Y-112035142D01*
X136961733Y-112030482D01*
X136989919Y-111996411D01*
X136997908Y-111987632D01*
X137200135Y-111785405D01*
X137262447Y-111751379D01*
X137289230Y-111748500D01*
X137738134Y-111748500D01*
X137800316Y-111741745D01*
X137936705Y-111690615D01*
X138053261Y-111603261D01*
X138140615Y-111486705D01*
X138191745Y-111350316D01*
X138198500Y-111288134D01*
X138198500Y-111249500D01*
X138218502Y-111181379D01*
X138272158Y-111134886D01*
X138324500Y-111123500D01*
X141513863Y-111123500D01*
X141581984Y-111143502D01*
X141628477Y-111197158D01*
X141633070Y-111208686D01*
X141652328Y-111264932D01*
X141654112Y-111270144D01*
X141668620Y-111298990D01*
X141758802Y-111478297D01*
X141777160Y-111514799D01*
X141779586Y-111518328D01*
X141779589Y-111518334D01*
X141920688Y-111723632D01*
X141932274Y-111740490D01*
X141935161Y-111743663D01*
X141935162Y-111743664D01*
X142092647Y-111916739D01*
X142116582Y-111943043D01*
X142119877Y-111945798D01*
X142119878Y-111945799D01*
X142202341Y-112014748D01*
X142326675Y-112118707D01*
X142330316Y-112120991D01*
X142555024Y-112261951D01*
X142555028Y-112261953D01*
X142558664Y-112264234D01*
X142641967Y-112301847D01*
X142804345Y-112375164D01*
X142804349Y-112375166D01*
X142808257Y-112376930D01*
X142812377Y-112378150D01*
X142812376Y-112378150D01*
X143066723Y-112453491D01*
X143066727Y-112453492D01*
X143070836Y-112454709D01*
X143075070Y-112455357D01*
X143075075Y-112455358D01*
X143337298Y-112495483D01*
X143337300Y-112495483D01*
X143341540Y-112496132D01*
X143480912Y-112498322D01*
X143611071Y-112500367D01*
X143611077Y-112500367D01*
X143615362Y-112500434D01*
X143887235Y-112467534D01*
X144152127Y-112398041D01*
X144156087Y-112396401D01*
X144156092Y-112396399D01*
X144278632Y-112345641D01*
X144405136Y-112293241D01*
X144591061Y-112184595D01*
X144637879Y-112157237D01*
X144637880Y-112157236D01*
X144641582Y-112155073D01*
X144857089Y-111986094D01*
X144864439Y-111978510D01*
X145003816Y-111834684D01*
X145047669Y-111789431D01*
X145050202Y-111785983D01*
X145050206Y-111785978D01*
X145207257Y-111572178D01*
X145209795Y-111568723D01*
X145229994Y-111531522D01*
X145338418Y-111331830D01*
X145338419Y-111331828D01*
X145340468Y-111328054D01*
X145417619Y-111123879D01*
X145435751Y-111075895D01*
X145435752Y-111075891D01*
X145437269Y-111071877D01*
X145469417Y-110931510D01*
X145497449Y-110809117D01*
X145497450Y-110809113D01*
X145498407Y-110804933D01*
X145499378Y-110794059D01*
X145522531Y-110534627D01*
X145522531Y-110534625D01*
X145522751Y-110532161D01*
X145522893Y-110518666D01*
X145523167Y-110492484D01*
X145523167Y-110492483D01*
X145523193Y-110490000D01*
X145523024Y-110487519D01*
X145504859Y-110221055D01*
X145504858Y-110221049D01*
X145504567Y-110216778D01*
X145449032Y-109948612D01*
X145357617Y-109690465D01*
X145275483Y-109531334D01*
X145233978Y-109450919D01*
X145233978Y-109450918D01*
X145232013Y-109447112D01*
X145222040Y-109432921D01*
X145091075Y-109246577D01*
X145074545Y-109223057D01*
X144978011Y-109119174D01*
X144891046Y-109025588D01*
X144891043Y-109025585D01*
X144888125Y-109022445D01*
X144884810Y-109019731D01*
X144884806Y-109019728D01*
X144679523Y-108851706D01*
X144676205Y-108848990D01*
X144442704Y-108705901D01*
X144438768Y-108704173D01*
X144195873Y-108597549D01*
X144195869Y-108597548D01*
X144191945Y-108595825D01*
X143928566Y-108520800D01*
X143924324Y-108520196D01*
X143924318Y-108520195D01*
X143723834Y-108491662D01*
X143657443Y-108482213D01*
X143513589Y-108481460D01*
X143387877Y-108480802D01*
X143387871Y-108480802D01*
X143383591Y-108480780D01*
X143379347Y-108481339D01*
X143379343Y-108481339D01*
X143260302Y-108497011D01*
X143112078Y-108516525D01*
X143107938Y-108517658D01*
X143107936Y-108517658D01*
X143078514Y-108525707D01*
X142847928Y-108588788D01*
X142831430Y-108595825D01*
X142599982Y-108694546D01*
X142599978Y-108694548D01*
X142596030Y-108696232D01*
X142477414Y-108767222D01*
X142364725Y-108834664D01*
X142364721Y-108834667D01*
X142361043Y-108836868D01*
X142147318Y-109008094D01*
X142089859Y-109068643D01*
X142010081Y-109152712D01*
X141958808Y-109206742D01*
X141799002Y-109429136D01*
X141796998Y-109432921D01*
X141690585Y-109633902D01*
X141670857Y-109671161D01*
X141669385Y-109675184D01*
X141669383Y-109675188D01*
X141633296Y-109773801D01*
X141591102Y-109830899D01*
X141524736Y-109856121D01*
X141514970Y-109856500D01*
X138324500Y-109856500D01*
X138256379Y-109836498D01*
X138209886Y-109782842D01*
X138198500Y-109730500D01*
X138198500Y-109691866D01*
X138191745Y-109629684D01*
X138140615Y-109493295D01*
X138053261Y-109376739D01*
X138037280Y-109364762D01*
X137978657Y-109320826D01*
X137936142Y-109263966D01*
X137931116Y-109193148D01*
X137965176Y-109130855D01*
X137978657Y-109119174D01*
X138046080Y-109068643D01*
X138046081Y-109068642D01*
X138053261Y-109063261D01*
X138140615Y-108946705D01*
X138191745Y-108810316D01*
X138198500Y-108748134D01*
X138198500Y-108709500D01*
X138218502Y-108641379D01*
X138272158Y-108594886D01*
X138324500Y-108583500D01*
X140891233Y-108583500D01*
X140902416Y-108584027D01*
X140909909Y-108585702D01*
X140917835Y-108585453D01*
X140917836Y-108585453D01*
X140977986Y-108583562D01*
X140981945Y-108583500D01*
X141009856Y-108583500D01*
X141013791Y-108583003D01*
X141013856Y-108582995D01*
X141025693Y-108582062D01*
X141057951Y-108581048D01*
X141061970Y-108580922D01*
X141069889Y-108580673D01*
X141089343Y-108575021D01*
X141108700Y-108571013D01*
X141120930Y-108569468D01*
X141120931Y-108569468D01*
X141128797Y-108568474D01*
X141136168Y-108565555D01*
X141136170Y-108565555D01*
X141169912Y-108552196D01*
X141181142Y-108548351D01*
X141215983Y-108538229D01*
X141215984Y-108538229D01*
X141223593Y-108536018D01*
X141230412Y-108531985D01*
X141230417Y-108531983D01*
X141241028Y-108525707D01*
X141258776Y-108517012D01*
X141277617Y-108509552D01*
X141313387Y-108483564D01*
X141323307Y-108477048D01*
X141354535Y-108458580D01*
X141354538Y-108458578D01*
X141361362Y-108454542D01*
X141375683Y-108440221D01*
X141390717Y-108427380D01*
X141400694Y-108420131D01*
X141407107Y-108415472D01*
X141435298Y-108381395D01*
X141443288Y-108372616D01*
X142547382Y-107268522D01*
X142609694Y-107234496D01*
X142680509Y-107239561D01*
X142688328Y-107242780D01*
X142804345Y-107295164D01*
X142804349Y-107295166D01*
X142808257Y-107296930D01*
X142857036Y-107311379D01*
X143066723Y-107373491D01*
X143066727Y-107373492D01*
X143070836Y-107374709D01*
X143075070Y-107375357D01*
X143075075Y-107375358D01*
X143337298Y-107415483D01*
X143337300Y-107415483D01*
X143341540Y-107416132D01*
X143480912Y-107418322D01*
X143611071Y-107420367D01*
X143611077Y-107420367D01*
X143615362Y-107420434D01*
X143887235Y-107387534D01*
X144152127Y-107318041D01*
X144156087Y-107316401D01*
X144156092Y-107316399D01*
X144333673Y-107242842D01*
X144405136Y-107213241D01*
X144569158Y-107117394D01*
X144637879Y-107077237D01*
X144637880Y-107077236D01*
X144641582Y-107075073D01*
X144857089Y-106906094D01*
X144883078Y-106879276D01*
X145033327Y-106724231D01*
X145047669Y-106709431D01*
X145050202Y-106705983D01*
X145050206Y-106705978D01*
X145207257Y-106492178D01*
X145209795Y-106488723D01*
X145211841Y-106484955D01*
X145338418Y-106251830D01*
X145338419Y-106251828D01*
X145340468Y-106248054D01*
X145416930Y-106045702D01*
X145435751Y-105995895D01*
X145435752Y-105995891D01*
X145437269Y-105991877D01*
X145472780Y-105836827D01*
X145497449Y-105729117D01*
X145497450Y-105729113D01*
X145498407Y-105724933D01*
X145500768Y-105698484D01*
X145522531Y-105454627D01*
X145522531Y-105454625D01*
X145522751Y-105452161D01*
X145523193Y-105410000D01*
X145523024Y-105407519D01*
X145504859Y-105141055D01*
X145504858Y-105141049D01*
X145504567Y-105136778D01*
X145500166Y-105115524D01*
X145462700Y-104934610D01*
X145449032Y-104868612D01*
X145357617Y-104610465D01*
X145232013Y-104367112D01*
X145228432Y-104362016D01*
X145085226Y-104158255D01*
X145074545Y-104143057D01*
X144968530Y-104028971D01*
X144891046Y-103945588D01*
X144891043Y-103945585D01*
X144888125Y-103942445D01*
X144884810Y-103939731D01*
X144884806Y-103939728D01*
X144685631Y-103776705D01*
X144676205Y-103768990D01*
X144464785Y-103639432D01*
X144446366Y-103628145D01*
X144446365Y-103628145D01*
X144442704Y-103625901D01*
X144438768Y-103624173D01*
X144195873Y-103517549D01*
X144195869Y-103517548D01*
X144191945Y-103515825D01*
X143928566Y-103440800D01*
X143924324Y-103440196D01*
X143924318Y-103440195D01*
X143723834Y-103411662D01*
X143657443Y-103402213D01*
X143513589Y-103401460D01*
X143387877Y-103400802D01*
X143387871Y-103400802D01*
X143383591Y-103400780D01*
X143379347Y-103401339D01*
X143379343Y-103401339D01*
X143260302Y-103417011D01*
X143112078Y-103436525D01*
X143107938Y-103437658D01*
X143107936Y-103437658D01*
X143036316Y-103457251D01*
X142847928Y-103508788D01*
X142843980Y-103510472D01*
X142599982Y-103614546D01*
X142599978Y-103614548D01*
X142596030Y-103616232D01*
X142536047Y-103652131D01*
X142364725Y-103754664D01*
X142364721Y-103754667D01*
X142361043Y-103756868D01*
X142147318Y-103928094D01*
X142035964Y-104045436D01*
X141969674Y-104115292D01*
X141958808Y-104126742D01*
X141799002Y-104349136D01*
X141670857Y-104591161D01*
X141669385Y-104595184D01*
X141669383Y-104595188D01*
X141589325Y-104813955D01*
X141576743Y-104848337D01*
X141518404Y-105115907D01*
X141518068Y-105120177D01*
X141497921Y-105376167D01*
X141496917Y-105388918D01*
X141512682Y-105662320D01*
X141513507Y-105666525D01*
X141513508Y-105666533D01*
X141534102Y-105771500D01*
X141565405Y-105931053D01*
X141566792Y-105935103D01*
X141566793Y-105935108D01*
X141614400Y-106074155D01*
X141654112Y-106190144D01*
X141656041Y-106193978D01*
X141656042Y-106193982D01*
X141673387Y-106228470D01*
X141686125Y-106298314D01*
X141659080Y-106363958D01*
X141649917Y-106374178D01*
X140744500Y-107279595D01*
X140682188Y-107313621D01*
X140655405Y-107316500D01*
X138324500Y-107316500D01*
X138256379Y-107296498D01*
X138209886Y-107242842D01*
X138198500Y-107190500D01*
X138198500Y-107151866D01*
X138191745Y-107089684D01*
X138140615Y-106953295D01*
X138053261Y-106836739D01*
X138022212Y-106813469D01*
X137978657Y-106780826D01*
X137936142Y-106723966D01*
X137931116Y-106653148D01*
X137965176Y-106590855D01*
X137978657Y-106579174D01*
X138046080Y-106528643D01*
X138046081Y-106528642D01*
X138053261Y-106523261D01*
X138140615Y-106406705D01*
X138191745Y-106270316D01*
X138198500Y-106208134D01*
X138198500Y-106169500D01*
X138218502Y-106101379D01*
X138272158Y-106054886D01*
X138324500Y-106043500D01*
X138351233Y-106043500D01*
X138362416Y-106044027D01*
X138369909Y-106045702D01*
X138377835Y-106045453D01*
X138377836Y-106045453D01*
X138437986Y-106043562D01*
X138441945Y-106043500D01*
X138469856Y-106043500D01*
X138473791Y-106043003D01*
X138473856Y-106042995D01*
X138485693Y-106042062D01*
X138517951Y-106041048D01*
X138521970Y-106040922D01*
X138529889Y-106040673D01*
X138549343Y-106035021D01*
X138568700Y-106031013D01*
X138580930Y-106029468D01*
X138580931Y-106029468D01*
X138588797Y-106028474D01*
X138596168Y-106025555D01*
X138596170Y-106025555D01*
X138629912Y-106012196D01*
X138641142Y-106008351D01*
X138675983Y-105998229D01*
X138675984Y-105998229D01*
X138683593Y-105996018D01*
X138690412Y-105991985D01*
X138690417Y-105991983D01*
X138701028Y-105985707D01*
X138718776Y-105977012D01*
X138737617Y-105969552D01*
X138773387Y-105943564D01*
X138783307Y-105937048D01*
X138814535Y-105918580D01*
X138814538Y-105918578D01*
X138821362Y-105914542D01*
X138835683Y-105900221D01*
X138850717Y-105887380D01*
X138860694Y-105880131D01*
X138867107Y-105875472D01*
X138895298Y-105841395D01*
X138903288Y-105832616D01*
X142547383Y-102188522D01*
X142609695Y-102154496D01*
X142680511Y-102159561D01*
X142688329Y-102162780D01*
X142804345Y-102215164D01*
X142804349Y-102215166D01*
X142808257Y-102216930D01*
X142812377Y-102218150D01*
X142812376Y-102218150D01*
X143066723Y-102293491D01*
X143066727Y-102293492D01*
X143070836Y-102294709D01*
X143075070Y-102295357D01*
X143075075Y-102295358D01*
X143337298Y-102335483D01*
X143337300Y-102335483D01*
X143341540Y-102336132D01*
X143480912Y-102338322D01*
X143611071Y-102340367D01*
X143611077Y-102340367D01*
X143615362Y-102340434D01*
X143887235Y-102307534D01*
X144152127Y-102238041D01*
X144156087Y-102236401D01*
X144156092Y-102236399D01*
X144294809Y-102178940D01*
X144405136Y-102133241D01*
X144560220Y-102042617D01*
X144637879Y-101997237D01*
X144637880Y-101997236D01*
X144641582Y-101995073D01*
X144857089Y-101826094D01*
X144865254Y-101817669D01*
X145044686Y-101632509D01*
X145047669Y-101629431D01*
X145050202Y-101625983D01*
X145050206Y-101625978D01*
X145207257Y-101412178D01*
X145209795Y-101408723D01*
X145211841Y-101404955D01*
X145338418Y-101171830D01*
X145338419Y-101171828D01*
X145340468Y-101168054D01*
X145394668Y-101024618D01*
X145435751Y-100915895D01*
X145435752Y-100915891D01*
X145437269Y-100911877D01*
X145489578Y-100683484D01*
X145497449Y-100649117D01*
X145497450Y-100649113D01*
X145498407Y-100644933D01*
X145500373Y-100622910D01*
X145522531Y-100374627D01*
X145522531Y-100374625D01*
X145522751Y-100372161D01*
X145523193Y-100330000D01*
X145520243Y-100286731D01*
X145504859Y-100061055D01*
X145504858Y-100061049D01*
X145504567Y-100056778D01*
X145500965Y-100039382D01*
X145465509Y-99868176D01*
X145449032Y-99788612D01*
X145357617Y-99530465D01*
X145245891Y-99314000D01*
X145233978Y-99290919D01*
X145233978Y-99290918D01*
X145232013Y-99287112D01*
X145222040Y-99272921D01*
X145129848Y-99141745D01*
X145074545Y-99063057D01*
X144937095Y-98915143D01*
X144891046Y-98865588D01*
X144891043Y-98865585D01*
X144888125Y-98862445D01*
X144884810Y-98859731D01*
X144884806Y-98859728D01*
X144679523Y-98691706D01*
X144676205Y-98688990D01*
X144458489Y-98555574D01*
X144446366Y-98548145D01*
X144446365Y-98548145D01*
X144442704Y-98545901D01*
X144438768Y-98544173D01*
X144195873Y-98437549D01*
X144195869Y-98437548D01*
X144191945Y-98435825D01*
X143928566Y-98360800D01*
X143924324Y-98360196D01*
X143924318Y-98360195D01*
X143710154Y-98329715D01*
X143657443Y-98322213D01*
X143513589Y-98321460D01*
X143387877Y-98320802D01*
X143387871Y-98320802D01*
X143383591Y-98320780D01*
X143379347Y-98321339D01*
X143379343Y-98321339D01*
X143260302Y-98337011D01*
X143112078Y-98356525D01*
X143107938Y-98357658D01*
X143107936Y-98357658D01*
X143035008Y-98377609D01*
X142847928Y-98428788D01*
X142843980Y-98430472D01*
X142599982Y-98534546D01*
X142599978Y-98534548D01*
X142596030Y-98536232D01*
X142495113Y-98596629D01*
X142364725Y-98674664D01*
X142364721Y-98674667D01*
X142361043Y-98676868D01*
X142147318Y-98848094D01*
X142083691Y-98915143D01*
X141994964Y-99008642D01*
X141958808Y-99046742D01*
X141799002Y-99269136D01*
X141670857Y-99511161D01*
X141669385Y-99515184D01*
X141669383Y-99515188D01*
X141588890Y-99735144D01*
X141576743Y-99768337D01*
X141518404Y-100035907D01*
X141518068Y-100040177D01*
X141498349Y-100290729D01*
X141496917Y-100308918D01*
X141512682Y-100582320D01*
X141513507Y-100586525D01*
X141513508Y-100586533D01*
X141518669Y-100612837D01*
X141565405Y-100851053D01*
X141566792Y-100855103D01*
X141566793Y-100855108D01*
X141652723Y-101106088D01*
X141654112Y-101110144D01*
X141656037Y-101113971D01*
X141656041Y-101113981D01*
X141673387Y-101148468D01*
X141686127Y-101218312D01*
X141659083Y-101283956D01*
X141649918Y-101294178D01*
X138385386Y-104558709D01*
X138323074Y-104592735D01*
X138252258Y-104587670D01*
X138195423Y-104545123D01*
X138178309Y-104513843D01*
X138143768Y-104421705D01*
X138143767Y-104421704D01*
X138140615Y-104413295D01*
X138053261Y-104296739D01*
X138022212Y-104273469D01*
X137978657Y-104240826D01*
X137936142Y-104183966D01*
X137931116Y-104113148D01*
X137965176Y-104050855D01*
X137978657Y-104039174D01*
X138046080Y-103988643D01*
X138046081Y-103988642D01*
X138053261Y-103983261D01*
X138140615Y-103866705D01*
X138191745Y-103730316D01*
X138198500Y-103668134D01*
X138198500Y-102071866D01*
X138198210Y-102069192D01*
X138214465Y-102000223D01*
X138234898Y-101973414D01*
X142912907Y-97295405D01*
X142975219Y-97261379D01*
X143002002Y-97258500D01*
X145058134Y-97258500D01*
X145120316Y-97251745D01*
X145256705Y-97200615D01*
X145373261Y-97113261D01*
X145460615Y-96996705D01*
X145511745Y-96860316D01*
X145518500Y-96798134D01*
X145518500Y-93701866D01*
X145511745Y-93639684D01*
X145460615Y-93503295D01*
X145398237Y-93420064D01*
X145373389Y-93353559D01*
X145388442Y-93284177D01*
X145438616Y-93233946D01*
X145499063Y-93218500D01*
X148540633Y-93218500D01*
X148560018Y-93220000D01*
G37*
%TD.AperFunction*%
%TA.AperFunction,Conductor*%
G36*
X91410018Y-93220000D02*
G01*
X91424852Y-93222310D01*
X91424855Y-93222310D01*
X91433724Y-93223691D01*
X91443659Y-93222392D01*
X91444746Y-93222250D01*
X91473431Y-93221793D01*
X91546741Y-93229013D01*
X91576212Y-93231916D01*
X91600432Y-93236733D01*
X91719546Y-93272866D01*
X91742355Y-93282315D01*
X91852124Y-93340987D01*
X91872655Y-93354705D01*
X91968876Y-93433671D01*
X91986329Y-93451124D01*
X92065295Y-93547345D01*
X92079013Y-93567876D01*
X92137685Y-93677645D01*
X92147134Y-93700454D01*
X92183267Y-93819568D01*
X92188084Y-93843789D01*
X92197541Y-93939809D01*
X92197091Y-93955868D01*
X92197800Y-93955877D01*
X92197690Y-93964853D01*
X92196309Y-93973724D01*
X92197473Y-93982626D01*
X92197473Y-93982628D01*
X92200436Y-94005283D01*
X92201500Y-94021621D01*
X92201500Y-99010633D01*
X92200000Y-99030018D01*
X92197690Y-99044851D01*
X92197690Y-99044855D01*
X92196309Y-99053724D01*
X92197130Y-99060000D01*
X92196957Y-99060000D01*
X92215106Y-99313753D01*
X92216062Y-99318147D01*
X92267950Y-99556672D01*
X92269183Y-99562341D01*
X92270755Y-99566556D01*
X92270756Y-99566559D01*
X92327933Y-99719857D01*
X92358087Y-99800703D01*
X92480009Y-100023986D01*
X92482706Y-100027589D01*
X92482710Y-100027595D01*
X92562274Y-100133879D01*
X92632466Y-100227645D01*
X92812355Y-100407534D01*
X92855862Y-100440103D01*
X93012405Y-100557290D01*
X93012411Y-100557294D01*
X93016014Y-100559991D01*
X93019971Y-100562152D01*
X93019973Y-100562153D01*
X93056906Y-100582320D01*
X93239297Y-100681913D01*
X93243509Y-100683484D01*
X93473441Y-100769244D01*
X93473444Y-100769245D01*
X93477659Y-100770817D01*
X93482050Y-100771772D01*
X93482056Y-100771774D01*
X93667513Y-100812117D01*
X93726247Y-100824894D01*
X93730735Y-100825215D01*
X93946668Y-100840659D01*
X93958577Y-100842083D01*
X93961251Y-100842533D01*
X93962645Y-100842768D01*
X93962647Y-100842768D01*
X93967448Y-100843576D01*
X93973991Y-100843656D01*
X93975140Y-100843670D01*
X93975143Y-100843670D01*
X93980000Y-100843729D01*
X94007624Y-100839773D01*
X94025486Y-100838500D01*
X115407618Y-100838500D01*
X115475739Y-100858502D01*
X115522232Y-100912158D01*
X115532336Y-100982432D01*
X115524899Y-101010400D01*
X115521304Y-101016939D01*
X115518674Y-101027183D01*
X115516266Y-101036561D01*
X115509862Y-101055265D01*
X115501818Y-101073854D01*
X115500579Y-101081677D01*
X115500576Y-101081687D01*
X115494900Y-101117523D01*
X115492494Y-101129143D01*
X115491606Y-101132603D01*
X115481499Y-101171969D01*
X115481499Y-101192223D01*
X115479948Y-101211933D01*
X115476779Y-101231942D01*
X115477525Y-101239834D01*
X115480940Y-101275960D01*
X115481499Y-101287818D01*
X115481499Y-101328300D01*
X115461497Y-101396421D01*
X115407841Y-101442914D01*
X115337567Y-101453018D01*
X115272987Y-101423524D01*
X115266404Y-101417395D01*
X115265724Y-101416715D01*
X115163649Y-101340214D01*
X115148054Y-101331676D01*
X115027606Y-101286522D01*
X115012351Y-101282895D01*
X114961486Y-101277369D01*
X114954672Y-101277000D01*
X114182115Y-101277000D01*
X114166876Y-101281475D01*
X114165671Y-101282865D01*
X114164000Y-101290548D01*
X114164000Y-102363000D01*
X114143998Y-102431121D01*
X114090342Y-102477614D01*
X114038000Y-102489000D01*
X112420116Y-102489000D01*
X112404877Y-102493475D01*
X112403672Y-102494865D01*
X112402001Y-102502548D01*
X112402001Y-102729669D01*
X112402371Y-102736490D01*
X112407895Y-102787352D01*
X112411520Y-102802600D01*
X112419939Y-102825057D01*
X112425122Y-102895864D01*
X112419942Y-102913510D01*
X112408255Y-102944684D01*
X112401500Y-103006866D01*
X112401500Y-104003134D01*
X112408255Y-104065316D01*
X112419672Y-104095771D01*
X112424855Y-104166577D01*
X112419674Y-104184224D01*
X112408255Y-104214684D01*
X112401500Y-104276866D01*
X112401500Y-105273134D01*
X112408255Y-105335316D01*
X112419672Y-105365771D01*
X112424855Y-105436577D01*
X112419674Y-105454224D01*
X112408255Y-105484684D01*
X112401500Y-105546866D01*
X112401500Y-106543134D01*
X112408255Y-106605316D01*
X112419672Y-106635771D01*
X112424855Y-106706577D01*
X112419674Y-106724224D01*
X112408255Y-106754684D01*
X112401500Y-106816866D01*
X112401500Y-107813134D01*
X112408255Y-107875316D01*
X112419672Y-107905771D01*
X112424855Y-107976577D01*
X112419674Y-107994224D01*
X112408255Y-108024684D01*
X112401500Y-108086866D01*
X112401500Y-109083134D01*
X112408255Y-109145316D01*
X112419672Y-109175771D01*
X112424855Y-109246577D01*
X112419674Y-109264224D01*
X112408255Y-109294684D01*
X112401500Y-109356866D01*
X112401500Y-110353134D01*
X112401869Y-110356531D01*
X112401870Y-110356541D01*
X112401928Y-110357079D01*
X112401905Y-110357205D01*
X112402053Y-110359928D01*
X112401411Y-110359963D01*
X112389398Y-110426961D01*
X112341076Y-110478975D01*
X112298938Y-110494206D01*
X112295111Y-110494326D01*
X112287500Y-110496537D01*
X112287495Y-110496538D01*
X112275652Y-110499979D01*
X112256293Y-110503988D01*
X112254983Y-110504154D01*
X112236203Y-110506526D01*
X112228837Y-110509442D01*
X112228831Y-110509444D01*
X112195098Y-110522800D01*
X112183868Y-110526645D01*
X112149017Y-110536770D01*
X112141407Y-110538981D01*
X112134584Y-110543016D01*
X112123966Y-110549295D01*
X112106213Y-110557992D01*
X112098568Y-110561019D01*
X112087383Y-110565448D01*
X112080968Y-110570109D01*
X112051612Y-110591437D01*
X112041695Y-110597951D01*
X112003638Y-110620458D01*
X111989317Y-110634779D01*
X111974284Y-110647619D01*
X111957893Y-110659528D01*
X111952840Y-110665636D01*
X111929708Y-110693598D01*
X111921718Y-110702378D01*
X111809501Y-110814595D01*
X111747189Y-110848621D01*
X111720406Y-110851500D01*
X111664513Y-110851500D01*
X111658061Y-110852872D01*
X111658056Y-110852872D01*
X111571113Y-110871353D01*
X111477712Y-110891206D01*
X111471682Y-110893891D01*
X111471681Y-110893891D01*
X111309278Y-110966197D01*
X111309276Y-110966198D01*
X111303248Y-110968882D01*
X111148747Y-111081134D01*
X111144326Y-111086044D01*
X111144325Y-111086045D01*
X111044279Y-111197158D01*
X111020960Y-111223056D01*
X110993774Y-111270144D01*
X110931464Y-111378068D01*
X110925473Y-111388444D01*
X110866458Y-111570072D01*
X110865768Y-111576633D01*
X110865768Y-111576635D01*
X110853568Y-111692712D01*
X110846496Y-111760000D01*
X110847186Y-111766565D01*
X110865401Y-111939867D01*
X110866458Y-111949928D01*
X110925473Y-112131556D01*
X110928776Y-112137278D01*
X110928777Y-112137279D01*
X110952022Y-112177540D01*
X111020960Y-112296944D01*
X111033338Y-112310691D01*
X111064054Y-112374697D01*
X111055290Y-112445150D01*
X111033339Y-112479307D01*
X111020960Y-112493056D01*
X110925473Y-112658444D01*
X110866458Y-112840072D01*
X110865768Y-112846633D01*
X110865768Y-112846635D01*
X110853568Y-112962712D01*
X110846496Y-113030000D01*
X110847186Y-113036565D01*
X110854346Y-113104684D01*
X110866458Y-113219928D01*
X110925473Y-113401556D01*
X111020960Y-113566944D01*
X111025378Y-113571851D01*
X111025379Y-113571852D01*
X111112065Y-113668127D01*
X111148747Y-113708866D01*
X111186121Y-113736020D01*
X111253019Y-113784624D01*
X111303248Y-113821118D01*
X111309276Y-113823802D01*
X111309278Y-113823803D01*
X111458670Y-113890316D01*
X111477712Y-113898794D01*
X111554308Y-113915075D01*
X111658056Y-113937128D01*
X111658061Y-113937128D01*
X111664513Y-113938500D01*
X111855487Y-113938500D01*
X111861939Y-113937128D01*
X111861944Y-113937128D01*
X111965692Y-113915075D01*
X112042288Y-113898794D01*
X112061330Y-113890316D01*
X112210722Y-113823803D01*
X112210724Y-113823802D01*
X112216752Y-113821118D01*
X112217004Y-113821685D01*
X112281490Y-113806037D01*
X112348583Y-113829255D01*
X112392472Y-113885060D01*
X112401500Y-113931895D01*
X112401500Y-114163134D01*
X112408030Y-114223242D01*
X112395502Y-114293123D01*
X112347182Y-114345139D01*
X112341322Y-114348135D01*
X112338405Y-114348982D01*
X112331583Y-114353016D01*
X112331577Y-114353019D01*
X112320966Y-114359294D01*
X112303216Y-114367990D01*
X112291754Y-114372528D01*
X112291749Y-114372531D01*
X112284381Y-114375448D01*
X112277966Y-114380109D01*
X112248623Y-114401427D01*
X112238705Y-114407943D01*
X112230890Y-114412565D01*
X112200635Y-114430458D01*
X112186311Y-114444782D01*
X112171279Y-114457621D01*
X112154891Y-114469528D01*
X112132821Y-114496206D01*
X112126710Y-114503593D01*
X112118720Y-114512373D01*
X111997966Y-114633127D01*
X111935654Y-114667153D01*
X111882676Y-114667279D01*
X111869601Y-114664500D01*
X111861943Y-114662872D01*
X111861941Y-114662872D01*
X111855487Y-114661500D01*
X111664513Y-114661500D01*
X111658061Y-114662872D01*
X111658056Y-114662872D01*
X111590279Y-114677279D01*
X111477712Y-114701206D01*
X111471682Y-114703891D01*
X111471681Y-114703891D01*
X111309278Y-114776197D01*
X111309276Y-114776198D01*
X111303248Y-114778882D01*
X111148747Y-114891134D01*
X111144326Y-114896044D01*
X111144325Y-114896045D01*
X111028476Y-115024709D01*
X111020960Y-115033056D01*
X110925473Y-115198444D01*
X110866458Y-115380072D01*
X110865768Y-115386633D01*
X110865768Y-115386635D01*
X110853568Y-115502712D01*
X110846496Y-115570000D01*
X110847186Y-115576565D01*
X110854346Y-115644684D01*
X110866458Y-115759928D01*
X110925473Y-115941556D01*
X110928776Y-115947278D01*
X110928777Y-115947279D01*
X110960802Y-116002748D01*
X111020960Y-116106944D01*
X111033338Y-116120691D01*
X111064054Y-116184697D01*
X111055290Y-116255150D01*
X111033339Y-116289307D01*
X111020960Y-116303056D01*
X110925473Y-116468444D01*
X110866458Y-116650072D01*
X110865768Y-116656633D01*
X110865768Y-116656635D01*
X110852145Y-116786250D01*
X110846496Y-116840000D01*
X110847186Y-116846565D01*
X110854346Y-116914684D01*
X110866458Y-117029928D01*
X110925473Y-117211556D01*
X110928776Y-117217278D01*
X110928777Y-117217279D01*
X110937422Y-117232253D01*
X111020960Y-117376944D01*
X111025378Y-117381851D01*
X111025379Y-117381852D01*
X111076801Y-117438962D01*
X111148747Y-117518866D01*
X111303248Y-117631118D01*
X111309276Y-117633802D01*
X111309278Y-117633803D01*
X111471679Y-117706108D01*
X111477712Y-117708794D01*
X111551438Y-117724465D01*
X111658056Y-117747128D01*
X111658061Y-117747128D01*
X111664513Y-117748500D01*
X111855487Y-117748500D01*
X111861939Y-117747128D01*
X111861944Y-117747128D01*
X111968562Y-117724465D01*
X112042288Y-117708794D01*
X112048321Y-117706108D01*
X112210722Y-117633803D01*
X112210724Y-117633802D01*
X112216752Y-117631118D01*
X112217004Y-117631685D01*
X112281490Y-117616037D01*
X112348583Y-117639255D01*
X112392472Y-117695060D01*
X112401500Y-117741895D01*
X112401500Y-117973134D01*
X112408255Y-118035316D01*
X112419672Y-118065771D01*
X112424855Y-118136577D01*
X112419674Y-118154224D01*
X112408255Y-118184684D01*
X112401500Y-118246866D01*
X112401500Y-119243134D01*
X112408255Y-119305316D01*
X112459385Y-119441705D01*
X112546739Y-119558261D01*
X112663295Y-119645615D01*
X112799684Y-119696745D01*
X112861866Y-119703500D01*
X114958134Y-119703500D01*
X115020316Y-119696745D01*
X115156705Y-119645615D01*
X115273261Y-119558261D01*
X115360615Y-119441705D01*
X115411745Y-119305316D01*
X115418500Y-119243134D01*
X115418500Y-118949596D01*
X115438502Y-118881475D01*
X115455405Y-118860501D01*
X115627248Y-118688658D01*
X115635538Y-118681114D01*
X115642019Y-118677001D01*
X115650194Y-118668296D01*
X115688659Y-118627334D01*
X115691414Y-118624492D01*
X115711135Y-118604771D01*
X115713613Y-118601576D01*
X115721319Y-118592554D01*
X115746159Y-118566102D01*
X115751587Y-118560322D01*
X115761347Y-118542569D01*
X115772200Y-118526046D01*
X115779754Y-118516307D01*
X115784614Y-118510042D01*
X115802177Y-118469458D01*
X115807384Y-118458828D01*
X115828696Y-118420061D01*
X115830667Y-118412384D01*
X115830669Y-118412379D01*
X115833733Y-118400443D01*
X115840139Y-118381731D01*
X115845034Y-118370420D01*
X115848182Y-118363146D01*
X115849422Y-118355318D01*
X115849424Y-118355311D01*
X115855100Y-118319477D01*
X115857506Y-118307857D01*
X115866529Y-118272712D01*
X115866529Y-118272711D01*
X115868501Y-118265031D01*
X115868501Y-118244777D01*
X115870052Y-118225066D01*
X115871981Y-118212887D01*
X115873221Y-118205058D01*
X115869060Y-118161039D01*
X115868501Y-118149182D01*
X115868501Y-114660096D01*
X115888503Y-114591975D01*
X115942159Y-114545482D01*
X116008108Y-114534833D01*
X116038467Y-114538131D01*
X116038471Y-114538131D01*
X116041866Y-114538500D01*
X116080500Y-114538500D01*
X116148621Y-114558502D01*
X116195114Y-114612158D01*
X116206500Y-114664500D01*
X116206500Y-120436235D01*
X116205973Y-120447418D01*
X116204298Y-120454911D01*
X116204547Y-120462837D01*
X116204547Y-120462838D01*
X116206438Y-120522988D01*
X116206500Y-120526947D01*
X116206500Y-120554858D01*
X116206997Y-120558792D01*
X116206997Y-120558793D01*
X116207005Y-120558858D01*
X116207938Y-120570695D01*
X116209327Y-120614891D01*
X116214978Y-120634341D01*
X116218987Y-120653702D01*
X116221526Y-120673799D01*
X116224445Y-120681170D01*
X116224445Y-120681172D01*
X116237804Y-120714914D01*
X116241649Y-120726144D01*
X116253982Y-120768595D01*
X116258015Y-120775414D01*
X116258017Y-120775419D01*
X116264293Y-120786030D01*
X116272988Y-120803778D01*
X116280448Y-120822619D01*
X116285110Y-120829035D01*
X116285110Y-120829036D01*
X116306436Y-120858389D01*
X116312952Y-120868309D01*
X116331236Y-120899225D01*
X116335458Y-120906364D01*
X116349779Y-120920685D01*
X116362619Y-120935718D01*
X116374528Y-120952109D01*
X116380634Y-120957160D01*
X116408605Y-120980300D01*
X116417384Y-120988290D01*
X116476342Y-121047248D01*
X116483886Y-121055538D01*
X116487999Y-121062019D01*
X116493776Y-121067444D01*
X116537666Y-121108659D01*
X116540508Y-121111414D01*
X116560229Y-121131135D01*
X116563424Y-121133613D01*
X116572446Y-121141319D01*
X116604678Y-121171587D01*
X116611627Y-121175407D01*
X116622431Y-121181347D01*
X116638955Y-121192200D01*
X116654958Y-121204614D01*
X116695542Y-121222177D01*
X116706172Y-121227384D01*
X116744939Y-121248696D01*
X116752616Y-121250667D01*
X116752621Y-121250669D01*
X116764557Y-121253733D01*
X116783265Y-121260138D01*
X116801854Y-121268182D01*
X116809679Y-121269421D01*
X116809681Y-121269422D01*
X116845518Y-121275098D01*
X116857139Y-121277505D01*
X116888958Y-121285674D01*
X116899969Y-121288501D01*
X116920230Y-121288501D01*
X116939939Y-121290052D01*
X116959942Y-121293220D01*
X116967834Y-121292474D01*
X116973061Y-121291980D01*
X117003953Y-121289060D01*
X117015810Y-121288501D01*
X123741230Y-121288501D01*
X123752413Y-121289028D01*
X123759906Y-121290703D01*
X123767832Y-121290454D01*
X123767833Y-121290454D01*
X123827983Y-121288563D01*
X123831942Y-121288501D01*
X123859853Y-121288501D01*
X123863788Y-121288004D01*
X123863853Y-121287996D01*
X123875690Y-121287063D01*
X123907948Y-121286049D01*
X123911967Y-121285923D01*
X123919886Y-121285674D01*
X123939340Y-121280022D01*
X123958697Y-121276014D01*
X123970927Y-121274469D01*
X123970928Y-121274469D01*
X123978794Y-121273475D01*
X123986165Y-121270556D01*
X123986167Y-121270556D01*
X124019909Y-121257197D01*
X124031139Y-121253352D01*
X124065980Y-121243230D01*
X124065981Y-121243230D01*
X124073590Y-121241019D01*
X124080409Y-121236986D01*
X124080414Y-121236984D01*
X124091025Y-121230708D01*
X124108773Y-121222013D01*
X124127614Y-121214553D01*
X124147984Y-121199754D01*
X124163384Y-121188565D01*
X124173304Y-121182049D01*
X124204532Y-121163581D01*
X124204535Y-121163579D01*
X124211359Y-121159543D01*
X124225680Y-121145222D01*
X124240714Y-121132381D01*
X124242429Y-121131135D01*
X124257104Y-121120473D01*
X124260674Y-121116158D01*
X124323102Y-121084576D01*
X124393724Y-121091865D01*
X124449194Y-121136178D01*
X124472001Y-121208478D01*
X124472001Y-121624669D01*
X124472371Y-121631490D01*
X124477895Y-121682352D01*
X124481521Y-121697604D01*
X124526676Y-121818054D01*
X124535214Y-121833649D01*
X124611715Y-121935724D01*
X124624276Y-121948285D01*
X124726351Y-122024786D01*
X124741946Y-122033324D01*
X124862394Y-122078478D01*
X124877649Y-122082105D01*
X124928514Y-122087631D01*
X124935328Y-122088000D01*
X125457885Y-122088000D01*
X125473124Y-122083525D01*
X125474329Y-122082135D01*
X125476000Y-122074452D01*
X125476000Y-122069884D01*
X125984000Y-122069884D01*
X125988475Y-122085123D01*
X125989865Y-122086328D01*
X125997548Y-122087999D01*
X126524669Y-122087999D01*
X126531490Y-122087629D01*
X126582352Y-122082105D01*
X126597604Y-122078479D01*
X126718054Y-122033324D01*
X126733649Y-122024786D01*
X126835724Y-121948285D01*
X126848285Y-121935724D01*
X126924786Y-121833649D01*
X126933324Y-121818054D01*
X126978478Y-121697606D01*
X126982105Y-121682351D01*
X126987631Y-121631486D01*
X126988000Y-121624672D01*
X126988000Y-121102115D01*
X126983525Y-121086876D01*
X126982135Y-121085671D01*
X126974452Y-121084000D01*
X126002115Y-121084000D01*
X125986876Y-121088475D01*
X125985671Y-121089865D01*
X125984000Y-121097548D01*
X125984000Y-122069884D01*
X125476000Y-122069884D01*
X125476000Y-120702000D01*
X125496002Y-120633879D01*
X125549658Y-120587386D01*
X125602000Y-120576000D01*
X126969884Y-120576000D01*
X126985123Y-120571525D01*
X126986328Y-120570135D01*
X126990878Y-120549217D01*
X126993382Y-120549762D01*
X127008001Y-120499972D01*
X127061657Y-120453479D01*
X127131931Y-120443375D01*
X127196511Y-120472869D01*
X127203094Y-120478998D01*
X127766343Y-121042247D01*
X127773887Y-121050537D01*
X127778000Y-121057018D01*
X127783777Y-121062443D01*
X127827667Y-121103658D01*
X127830509Y-121106413D01*
X127850231Y-121126135D01*
X127853355Y-121128558D01*
X127853359Y-121128562D01*
X127853424Y-121128612D01*
X127862445Y-121136317D01*
X127894679Y-121166586D01*
X127901627Y-121170405D01*
X127901629Y-121170407D01*
X127912432Y-121176346D01*
X127928959Y-121187202D01*
X127938698Y-121194757D01*
X127938700Y-121194758D01*
X127944960Y-121199614D01*
X127985540Y-121217174D01*
X127996188Y-121222391D01*
X128022733Y-121236984D01*
X128034940Y-121243695D01*
X128042616Y-121245666D01*
X128042619Y-121245667D01*
X128054562Y-121248733D01*
X128073266Y-121255137D01*
X128078027Y-121257197D01*
X128091855Y-121263181D01*
X128099678Y-121264420D01*
X128099688Y-121264423D01*
X128135524Y-121270099D01*
X128147144Y-121272505D01*
X128176427Y-121280023D01*
X128189970Y-121283500D01*
X128210224Y-121283500D01*
X128229934Y-121285051D01*
X128249943Y-121288220D01*
X128257835Y-121287474D01*
X128269263Y-121286394D01*
X128293962Y-121284059D01*
X128305819Y-121283500D01*
X129506001Y-121283500D01*
X129574122Y-121303502D01*
X129582704Y-121309536D01*
X129678168Y-121382788D01*
X129685794Y-121385947D01*
X129685796Y-121385948D01*
X129769482Y-121420612D01*
X129823760Y-121443095D01*
X129831944Y-121444172D01*
X129831946Y-121444173D01*
X129936688Y-121457962D01*
X129940775Y-121458500D01*
X130735405Y-121458500D01*
X130803526Y-121478502D01*
X130824500Y-121495405D01*
X131795500Y-122466405D01*
X131829526Y-122528717D01*
X131824461Y-122599532D01*
X131781914Y-122656368D01*
X131715394Y-122681179D01*
X131706405Y-122681500D01*
X88949367Y-122681500D01*
X88929982Y-122680000D01*
X88915148Y-122677690D01*
X88915145Y-122677690D01*
X88906276Y-122676309D01*
X88896341Y-122677608D01*
X88895254Y-122677750D01*
X88866569Y-122678207D01*
X88793259Y-122670987D01*
X88763788Y-122668084D01*
X88739568Y-122663267D01*
X88620454Y-122627134D01*
X88597645Y-122617685D01*
X88487876Y-122559013D01*
X88467345Y-122545295D01*
X88371124Y-122466329D01*
X88353671Y-122448876D01*
X88274705Y-122352655D01*
X88260987Y-122332124D01*
X88202315Y-122222355D01*
X88192866Y-122199546D01*
X88156733Y-122080432D01*
X88151916Y-122056212D01*
X88142711Y-121962755D01*
X88142607Y-121939151D01*
X88142768Y-121937354D01*
X88143576Y-121932552D01*
X88143729Y-121920000D01*
X88139773Y-121892376D01*
X88138500Y-121874514D01*
X88138500Y-119512703D01*
X89330743Y-119512703D01*
X89331302Y-119516947D01*
X89331302Y-119516951D01*
X89341304Y-119592921D01*
X89368268Y-119797734D01*
X89369401Y-119801874D01*
X89369401Y-119801876D01*
X89383799Y-119854506D01*
X89444129Y-120075036D01*
X89445813Y-120078984D01*
X89535180Y-120288500D01*
X89556923Y-120339476D01*
X89596078Y-120404899D01*
X89698480Y-120576000D01*
X89704561Y-120586161D01*
X89884313Y-120810528D01*
X89945202Y-120868309D01*
X90066374Y-120983297D01*
X90092851Y-121008423D01*
X90326317Y-121176186D01*
X90330112Y-121178195D01*
X90330113Y-121178196D01*
X90356562Y-121192200D01*
X90580392Y-121310712D01*
X90850373Y-121409511D01*
X91131264Y-121470755D01*
X91159841Y-121473004D01*
X91354282Y-121488307D01*
X91354291Y-121488307D01*
X91356739Y-121488500D01*
X91512271Y-121488500D01*
X91514407Y-121488354D01*
X91514418Y-121488354D01*
X91722548Y-121474165D01*
X91722554Y-121474164D01*
X91726825Y-121473873D01*
X91731020Y-121473004D01*
X91731022Y-121473004D01*
X91876674Y-121442841D01*
X92008342Y-121415574D01*
X92279343Y-121319607D01*
X92419755Y-121247135D01*
X92531005Y-121189715D01*
X92531006Y-121189715D01*
X92534812Y-121187750D01*
X92538313Y-121185289D01*
X92538317Y-121185287D01*
X92658130Y-121101081D01*
X92770023Y-121022441D01*
X92894937Y-120906364D01*
X92977479Y-120829661D01*
X92977481Y-120829658D01*
X92980622Y-120826740D01*
X93010964Y-120789669D01*
X98737001Y-120789669D01*
X98737371Y-120796490D01*
X98742895Y-120847352D01*
X98746521Y-120862604D01*
X98791676Y-120983054D01*
X98800214Y-120998649D01*
X98876715Y-121100724D01*
X98889276Y-121113285D01*
X98991351Y-121189786D01*
X99006946Y-121198324D01*
X99127394Y-121243478D01*
X99142649Y-121247105D01*
X99193514Y-121252631D01*
X99200328Y-121253000D01*
X99422885Y-121253000D01*
X99438124Y-121248525D01*
X99439329Y-121247135D01*
X99441000Y-121239452D01*
X99441000Y-121234884D01*
X99949000Y-121234884D01*
X99953475Y-121250123D01*
X99954865Y-121251328D01*
X99962548Y-121252999D01*
X100189669Y-121252999D01*
X100196490Y-121252629D01*
X100247352Y-121247105D01*
X100262600Y-121243480D01*
X100285057Y-121235061D01*
X100355864Y-121229878D01*
X100373510Y-121235058D01*
X100404684Y-121246745D01*
X100466866Y-121253500D01*
X101463134Y-121253500D01*
X101525316Y-121246745D01*
X101555771Y-121235328D01*
X101626577Y-121230145D01*
X101644224Y-121235326D01*
X101674684Y-121246745D01*
X101736866Y-121253500D01*
X102733134Y-121253500D01*
X102795316Y-121246745D01*
X102825771Y-121235328D01*
X102896577Y-121230145D01*
X102914224Y-121235326D01*
X102944684Y-121246745D01*
X103006866Y-121253500D01*
X104003134Y-121253500D01*
X104065316Y-121246745D01*
X104095771Y-121235328D01*
X104166577Y-121230145D01*
X104184224Y-121235326D01*
X104214684Y-121246745D01*
X104276866Y-121253500D01*
X105273134Y-121253500D01*
X105335316Y-121246745D01*
X105365771Y-121235328D01*
X105436577Y-121230145D01*
X105454224Y-121235326D01*
X105484684Y-121246745D01*
X105546866Y-121253500D01*
X106543134Y-121253500D01*
X106605316Y-121246745D01*
X106635771Y-121235328D01*
X106706577Y-121230145D01*
X106724224Y-121235326D01*
X106754684Y-121246745D01*
X106816866Y-121253500D01*
X107813134Y-121253500D01*
X107875316Y-121246745D01*
X107905771Y-121235328D01*
X107976577Y-121230145D01*
X107994224Y-121235326D01*
X108024684Y-121246745D01*
X108086866Y-121253500D01*
X109083134Y-121253500D01*
X109145316Y-121246745D01*
X109175771Y-121235328D01*
X109246577Y-121230145D01*
X109264224Y-121235326D01*
X109294684Y-121246745D01*
X109356866Y-121253500D01*
X110353134Y-121253500D01*
X110415316Y-121246745D01*
X110445771Y-121235328D01*
X110516577Y-121230145D01*
X110534224Y-121235326D01*
X110564684Y-121246745D01*
X110626866Y-121253500D01*
X111623134Y-121253500D01*
X111685316Y-121246745D01*
X111821705Y-121195615D01*
X111938261Y-121108261D01*
X112025615Y-120991705D01*
X112076745Y-120855316D01*
X112083500Y-120793134D01*
X112083500Y-118696866D01*
X112076745Y-118634684D01*
X112025615Y-118498295D01*
X111938261Y-118381739D01*
X111821705Y-118294385D01*
X111685316Y-118243255D01*
X111623134Y-118236500D01*
X110626866Y-118236500D01*
X110564684Y-118243255D01*
X110534229Y-118254672D01*
X110463423Y-118259855D01*
X110445776Y-118254674D01*
X110415316Y-118243255D01*
X110353134Y-118236500D01*
X109356866Y-118236500D01*
X109294684Y-118243255D01*
X109264229Y-118254672D01*
X109193423Y-118259855D01*
X109175776Y-118254674D01*
X109145316Y-118243255D01*
X109083134Y-118236500D01*
X108086866Y-118236500D01*
X108024684Y-118243255D01*
X107994229Y-118254672D01*
X107923423Y-118259855D01*
X107905776Y-118254674D01*
X107875316Y-118243255D01*
X107813134Y-118236500D01*
X106816866Y-118236500D01*
X106754684Y-118243255D01*
X106724229Y-118254672D01*
X106653423Y-118259855D01*
X106635776Y-118254674D01*
X106605316Y-118243255D01*
X106543134Y-118236500D01*
X105546866Y-118236500D01*
X105484684Y-118243255D01*
X105454229Y-118254672D01*
X105383423Y-118259855D01*
X105365776Y-118254674D01*
X105335316Y-118243255D01*
X105273134Y-118236500D01*
X104276866Y-118236500D01*
X104214684Y-118243255D01*
X104184229Y-118254672D01*
X104113423Y-118259855D01*
X104095776Y-118254674D01*
X104065316Y-118243255D01*
X104003134Y-118236500D01*
X103006866Y-118236500D01*
X102944684Y-118243255D01*
X102914229Y-118254672D01*
X102843423Y-118259855D01*
X102825776Y-118254674D01*
X102795316Y-118243255D01*
X102733134Y-118236500D01*
X101736866Y-118236500D01*
X101674684Y-118243255D01*
X101644229Y-118254672D01*
X101573423Y-118259855D01*
X101555776Y-118254674D01*
X101525316Y-118243255D01*
X101463134Y-118236500D01*
X100466866Y-118236500D01*
X100404684Y-118243255D01*
X100373517Y-118254939D01*
X100302712Y-118260122D01*
X100285057Y-118254939D01*
X100262602Y-118246521D01*
X100247351Y-118242895D01*
X100196486Y-118237369D01*
X100189672Y-118237000D01*
X99967115Y-118237000D01*
X99951876Y-118241475D01*
X99950671Y-118242865D01*
X99949000Y-118250548D01*
X99949000Y-121234884D01*
X99441000Y-121234884D01*
X99441000Y-120017115D01*
X99436525Y-120001876D01*
X99435135Y-120000671D01*
X99427452Y-119999000D01*
X98755116Y-119999000D01*
X98739877Y-120003475D01*
X98738672Y-120004865D01*
X98737001Y-120012548D01*
X98737001Y-120789669D01*
X93010964Y-120789669D01*
X93162713Y-120604268D01*
X93312927Y-120359142D01*
X93401472Y-120157432D01*
X93426757Y-120099830D01*
X93428483Y-120095898D01*
X93441689Y-120049540D01*
X93479383Y-119917212D01*
X93507244Y-119819406D01*
X93547751Y-119534784D01*
X93547845Y-119516951D01*
X93549235Y-119251583D01*
X93549235Y-119251576D01*
X93549257Y-119247297D01*
X93548088Y-119238413D01*
X93530923Y-119108039D01*
X93511732Y-118962266D01*
X93505345Y-118938917D01*
X93453331Y-118748788D01*
X93435871Y-118684964D01*
X93411269Y-118627285D01*
X93324763Y-118424476D01*
X93324761Y-118424472D01*
X93323077Y-118420524D01*
X93223817Y-118254672D01*
X93177643Y-118177521D01*
X93177640Y-118177517D01*
X93175439Y-118173839D01*
X92995687Y-117949472D01*
X92867052Y-117827402D01*
X92790258Y-117754527D01*
X92790255Y-117754525D01*
X92787149Y-117751577D01*
X92564542Y-117591617D01*
X92557172Y-117586321D01*
X92557171Y-117586320D01*
X92553683Y-117583814D01*
X92546229Y-117579867D01*
X92492260Y-117551292D01*
X92299608Y-117449288D01*
X92159143Y-117397885D01*
X92033658Y-117351964D01*
X92033656Y-117351963D01*
X92029627Y-117350489D01*
X91748736Y-117289245D01*
X91717685Y-117286801D01*
X91525718Y-117271693D01*
X91525709Y-117271693D01*
X91523261Y-117271500D01*
X91367729Y-117271500D01*
X91365593Y-117271646D01*
X91365582Y-117271646D01*
X91157452Y-117285835D01*
X91157446Y-117285836D01*
X91153175Y-117286127D01*
X91148980Y-117286996D01*
X91148978Y-117286996D01*
X91078941Y-117301500D01*
X90871658Y-117344426D01*
X90600657Y-117440393D01*
X90596848Y-117442359D01*
X90417613Y-117534869D01*
X90345188Y-117572250D01*
X90341687Y-117574711D01*
X90341683Y-117574713D01*
X90259464Y-117632498D01*
X90109977Y-117737559D01*
X90094892Y-117751577D01*
X89909677Y-117923690D01*
X89899378Y-117933260D01*
X89717287Y-118155732D01*
X89567073Y-118400858D01*
X89565347Y-118404791D01*
X89565346Y-118404792D01*
X89467657Y-118627334D01*
X89451517Y-118664102D01*
X89450342Y-118668229D01*
X89450341Y-118668230D01*
X89426914Y-118750472D01*
X89372756Y-118940594D01*
X89347505Y-119118019D01*
X89337547Y-119187993D01*
X89332249Y-119225216D01*
X89332227Y-119229505D01*
X89332226Y-119229512D01*
X89330765Y-119508417D01*
X89330743Y-119512703D01*
X88138500Y-119512703D01*
X88138500Y-113297966D01*
X88838257Y-113297966D01*
X88868565Y-113432446D01*
X88871645Y-113442275D01*
X88951770Y-113639603D01*
X88956413Y-113648794D01*
X89067694Y-113830388D01*
X89073777Y-113838699D01*
X89213213Y-113999667D01*
X89220580Y-114006883D01*
X89384434Y-114142916D01*
X89392881Y-114148831D01*
X89576756Y-114256279D01*
X89586042Y-114260729D01*
X89785001Y-114336703D01*
X89794899Y-114339579D01*
X89898250Y-114360606D01*
X89912299Y-114359410D01*
X89916000Y-114349065D01*
X89916000Y-114348517D01*
X90424000Y-114348517D01*
X90428064Y-114362359D01*
X90441478Y-114364393D01*
X90448184Y-114363534D01*
X90458262Y-114361392D01*
X90662255Y-114300191D01*
X90671842Y-114296433D01*
X90863095Y-114202739D01*
X90871945Y-114197464D01*
X91045328Y-114073792D01*
X91053200Y-114067139D01*
X91204052Y-113916812D01*
X91210730Y-113908965D01*
X91335003Y-113736020D01*
X91340313Y-113727183D01*
X91434670Y-113536267D01*
X91438469Y-113526672D01*
X91500377Y-113322910D01*
X91502555Y-113312837D01*
X91503986Y-113301962D01*
X91501775Y-113287778D01*
X91488617Y-113284000D01*
X90442115Y-113284000D01*
X90426876Y-113288475D01*
X90425671Y-113289865D01*
X90424000Y-113297548D01*
X90424000Y-114348517D01*
X89916000Y-114348517D01*
X89916000Y-113302115D01*
X89911525Y-113286876D01*
X89910135Y-113285671D01*
X89902452Y-113284000D01*
X88853225Y-113284000D01*
X88839694Y-113287973D01*
X88838257Y-113297966D01*
X88138500Y-113297966D01*
X88138500Y-103652131D01*
X88158502Y-103584010D01*
X88212158Y-103537517D01*
X88282432Y-103527413D01*
X88347012Y-103556907D01*
X88381652Y-103605748D01*
X88392803Y-103633913D01*
X88396648Y-103645143D01*
X88408981Y-103687594D01*
X88413014Y-103694413D01*
X88413016Y-103694418D01*
X88419292Y-103705029D01*
X88427987Y-103722777D01*
X88435447Y-103741618D01*
X88440109Y-103748034D01*
X88440109Y-103748035D01*
X88461435Y-103777388D01*
X88467951Y-103787308D01*
X88476408Y-103801607D01*
X88490457Y-103825363D01*
X88504778Y-103839684D01*
X88517618Y-103854717D01*
X88529527Y-103871108D01*
X88535633Y-103876159D01*
X88563604Y-103899299D01*
X88572383Y-103907289D01*
X89080022Y-104414928D01*
X89114048Y-104477240D01*
X89108983Y-104548055D01*
X89095015Y-104575027D01*
X88987662Y-104732400D01*
X88987659Y-104732405D01*
X88984743Y-104736680D01*
X88982564Y-104741375D01*
X88896290Y-104927237D01*
X88890688Y-104939305D01*
X88830989Y-105154570D01*
X88807251Y-105376695D01*
X88807548Y-105381848D01*
X88807548Y-105381851D01*
X88814191Y-105497063D01*
X88820110Y-105599715D01*
X88821247Y-105604761D01*
X88821248Y-105604767D01*
X88828856Y-105638524D01*
X88869222Y-105817639D01*
X88929014Y-105964890D01*
X88946662Y-106008351D01*
X88953266Y-106024616D01*
X88986727Y-106079220D01*
X89065726Y-106208134D01*
X89069987Y-106215088D01*
X89216250Y-106383938D01*
X89388126Y-106526632D01*
X89436458Y-106554875D01*
X89461955Y-106569774D01*
X89510679Y-106621412D01*
X89523750Y-106691195D01*
X89497019Y-106756967D01*
X89456562Y-106790327D01*
X89448457Y-106794546D01*
X89439738Y-106800036D01*
X89269433Y-106927905D01*
X89261726Y-106934748D01*
X89114590Y-107088717D01*
X89108104Y-107096727D01*
X88988098Y-107272649D01*
X88983000Y-107281623D01*
X88893338Y-107474783D01*
X88889775Y-107484470D01*
X88834389Y-107684183D01*
X88835912Y-107692607D01*
X88848292Y-107696000D01*
X90298000Y-107696000D01*
X90366121Y-107716002D01*
X90412614Y-107769658D01*
X90424000Y-107822000D01*
X90424000Y-108078000D01*
X90403998Y-108146121D01*
X90350342Y-108192614D01*
X90298000Y-108204000D01*
X88853225Y-108204000D01*
X88839694Y-108207973D01*
X88838257Y-108217966D01*
X88868565Y-108352446D01*
X88871645Y-108362275D01*
X88951770Y-108559603D01*
X88956413Y-108568794D01*
X89067694Y-108750388D01*
X89073777Y-108758699D01*
X89213213Y-108919667D01*
X89220580Y-108926883D01*
X89384434Y-109062916D01*
X89392881Y-109068831D01*
X89461969Y-109109203D01*
X89510693Y-109160842D01*
X89523764Y-109230625D01*
X89497033Y-109296396D01*
X89456584Y-109329752D01*
X89443607Y-109336507D01*
X89439474Y-109339610D01*
X89439471Y-109339612D01*
X89291224Y-109450919D01*
X89264965Y-109470635D01*
X89110629Y-109632138D01*
X89107715Y-109636410D01*
X89107714Y-109636411D01*
X89045476Y-109727649D01*
X88984743Y-109816680D01*
X88966435Y-109856121D01*
X88902033Y-109994865D01*
X88890688Y-110019305D01*
X88830989Y-110234570D01*
X88807251Y-110456695D01*
X88807548Y-110461848D01*
X88807548Y-110461851D01*
X88813790Y-110570109D01*
X88820110Y-110679715D01*
X88821247Y-110684761D01*
X88821248Y-110684767D01*
X88825217Y-110702378D01*
X88869222Y-110897639D01*
X88953266Y-111104616D01*
X88996645Y-111175405D01*
X89065726Y-111288134D01*
X89069987Y-111295088D01*
X89216250Y-111463938D01*
X89388126Y-111606632D01*
X89416366Y-111623134D01*
X89461955Y-111649774D01*
X89510679Y-111701412D01*
X89523750Y-111771195D01*
X89497019Y-111836967D01*
X89456562Y-111870327D01*
X89448457Y-111874546D01*
X89439738Y-111880036D01*
X89269433Y-112007905D01*
X89261726Y-112014748D01*
X89114590Y-112168717D01*
X89108104Y-112176727D01*
X88988098Y-112352649D01*
X88983000Y-112361623D01*
X88893338Y-112554783D01*
X88889775Y-112564470D01*
X88834389Y-112764183D01*
X88835912Y-112772607D01*
X88848292Y-112776000D01*
X91506459Y-112776000D01*
X91506459Y-112780775D01*
X91543133Y-112780792D01*
X91596673Y-112812577D01*
X95364595Y-116580499D01*
X95398621Y-116642811D01*
X95401500Y-116669594D01*
X95401500Y-116703134D01*
X95408255Y-116765316D01*
X95419672Y-116795771D01*
X95424855Y-116866577D01*
X95419674Y-116884224D01*
X95408255Y-116914684D01*
X95401500Y-116976866D01*
X95401500Y-117973134D01*
X95408255Y-118035316D01*
X95419672Y-118065771D01*
X95424855Y-118136577D01*
X95419674Y-118154224D01*
X95408255Y-118184684D01*
X95401500Y-118246866D01*
X95401500Y-119243134D01*
X95408255Y-119305316D01*
X95459385Y-119441705D01*
X95546739Y-119558261D01*
X95663295Y-119645615D01*
X95799684Y-119696745D01*
X95861866Y-119703500D01*
X97958134Y-119703500D01*
X98020316Y-119696745D01*
X98156705Y-119645615D01*
X98273261Y-119558261D01*
X98337247Y-119472885D01*
X98737000Y-119472885D01*
X98741475Y-119488124D01*
X98742865Y-119489329D01*
X98750548Y-119491000D01*
X99422885Y-119491000D01*
X99438124Y-119486525D01*
X99439329Y-119485135D01*
X99441000Y-119477452D01*
X99441000Y-118255116D01*
X99436525Y-118239877D01*
X99435135Y-118238672D01*
X99427452Y-118237001D01*
X99200331Y-118237001D01*
X99193510Y-118237371D01*
X99142648Y-118242895D01*
X99127396Y-118246521D01*
X99006946Y-118291676D01*
X98991351Y-118300214D01*
X98889276Y-118376715D01*
X98876715Y-118389276D01*
X98800214Y-118491351D01*
X98791676Y-118506946D01*
X98746522Y-118627394D01*
X98742895Y-118642649D01*
X98737369Y-118693514D01*
X98737000Y-118700328D01*
X98737000Y-119472885D01*
X98337247Y-119472885D01*
X98360615Y-119441705D01*
X98411745Y-119305316D01*
X98418500Y-119243134D01*
X98418500Y-118246866D01*
X98411745Y-118184684D01*
X98400328Y-118154229D01*
X98395145Y-118083423D01*
X98400326Y-118065776D01*
X98411745Y-118035316D01*
X98418500Y-117973134D01*
X98418500Y-116976866D01*
X98411745Y-116914684D01*
X98400328Y-116884229D01*
X98395145Y-116813423D01*
X98400326Y-116795776D01*
X98411745Y-116765316D01*
X98418500Y-116703134D01*
X98418500Y-115706866D01*
X98411745Y-115644684D01*
X98400328Y-115614229D01*
X98395145Y-115543423D01*
X98400326Y-115525776D01*
X98411745Y-115495316D01*
X98418500Y-115433134D01*
X98418500Y-114436866D01*
X98411745Y-114374684D01*
X98400328Y-114344229D01*
X98395145Y-114273423D01*
X98400326Y-114255776D01*
X98411745Y-114225316D01*
X98418500Y-114163134D01*
X98418500Y-113166866D01*
X98411745Y-113104684D01*
X98400328Y-113074229D01*
X98395145Y-113003423D01*
X98400326Y-112985776D01*
X98411745Y-112955316D01*
X98418500Y-112893134D01*
X98418500Y-112279669D01*
X101402001Y-112279669D01*
X101402371Y-112286490D01*
X101407895Y-112337352D01*
X101411521Y-112352604D01*
X101456676Y-112473054D01*
X101465214Y-112488649D01*
X101541715Y-112590724D01*
X101554276Y-112603285D01*
X101656351Y-112679786D01*
X101671946Y-112688324D01*
X101792394Y-112733478D01*
X101807649Y-112737105D01*
X101858514Y-112742631D01*
X101865328Y-112743000D01*
X104137885Y-112743000D01*
X104153124Y-112738525D01*
X104154329Y-112737135D01*
X104156000Y-112729452D01*
X104156000Y-112724884D01*
X104664000Y-112724884D01*
X104668475Y-112740123D01*
X104669865Y-112741328D01*
X104677548Y-112742999D01*
X106954669Y-112742999D01*
X106961490Y-112742629D01*
X107012352Y-112737105D01*
X107027604Y-112733479D01*
X107148054Y-112688324D01*
X107163649Y-112679786D01*
X107265724Y-112603285D01*
X107278285Y-112590724D01*
X107354786Y-112488649D01*
X107363324Y-112473054D01*
X107408478Y-112352606D01*
X107412105Y-112337351D01*
X107417631Y-112286486D01*
X107418000Y-112279672D01*
X107418000Y-110007115D01*
X107413525Y-109991876D01*
X107412135Y-109990671D01*
X107404452Y-109989000D01*
X104682115Y-109989000D01*
X104666876Y-109993475D01*
X104665671Y-109994865D01*
X104664000Y-110002548D01*
X104664000Y-112724884D01*
X104156000Y-112724884D01*
X104156000Y-110007115D01*
X104151525Y-109991876D01*
X104150135Y-109990671D01*
X104142452Y-109989000D01*
X101420116Y-109989000D01*
X101404877Y-109993475D01*
X101403672Y-109994865D01*
X101402001Y-110002548D01*
X101402001Y-112279669D01*
X98418500Y-112279669D01*
X98418500Y-111896866D01*
X98411745Y-111834684D01*
X98400328Y-111804229D01*
X98395145Y-111733423D01*
X98400326Y-111715776D01*
X98411745Y-111685316D01*
X98418500Y-111623134D01*
X98418500Y-110626866D01*
X98411745Y-110564684D01*
X98400328Y-110534229D01*
X98395145Y-110463423D01*
X98400326Y-110445776D01*
X98411745Y-110415316D01*
X98418500Y-110353134D01*
X98418500Y-109462885D01*
X101402000Y-109462885D01*
X101406475Y-109478124D01*
X101407865Y-109479329D01*
X101415548Y-109481000D01*
X104137885Y-109481000D01*
X104153124Y-109476525D01*
X104154329Y-109475135D01*
X104156000Y-109467452D01*
X104156000Y-109462885D01*
X104664000Y-109462885D01*
X104668475Y-109478124D01*
X104669865Y-109479329D01*
X104677548Y-109481000D01*
X107399884Y-109481000D01*
X107415123Y-109476525D01*
X107416328Y-109475135D01*
X107417999Y-109467452D01*
X107417999Y-107190331D01*
X107417629Y-107183510D01*
X107412105Y-107132648D01*
X107408479Y-107117396D01*
X107363324Y-106996946D01*
X107354786Y-106981351D01*
X107278285Y-106879276D01*
X107265724Y-106866715D01*
X107163649Y-106790214D01*
X107148054Y-106781676D01*
X107027606Y-106736522D01*
X107012351Y-106732895D01*
X106961486Y-106727369D01*
X106954672Y-106727000D01*
X104682115Y-106727000D01*
X104666876Y-106731475D01*
X104665671Y-106732865D01*
X104664000Y-106740548D01*
X104664000Y-109462885D01*
X104156000Y-109462885D01*
X104156000Y-106745116D01*
X104151525Y-106729877D01*
X104150135Y-106728672D01*
X104142452Y-106727001D01*
X101865331Y-106727001D01*
X101858510Y-106727371D01*
X101807648Y-106732895D01*
X101792396Y-106736521D01*
X101671946Y-106781676D01*
X101656351Y-106790214D01*
X101554276Y-106866715D01*
X101541715Y-106879276D01*
X101465214Y-106981351D01*
X101456676Y-106996946D01*
X101411522Y-107117394D01*
X101407895Y-107132649D01*
X101402369Y-107183514D01*
X101402000Y-107190328D01*
X101402000Y-109462885D01*
X98418500Y-109462885D01*
X98418500Y-109356866D01*
X98411745Y-109294684D01*
X98400328Y-109264229D01*
X98395145Y-109193423D01*
X98400326Y-109175776D01*
X98411745Y-109145316D01*
X98418500Y-109083134D01*
X98418500Y-108086866D01*
X98411745Y-108024684D01*
X98400328Y-107994229D01*
X98395145Y-107923423D01*
X98400326Y-107905776D01*
X98411745Y-107875316D01*
X98418500Y-107813134D01*
X98418500Y-106816866D01*
X98411745Y-106754684D01*
X98400328Y-106724229D01*
X98395145Y-106653423D01*
X98400326Y-106635776D01*
X98411745Y-106605316D01*
X98418500Y-106543134D01*
X98418500Y-105624501D01*
X98438502Y-105556380D01*
X98492158Y-105509887D01*
X98544500Y-105498501D01*
X100796232Y-105498501D01*
X100807415Y-105499028D01*
X100814908Y-105500703D01*
X100822834Y-105500454D01*
X100822835Y-105500454D01*
X100882985Y-105498563D01*
X100886944Y-105498501D01*
X100914855Y-105498501D01*
X100918790Y-105498004D01*
X100918855Y-105497996D01*
X100930692Y-105497063D01*
X100962950Y-105496049D01*
X100966969Y-105495923D01*
X100974888Y-105495674D01*
X100994342Y-105490022D01*
X101013699Y-105486014D01*
X101025929Y-105484469D01*
X101025930Y-105484469D01*
X101033796Y-105483475D01*
X101041167Y-105480556D01*
X101041169Y-105480556D01*
X101074911Y-105467197D01*
X101086141Y-105463352D01*
X101120982Y-105453230D01*
X101120983Y-105453230D01*
X101128592Y-105451019D01*
X101135411Y-105446986D01*
X101135416Y-105446984D01*
X101146027Y-105440708D01*
X101163775Y-105432013D01*
X101182616Y-105424553D01*
X101218386Y-105398565D01*
X101228306Y-105392049D01*
X101259534Y-105373581D01*
X101259537Y-105373579D01*
X101266361Y-105369543D01*
X101280682Y-105355222D01*
X101295716Y-105342381D01*
X101305693Y-105335132D01*
X101312106Y-105330473D01*
X101340297Y-105296396D01*
X101348287Y-105287617D01*
X101550499Y-105085405D01*
X101612811Y-105051379D01*
X101639594Y-105048500D01*
X101695487Y-105048500D01*
X101701939Y-105047128D01*
X101701944Y-105047128D01*
X101788888Y-105028647D01*
X101882288Y-105008794D01*
X101959532Y-104974403D01*
X102050722Y-104933803D01*
X102050724Y-104933802D01*
X102056752Y-104931118D01*
X102211253Y-104818866D01*
X102215675Y-104813955D01*
X102334621Y-104681852D01*
X102334622Y-104681851D01*
X102339040Y-104676944D01*
X102407303Y-104558709D01*
X102431223Y-104517279D01*
X102431224Y-104517278D01*
X102434527Y-104511556D01*
X102493542Y-104329928D01*
X102497325Y-104293941D01*
X102512814Y-104146565D01*
X102512814Y-104146562D01*
X102513504Y-104140000D01*
X102506432Y-104072712D01*
X102494232Y-103956635D01*
X102494232Y-103956633D01*
X102493542Y-103950072D01*
X102434527Y-103768444D01*
X102408168Y-103722788D01*
X102374640Y-103664717D01*
X102339040Y-103603056D01*
X102315044Y-103576405D01*
X102215675Y-103466045D01*
X102215674Y-103466044D01*
X102211253Y-103461134D01*
X102056752Y-103348882D01*
X102050724Y-103346198D01*
X102050722Y-103346197D01*
X101888319Y-103273891D01*
X101888318Y-103273891D01*
X101882288Y-103271206D01*
X101788887Y-103251353D01*
X101701944Y-103232872D01*
X101701939Y-103232872D01*
X101695487Y-103231500D01*
X101504513Y-103231500D01*
X101498061Y-103232872D01*
X101498056Y-103232872D01*
X101411113Y-103251353D01*
X101317712Y-103271206D01*
X101311682Y-103273891D01*
X101311681Y-103273891D01*
X101149278Y-103346197D01*
X101149276Y-103346198D01*
X101143248Y-103348882D01*
X100988747Y-103461134D01*
X100984326Y-103466044D01*
X100984325Y-103466045D01*
X100884957Y-103576405D01*
X100860960Y-103603056D01*
X100825360Y-103664717D01*
X100791833Y-103722788D01*
X100765473Y-103768444D01*
X100706458Y-103950072D01*
X100705768Y-103956633D01*
X100705768Y-103956635D01*
X100689093Y-104115292D01*
X100662080Y-104180949D01*
X100652878Y-104191217D01*
X100649499Y-104194596D01*
X100587187Y-104228622D01*
X100560404Y-104231501D01*
X100096572Y-104231501D01*
X100028451Y-104211499D01*
X99981958Y-104157843D01*
X99971262Y-104118671D01*
X99954232Y-103956635D01*
X99954232Y-103956633D01*
X99953542Y-103950072D01*
X99894527Y-103768444D01*
X99868168Y-103722788D01*
X99834640Y-103664717D01*
X99799040Y-103603056D01*
X99775044Y-103576405D01*
X99675675Y-103466045D01*
X99675674Y-103466044D01*
X99671253Y-103461134D01*
X99516752Y-103348882D01*
X99510724Y-103346198D01*
X99510722Y-103346197D01*
X99348319Y-103273891D01*
X99348318Y-103273891D01*
X99342288Y-103271206D01*
X99248887Y-103251353D01*
X99161944Y-103232872D01*
X99161939Y-103232872D01*
X99155487Y-103231500D01*
X99099595Y-103231500D01*
X99031474Y-103211498D01*
X99010500Y-103194595D01*
X98928652Y-103112747D01*
X98921112Y-103104461D01*
X98917000Y-103097982D01*
X98867348Y-103051356D01*
X98864507Y-103048602D01*
X98844770Y-103028865D01*
X98841573Y-103026385D01*
X98832551Y-103018680D01*
X98816353Y-103003469D01*
X98800321Y-102988414D01*
X98793375Y-102984595D01*
X98793372Y-102984593D01*
X98782566Y-102978652D01*
X98766047Y-102967801D01*
X98765583Y-102967441D01*
X98750041Y-102955386D01*
X98742772Y-102952241D01*
X98742768Y-102952238D01*
X98709463Y-102937826D01*
X98698813Y-102932609D01*
X98660060Y-102911305D01*
X98640437Y-102906267D01*
X98621734Y-102899863D01*
X98610420Y-102894967D01*
X98610419Y-102894967D01*
X98603145Y-102891819D01*
X98595322Y-102890580D01*
X98595312Y-102890577D01*
X98559476Y-102884901D01*
X98547855Y-102882495D01*
X98511450Y-102873148D01*
X98450443Y-102836833D01*
X98418754Y-102773301D01*
X98417603Y-102739891D01*
X98417447Y-102739883D01*
X98417542Y-102738120D01*
X98417521Y-102737497D01*
X98417631Y-102736483D01*
X98418000Y-102729672D01*
X98418000Y-102507115D01*
X98413525Y-102491876D01*
X98412135Y-102490671D01*
X98404452Y-102489000D01*
X95420116Y-102489000D01*
X95375245Y-102502175D01*
X95365355Y-102508530D01*
X95294359Y-102508523D01*
X95234636Y-102470133D01*
X95204542Y-102400631D01*
X95202744Y-102383295D01*
X95199851Y-102369900D01*
X95148412Y-102215716D01*
X95142239Y-102202538D01*
X95056937Y-102064693D01*
X95047901Y-102053292D01*
X94957337Y-101962885D01*
X95402000Y-101962885D01*
X95406475Y-101978124D01*
X95407865Y-101979329D01*
X95415548Y-101981000D01*
X96637885Y-101981000D01*
X96653124Y-101976525D01*
X96654329Y-101975135D01*
X96656000Y-101967452D01*
X96656000Y-101962885D01*
X97164000Y-101962885D01*
X97168475Y-101978124D01*
X97169865Y-101979329D01*
X97177548Y-101981000D01*
X98399884Y-101981000D01*
X98415123Y-101976525D01*
X98416328Y-101975135D01*
X98417999Y-101967452D01*
X98417999Y-101962885D01*
X112402000Y-101962885D01*
X112406475Y-101978124D01*
X112407865Y-101979329D01*
X112415548Y-101981000D01*
X113637885Y-101981000D01*
X113653124Y-101976525D01*
X113654329Y-101975135D01*
X113656000Y-101967452D01*
X113656000Y-101295116D01*
X113651525Y-101279877D01*
X113650135Y-101278672D01*
X113642452Y-101277001D01*
X112865331Y-101277001D01*
X112858510Y-101277371D01*
X112807648Y-101282895D01*
X112792396Y-101286521D01*
X112671946Y-101331676D01*
X112656351Y-101340214D01*
X112554276Y-101416715D01*
X112541715Y-101429276D01*
X112465214Y-101531351D01*
X112456676Y-101546946D01*
X112411522Y-101667394D01*
X112407895Y-101682649D01*
X112402369Y-101733514D01*
X112402000Y-101740328D01*
X112402000Y-101962885D01*
X98417999Y-101962885D01*
X98417999Y-101740331D01*
X98417629Y-101733510D01*
X98412105Y-101682648D01*
X98408479Y-101667396D01*
X98363324Y-101546946D01*
X98354786Y-101531351D01*
X98278285Y-101429276D01*
X98265724Y-101416715D01*
X98163649Y-101340214D01*
X98148054Y-101331676D01*
X98027606Y-101286522D01*
X98012351Y-101282895D01*
X97961486Y-101277369D01*
X97954672Y-101277000D01*
X97182115Y-101277000D01*
X97166876Y-101281475D01*
X97165671Y-101282865D01*
X97164000Y-101290548D01*
X97164000Y-101962885D01*
X96656000Y-101962885D01*
X96656000Y-101295116D01*
X96651525Y-101279877D01*
X96650135Y-101278672D01*
X96642452Y-101277001D01*
X95865331Y-101277001D01*
X95858510Y-101277371D01*
X95807648Y-101282895D01*
X95792396Y-101286521D01*
X95671946Y-101331676D01*
X95656351Y-101340214D01*
X95554276Y-101416715D01*
X95541715Y-101429276D01*
X95465214Y-101531351D01*
X95456676Y-101546946D01*
X95411522Y-101667394D01*
X95407895Y-101682649D01*
X95402369Y-101733514D01*
X95402000Y-101740328D01*
X95402000Y-101962885D01*
X94957337Y-101962885D01*
X94933171Y-101938761D01*
X94921760Y-101929749D01*
X94783757Y-101844684D01*
X94770576Y-101838537D01*
X94616290Y-101787362D01*
X94602914Y-101784495D01*
X94508562Y-101774828D01*
X94502145Y-101774500D01*
X94252115Y-101774500D01*
X94236876Y-101778975D01*
X94235671Y-101780365D01*
X94234000Y-101788048D01*
X94234000Y-102998000D01*
X94213998Y-103066121D01*
X94160342Y-103112614D01*
X94108000Y-103124000D01*
X93852000Y-103124000D01*
X93783879Y-103103998D01*
X93737386Y-103050342D01*
X93726000Y-102998000D01*
X93726000Y-101792616D01*
X93721525Y-101777377D01*
X93720135Y-101776172D01*
X93712452Y-101774501D01*
X93457905Y-101774501D01*
X93451386Y-101774838D01*
X93355794Y-101784757D01*
X93342400Y-101787649D01*
X93188216Y-101839088D01*
X93175038Y-101845261D01*
X93037193Y-101930563D01*
X93025792Y-101939599D01*
X92911261Y-102054329D01*
X92902249Y-102065740D01*
X92817184Y-102203743D01*
X92811037Y-102216924D01*
X92759862Y-102371210D01*
X92756995Y-102384586D01*
X92747328Y-102478938D01*
X92747000Y-102485355D01*
X92747000Y-102511904D01*
X92726998Y-102580025D01*
X92673342Y-102626518D01*
X92603068Y-102636622D01*
X92538488Y-102607128D01*
X92531905Y-102600999D01*
X92408648Y-102477742D01*
X92401113Y-102469462D01*
X92397000Y-102462982D01*
X92347348Y-102416356D01*
X92344507Y-102413602D01*
X92324770Y-102393865D01*
X92321573Y-102391385D01*
X92312551Y-102383680D01*
X92286100Y-102358841D01*
X92280321Y-102353414D01*
X92273375Y-102349595D01*
X92273372Y-102349593D01*
X92262566Y-102343652D01*
X92246047Y-102332801D01*
X92245583Y-102332441D01*
X92230041Y-102320386D01*
X92222772Y-102317241D01*
X92222768Y-102317238D01*
X92189463Y-102302826D01*
X92178813Y-102297609D01*
X92140060Y-102276305D01*
X92120437Y-102271267D01*
X92101734Y-102264863D01*
X92090420Y-102259967D01*
X92090419Y-102259967D01*
X92083145Y-102256819D01*
X92075322Y-102255580D01*
X92075312Y-102255577D01*
X92039476Y-102249901D01*
X92027856Y-102247495D01*
X91992711Y-102238472D01*
X91992710Y-102238472D01*
X91985030Y-102236500D01*
X91964776Y-102236500D01*
X91945065Y-102234949D01*
X91932886Y-102233020D01*
X91925057Y-102231780D01*
X91884689Y-102235596D01*
X91881039Y-102235941D01*
X91869181Y-102236500D01*
X91446805Y-102236500D01*
X91378684Y-102216498D01*
X91341013Y-102178940D01*
X91252822Y-102042617D01*
X91252820Y-102042614D01*
X91250014Y-102038277D01*
X91099670Y-101873051D01*
X91095619Y-101869852D01*
X91095615Y-101869848D01*
X90928414Y-101737800D01*
X90928410Y-101737798D01*
X90924359Y-101734598D01*
X90882569Y-101711529D01*
X90832598Y-101661097D01*
X90817826Y-101591654D01*
X90842942Y-101525248D01*
X90870294Y-101498641D01*
X91045328Y-101373792D01*
X91053200Y-101367139D01*
X91204052Y-101216812D01*
X91210730Y-101208965D01*
X91335003Y-101036020D01*
X91340313Y-101027183D01*
X91434670Y-100836267D01*
X91438469Y-100826672D01*
X91500377Y-100622910D01*
X91502555Y-100612837D01*
X91503986Y-100601962D01*
X91501775Y-100587778D01*
X91488617Y-100584000D01*
X90042000Y-100584000D01*
X89973879Y-100563998D01*
X89927386Y-100510342D01*
X89916000Y-100458000D01*
X89916000Y-100202000D01*
X89936002Y-100133879D01*
X89989658Y-100087386D01*
X90042000Y-100076000D01*
X91488344Y-100076000D01*
X91501875Y-100072027D01*
X91503180Y-100062947D01*
X91461214Y-99895875D01*
X91457894Y-99886124D01*
X91372972Y-99690814D01*
X91368105Y-99681739D01*
X91252426Y-99502926D01*
X91246136Y-99494757D01*
X91102293Y-99336677D01*
X91071241Y-99272831D01*
X91079635Y-99202333D01*
X91124812Y-99147564D01*
X91151256Y-99133895D01*
X91258297Y-99093767D01*
X91266705Y-99090615D01*
X91383261Y-99003261D01*
X91470615Y-98886705D01*
X91521745Y-98750316D01*
X91528500Y-98688134D01*
X91528500Y-96891866D01*
X91521745Y-96829684D01*
X91470615Y-96693295D01*
X91383261Y-96576739D01*
X91266705Y-96489385D01*
X91130316Y-96438255D01*
X91068134Y-96431500D01*
X89271866Y-96431500D01*
X89209684Y-96438255D01*
X89073295Y-96489385D01*
X88956739Y-96576739D01*
X88869385Y-96693295D01*
X88818255Y-96829684D01*
X88811500Y-96891866D01*
X88811500Y-98200405D01*
X88791498Y-98268526D01*
X88774595Y-98289500D01*
X88602746Y-98461349D01*
X88594460Y-98468889D01*
X88587981Y-98473001D01*
X88582556Y-98478778D01*
X88541356Y-98522652D01*
X88538601Y-98525494D01*
X88518864Y-98545231D01*
X88516384Y-98548428D01*
X88508681Y-98557448D01*
X88478413Y-98589680D01*
X88474594Y-98596626D01*
X88474592Y-98596629D01*
X88468651Y-98607435D01*
X88457800Y-98623954D01*
X88445385Y-98639960D01*
X88442240Y-98647229D01*
X88442237Y-98647233D01*
X88427825Y-98680538D01*
X88422608Y-98691188D01*
X88401304Y-98729941D01*
X88399333Y-98737616D01*
X88399333Y-98737617D01*
X88396266Y-98749563D01*
X88389862Y-98768267D01*
X88381818Y-98786856D01*
X88380147Y-98786133D01*
X88347280Y-98837593D01*
X88282782Y-98867268D01*
X88212480Y-98857361D01*
X88158694Y-98811019D01*
X88138500Y-98742601D01*
X88138500Y-94033250D01*
X88140246Y-94012345D01*
X88142770Y-93997344D01*
X88142770Y-93997341D01*
X88143576Y-93992552D01*
X88143729Y-93980000D01*
X88142788Y-93973429D01*
X88142123Y-93943218D01*
X88151916Y-93843789D01*
X88156733Y-93819568D01*
X88192866Y-93700454D01*
X88202315Y-93677645D01*
X88260987Y-93567876D01*
X88274705Y-93547345D01*
X88353671Y-93451124D01*
X88371124Y-93433671D01*
X88467345Y-93354705D01*
X88487876Y-93340987D01*
X88597645Y-93282315D01*
X88620454Y-93272866D01*
X88739568Y-93236733D01*
X88763789Y-93231916D01*
X88859809Y-93222459D01*
X88875868Y-93222909D01*
X88875877Y-93222200D01*
X88884853Y-93222310D01*
X88893724Y-93223691D01*
X88902626Y-93222527D01*
X88902628Y-93222527D01*
X88919059Y-93220378D01*
X88925286Y-93219564D01*
X88941621Y-93218500D01*
X91390633Y-93218500D01*
X91410018Y-93220000D01*
G37*
%TD.AperFunction*%
%TA.AperFunction,Conductor*%
G36*
X127197012Y-102693370D02*
G01*
X127203595Y-102699499D01*
X127599595Y-103095499D01*
X127633621Y-103157811D01*
X127636500Y-103184594D01*
X127636500Y-111175405D01*
X127616498Y-111243526D01*
X127599595Y-111264501D01*
X127111480Y-111752615D01*
X127049168Y-111786640D01*
X126978352Y-111781575D01*
X126921517Y-111739028D01*
X126896706Y-111672508D01*
X126911798Y-111603134D01*
X126921560Y-111587953D01*
X126924786Y-111583649D01*
X126933324Y-111568054D01*
X126978478Y-111447606D01*
X126982105Y-111432351D01*
X126987631Y-111381486D01*
X126988000Y-111374672D01*
X126988000Y-110852115D01*
X126983525Y-110836876D01*
X126982135Y-110835671D01*
X126974452Y-110834000D01*
X124490116Y-110834000D01*
X124474877Y-110838475D01*
X124473672Y-110839865D01*
X124472001Y-110847548D01*
X124472001Y-111374669D01*
X124472371Y-111381490D01*
X124477895Y-111432352D01*
X124481521Y-111447604D01*
X124526676Y-111568054D01*
X124535214Y-111583649D01*
X124611715Y-111685724D01*
X124624274Y-111698283D01*
X124631718Y-111703862D01*
X124674232Y-111760722D01*
X124679257Y-111831541D01*
X124645197Y-111893834D01*
X124631715Y-111905515D01*
X124623921Y-111911356D01*
X124623919Y-111911358D01*
X124616739Y-111916739D01*
X124529385Y-112033295D01*
X124478255Y-112169684D01*
X124471500Y-112231866D01*
X124471500Y-113828134D01*
X124478255Y-113890316D01*
X124529385Y-114026705D01*
X124616739Y-114143261D01*
X124733295Y-114230615D01*
X124869684Y-114281745D01*
X124931866Y-114288500D01*
X126528134Y-114288500D01*
X126590316Y-114281745D01*
X126726705Y-114230615D01*
X126843261Y-114143261D01*
X126930615Y-114026705D01*
X126981745Y-113890316D01*
X126988500Y-113828134D01*
X126988500Y-113689438D01*
X127008502Y-113621317D01*
X127040440Y-113587501D01*
X127073387Y-113563564D01*
X127083307Y-113557048D01*
X127114535Y-113538580D01*
X127114538Y-113538578D01*
X127121362Y-113534542D01*
X127135683Y-113520221D01*
X127150717Y-113507380D01*
X127160694Y-113500131D01*
X127167107Y-113495472D01*
X127172157Y-113489368D01*
X127172162Y-113489363D01*
X127195293Y-113461402D01*
X127203283Y-113452621D01*
X127871415Y-112784490D01*
X127933727Y-112750465D01*
X128004543Y-112755530D01*
X128061378Y-112798077D01*
X128086189Y-112864597D01*
X128086510Y-112873586D01*
X128086510Y-115591243D01*
X128085983Y-115602426D01*
X128084308Y-115609919D01*
X128084557Y-115617845D01*
X128084557Y-115617846D01*
X128086448Y-115677996D01*
X128086510Y-115681955D01*
X128086510Y-115709866D01*
X128087007Y-115713800D01*
X128087007Y-115713801D01*
X128087015Y-115713866D01*
X128087948Y-115725703D01*
X128089337Y-115769899D01*
X128094988Y-115789349D01*
X128098997Y-115808710D01*
X128101536Y-115828807D01*
X128104455Y-115836178D01*
X128104455Y-115836180D01*
X128117814Y-115869922D01*
X128121659Y-115881152D01*
X128123950Y-115889038D01*
X128133992Y-115923603D01*
X128138025Y-115930422D01*
X128138027Y-115930427D01*
X128144303Y-115941038D01*
X128152998Y-115958786D01*
X128160458Y-115977627D01*
X128165120Y-115984043D01*
X128165120Y-115984044D01*
X128186446Y-116013397D01*
X128192962Y-116023317D01*
X128210377Y-116052763D01*
X128215468Y-116061372D01*
X128229789Y-116075693D01*
X128242629Y-116090726D01*
X128254538Y-116107117D01*
X128260644Y-116112168D01*
X128288615Y-116135308D01*
X128297394Y-116143298D01*
X129386348Y-117232253D01*
X129393886Y-117240536D01*
X129398000Y-117247018D01*
X129403781Y-117252447D01*
X129403783Y-117252449D01*
X129404079Y-117252727D01*
X129404414Y-117253212D01*
X129408832Y-117258552D01*
X129408369Y-117258935D01*
X129434232Y-117296356D01*
X129454049Y-117344198D01*
X129454052Y-117344203D01*
X129457212Y-117351832D01*
X129462239Y-117358383D01*
X129492865Y-117398296D01*
X129518465Y-117464516D01*
X129504200Y-117534065D01*
X129492865Y-117551704D01*
X129457212Y-117598168D01*
X129454053Y-117605794D01*
X129454052Y-117605796D01*
X129442992Y-117632498D01*
X129396905Y-117743760D01*
X129395828Y-117751944D01*
X129395827Y-117751946D01*
X129385781Y-117828255D01*
X129381500Y-117860775D01*
X129381501Y-118359224D01*
X129382039Y-118363308D01*
X129382039Y-118363314D01*
X129384464Y-118381731D01*
X129396905Y-118476240D01*
X129400062Y-118483862D01*
X129400063Y-118483865D01*
X129454052Y-118614204D01*
X129457212Y-118621832D01*
X129462239Y-118628383D01*
X129462241Y-118628387D01*
X129493180Y-118668708D01*
X129518780Y-118734928D01*
X129504515Y-118804477D01*
X129493179Y-118822115D01*
X129462678Y-118861865D01*
X129454487Y-118876052D01*
X129400552Y-119006262D01*
X129396314Y-119022079D01*
X129384998Y-119108039D01*
X129387209Y-119122221D01*
X129400367Y-119126000D01*
X131003000Y-119126000D01*
X131071121Y-119146002D01*
X131117614Y-119199658D01*
X131129000Y-119252000D01*
X131129000Y-119508000D01*
X131108998Y-119576121D01*
X131055342Y-119622614D01*
X131003000Y-119634000D01*
X129400748Y-119634000D01*
X129386977Y-119638044D01*
X129384948Y-119651583D01*
X129396314Y-119737921D01*
X129400552Y-119753739D01*
X129437228Y-119842282D01*
X129444817Y-119912872D01*
X129413038Y-119976359D01*
X129351979Y-120012586D01*
X129320819Y-120016500D01*
X128584595Y-120016500D01*
X128516474Y-119996498D01*
X128495499Y-119979595D01*
X127878646Y-119362741D01*
X127871112Y-119354462D01*
X127866999Y-119347981D01*
X127817347Y-119301355D01*
X127814506Y-119298601D01*
X127794769Y-119278864D01*
X127791572Y-119276384D01*
X127782550Y-119268679D01*
X127764345Y-119251583D01*
X127750320Y-119238413D01*
X127743374Y-119234594D01*
X127743371Y-119234592D01*
X127732565Y-119228651D01*
X127716046Y-119217800D01*
X127715582Y-119217440D01*
X127700040Y-119205385D01*
X127692771Y-119202240D01*
X127692767Y-119202237D01*
X127659462Y-119187825D01*
X127648812Y-119182608D01*
X127610059Y-119161304D01*
X127590436Y-119156266D01*
X127571733Y-119149862D01*
X127560419Y-119144966D01*
X127560418Y-119144966D01*
X127553144Y-119141818D01*
X127545321Y-119140579D01*
X127545311Y-119140576D01*
X127509475Y-119134900D01*
X127497855Y-119132494D01*
X127462710Y-119123471D01*
X127462709Y-119123471D01*
X127455029Y-119121499D01*
X127434775Y-119121499D01*
X127415064Y-119119948D01*
X127402885Y-119118019D01*
X127395056Y-119116779D01*
X127365785Y-119119546D01*
X127351038Y-119120940D01*
X127339180Y-119121499D01*
X124798766Y-119121499D01*
X124787583Y-119120972D01*
X124780090Y-119119297D01*
X124772164Y-119119546D01*
X124772163Y-119119546D01*
X124712013Y-119121437D01*
X124708054Y-119121499D01*
X124680143Y-119121499D01*
X124676209Y-119121996D01*
X124676208Y-119121996D01*
X124676143Y-119122004D01*
X124664306Y-119122937D01*
X124632048Y-119123951D01*
X124628029Y-119124077D01*
X124620110Y-119124326D01*
X124600656Y-119129978D01*
X124581299Y-119133986D01*
X124569069Y-119135531D01*
X124569068Y-119135531D01*
X124561202Y-119136525D01*
X124553831Y-119139444D01*
X124553829Y-119139444D01*
X124520087Y-119152803D01*
X124508857Y-119156648D01*
X124474016Y-119166770D01*
X124474015Y-119166770D01*
X124466406Y-119168981D01*
X124459587Y-119173014D01*
X124459582Y-119173016D01*
X124448971Y-119179292D01*
X124431223Y-119187987D01*
X124412382Y-119195447D01*
X124405966Y-119200109D01*
X124405965Y-119200109D01*
X124376612Y-119221435D01*
X124366692Y-119227951D01*
X124335464Y-119246419D01*
X124335461Y-119246421D01*
X124328637Y-119250457D01*
X124314316Y-119264778D01*
X124299283Y-119277618D01*
X124282892Y-119289527D01*
X124277841Y-119295632D01*
X124277836Y-119295637D01*
X124254700Y-119323603D01*
X124246712Y-119332381D01*
X123594497Y-119984596D01*
X123532185Y-120018622D01*
X123505402Y-120021501D01*
X121674500Y-120021501D01*
X121606379Y-120001499D01*
X121559886Y-119947843D01*
X121548500Y-119895501D01*
X121548500Y-118281866D01*
X121541745Y-118219684D01*
X121490615Y-118083295D01*
X121403261Y-117966739D01*
X121286705Y-117879385D01*
X121150316Y-117828255D01*
X121088134Y-117821500D01*
X119899500Y-117821500D01*
X119831379Y-117801498D01*
X119784886Y-117747842D01*
X119773500Y-117695500D01*
X119773500Y-114664500D01*
X119793502Y-114596379D01*
X119847158Y-114549886D01*
X119899500Y-114538500D01*
X119938134Y-114538500D01*
X120000316Y-114531745D01*
X120136705Y-114480615D01*
X120214852Y-114422047D01*
X120281358Y-114397199D01*
X120350741Y-114412252D01*
X120365982Y-114422047D01*
X120436352Y-114474786D01*
X120451946Y-114483324D01*
X120572394Y-114528478D01*
X120587649Y-114532105D01*
X120638514Y-114537631D01*
X120645328Y-114538000D01*
X121167885Y-114538000D01*
X121183124Y-114533525D01*
X121184329Y-114532135D01*
X121186000Y-114524452D01*
X121186000Y-114519884D01*
X121694000Y-114519884D01*
X121698475Y-114535123D01*
X121699865Y-114536328D01*
X121707548Y-114537999D01*
X122234669Y-114537999D01*
X122241490Y-114537629D01*
X122292352Y-114532105D01*
X122307604Y-114528479D01*
X122428054Y-114483324D01*
X122443649Y-114474786D01*
X122545724Y-114398285D01*
X122558285Y-114385724D01*
X122634786Y-114283649D01*
X122643324Y-114268054D01*
X122688478Y-114147606D01*
X122692105Y-114132351D01*
X122697631Y-114081486D01*
X122698000Y-114074672D01*
X122698000Y-113302115D01*
X122693525Y-113286876D01*
X122692135Y-113285671D01*
X122684452Y-113284000D01*
X121712115Y-113284000D01*
X121696876Y-113288475D01*
X121695671Y-113289865D01*
X121694000Y-113297548D01*
X121694000Y-114519884D01*
X121186000Y-114519884D01*
X121186000Y-112902000D01*
X121206002Y-112833879D01*
X121259658Y-112787386D01*
X121312000Y-112776000D01*
X122679884Y-112776000D01*
X122695123Y-112771525D01*
X122696328Y-112770135D01*
X122697999Y-112762452D01*
X122697999Y-111985331D01*
X122697629Y-111978510D01*
X122692105Y-111927648D01*
X122688479Y-111912396D01*
X122643324Y-111791946D01*
X122634786Y-111776351D01*
X122558285Y-111674276D01*
X122545724Y-111661715D01*
X122443649Y-111585214D01*
X122428054Y-111576676D01*
X122307606Y-111531522D01*
X122292351Y-111527895D01*
X122241486Y-111522369D01*
X122234672Y-111522000D01*
X121848094Y-111522000D01*
X121779973Y-111501998D01*
X121733480Y-111448342D01*
X121723376Y-111378068D01*
X121752870Y-111313488D01*
X121758999Y-111306905D01*
X121907999Y-111157905D01*
X121970311Y-111123879D01*
X121997094Y-111121000D01*
X122445400Y-111121000D01*
X122448646Y-111120663D01*
X122448650Y-111120663D01*
X122544308Y-111110738D01*
X122544312Y-111110737D01*
X122551166Y-111110026D01*
X122557702Y-111107845D01*
X122557704Y-111107845D01*
X122711998Y-111056368D01*
X122718946Y-111054050D01*
X122869348Y-110960978D01*
X122994305Y-110835803D01*
X123013334Y-110804933D01*
X123083275Y-110691468D01*
X123083276Y-110691466D01*
X123087115Y-110685238D01*
X123127950Y-110562123D01*
X123140632Y-110523889D01*
X123140632Y-110523887D01*
X123142797Y-110517361D01*
X123145601Y-110490000D01*
X123148323Y-110463423D01*
X123153500Y-110412900D01*
X123153500Y-110307885D01*
X124472000Y-110307885D01*
X124476475Y-110323124D01*
X124477865Y-110324329D01*
X124485548Y-110326000D01*
X125457885Y-110326000D01*
X125473124Y-110321525D01*
X125474329Y-110320135D01*
X125476000Y-110312452D01*
X125476000Y-110307885D01*
X125984000Y-110307885D01*
X125988475Y-110323124D01*
X125989865Y-110324329D01*
X125997548Y-110326000D01*
X126969884Y-110326000D01*
X126985123Y-110321525D01*
X126986328Y-110320135D01*
X126987999Y-110312452D01*
X126987999Y-109785331D01*
X126987629Y-109778510D01*
X126982105Y-109727648D01*
X126978479Y-109712396D01*
X126933324Y-109591946D01*
X126924786Y-109576351D01*
X126848285Y-109474276D01*
X126835724Y-109461715D01*
X126733649Y-109385214D01*
X126718054Y-109376676D01*
X126597606Y-109331522D01*
X126582351Y-109327895D01*
X126531486Y-109322369D01*
X126524672Y-109322000D01*
X126002115Y-109322000D01*
X125986876Y-109326475D01*
X125985671Y-109327865D01*
X125984000Y-109335548D01*
X125984000Y-110307885D01*
X125476000Y-110307885D01*
X125476000Y-109340116D01*
X125471525Y-109324877D01*
X125470135Y-109323672D01*
X125462452Y-109322001D01*
X124935331Y-109322001D01*
X124928510Y-109322371D01*
X124877648Y-109327895D01*
X124862396Y-109331521D01*
X124741946Y-109376676D01*
X124726351Y-109385214D01*
X124624276Y-109461715D01*
X124611715Y-109474276D01*
X124535214Y-109576351D01*
X124526676Y-109591946D01*
X124481522Y-109712394D01*
X124477895Y-109727649D01*
X124472369Y-109778514D01*
X124472000Y-109785328D01*
X124472000Y-110307885D01*
X123153500Y-110307885D01*
X123153500Y-109637100D01*
X123152731Y-109629684D01*
X123143238Y-109538192D01*
X123143237Y-109538188D01*
X123142526Y-109531334D01*
X123123777Y-109475135D01*
X123088868Y-109370502D01*
X123086550Y-109363554D01*
X122993478Y-109213152D01*
X122868303Y-109088195D01*
X122863765Y-109085398D01*
X122823176Y-109028147D01*
X122819946Y-108957224D01*
X122855572Y-108895813D01*
X122864068Y-108888438D01*
X122874207Y-108880402D01*
X122988739Y-108765671D01*
X122997751Y-108754260D01*
X123082816Y-108616257D01*
X123088963Y-108603076D01*
X123140138Y-108448790D01*
X123143005Y-108435414D01*
X123152672Y-108341062D01*
X123153000Y-108334646D01*
X123153000Y-108222115D01*
X123148525Y-108206876D01*
X123147135Y-108205671D01*
X123139452Y-108204000D01*
X121496405Y-108204000D01*
X121428284Y-108183998D01*
X121407310Y-108167095D01*
X121320405Y-108080190D01*
X121286379Y-108017878D01*
X121283500Y-107991095D01*
X121283500Y-107822000D01*
X121303502Y-107753879D01*
X121357158Y-107707386D01*
X121409500Y-107696000D01*
X121647885Y-107696000D01*
X121663124Y-107691525D01*
X121664329Y-107690135D01*
X121666000Y-107682452D01*
X121666000Y-107677885D01*
X122174000Y-107677885D01*
X122178475Y-107693124D01*
X122179865Y-107694329D01*
X122187548Y-107696000D01*
X123134884Y-107696000D01*
X123150123Y-107691525D01*
X123151328Y-107690135D01*
X123152999Y-107682452D01*
X123152999Y-107565405D01*
X123152662Y-107558886D01*
X123142743Y-107463294D01*
X123139851Y-107449900D01*
X123088412Y-107295716D01*
X123082239Y-107282538D01*
X122996937Y-107144693D01*
X122987901Y-107133292D01*
X122873171Y-107018761D01*
X122861760Y-107009749D01*
X122723757Y-106924684D01*
X122710576Y-106918537D01*
X122556290Y-106867362D01*
X122542914Y-106864495D01*
X122448562Y-106854828D01*
X122442145Y-106854500D01*
X122192115Y-106854500D01*
X122176876Y-106858975D01*
X122175671Y-106860365D01*
X122174000Y-106868048D01*
X122174000Y-107677885D01*
X121666000Y-107677885D01*
X121666000Y-106872616D01*
X121661525Y-106857377D01*
X121660135Y-106856172D01*
X121657891Y-106855684D01*
X121595579Y-106821659D01*
X121561554Y-106759346D01*
X121559364Y-106719397D01*
X121560907Y-106704711D01*
X121587917Y-106639053D01*
X121597122Y-106628782D01*
X122210500Y-106015404D01*
X122272812Y-105981378D01*
X122299595Y-105978499D01*
X122420400Y-105978499D01*
X122526167Y-105967526D01*
X122617520Y-105937048D01*
X122687002Y-105913867D01*
X122687004Y-105913866D01*
X122693946Y-105911550D01*
X122844349Y-105818479D01*
X122878318Y-105784451D01*
X122964134Y-105698484D01*
X122969306Y-105693303D01*
X123023880Y-105604767D01*
X123058275Y-105548969D01*
X123058276Y-105548967D01*
X123062115Y-105542739D01*
X123102862Y-105419891D01*
X123115632Y-105381390D01*
X123115632Y-105381388D01*
X123117797Y-105374862D01*
X123119960Y-105353757D01*
X123123873Y-105315557D01*
X123128500Y-105270401D01*
X123128499Y-104554510D01*
X123148501Y-104486389D01*
X123202157Y-104439896D01*
X123254499Y-104428510D01*
X124636223Y-104428510D01*
X124647406Y-104429037D01*
X124654899Y-104430712D01*
X124662825Y-104430463D01*
X124662826Y-104430463D01*
X124722976Y-104428572D01*
X124726935Y-104428510D01*
X124754846Y-104428510D01*
X124758781Y-104428013D01*
X124758846Y-104428005D01*
X124770683Y-104427072D01*
X124802941Y-104426058D01*
X124806960Y-104425932D01*
X124814879Y-104425683D01*
X124834333Y-104420031D01*
X124853690Y-104416023D01*
X124865920Y-104414478D01*
X124865921Y-104414478D01*
X124873787Y-104413484D01*
X124881158Y-104410565D01*
X124881160Y-104410565D01*
X124914902Y-104397206D01*
X124926132Y-104393361D01*
X124960973Y-104383239D01*
X124960974Y-104383239D01*
X124968583Y-104381028D01*
X124975402Y-104376995D01*
X124975407Y-104376993D01*
X124986018Y-104370717D01*
X125003766Y-104362022D01*
X125022607Y-104354562D01*
X125030076Y-104349136D01*
X125058377Y-104328574D01*
X125068297Y-104322058D01*
X125099525Y-104303590D01*
X125099528Y-104303588D01*
X125106352Y-104299552D01*
X125120673Y-104285231D01*
X125135707Y-104272390D01*
X125145684Y-104265141D01*
X125152097Y-104260482D01*
X125180288Y-104226405D01*
X125188278Y-104217626D01*
X125330499Y-104075405D01*
X125392811Y-104041379D01*
X125419594Y-104038500D01*
X126528134Y-104038500D01*
X126590316Y-104031745D01*
X126726705Y-103980615D01*
X126843261Y-103893261D01*
X126930615Y-103776705D01*
X126981745Y-103640316D01*
X126988500Y-103578134D01*
X126988500Y-102788594D01*
X127008502Y-102720473D01*
X127062158Y-102673980D01*
X127132432Y-102663876D01*
X127197012Y-102693370D01*
G37*
%TD.AperFunction*%
%TA.AperFunction,Conductor*%
G36*
X132709921Y-114953502D02*
G01*
X132729147Y-114969843D01*
X132729420Y-114969540D01*
X132734332Y-114973963D01*
X132738747Y-114978866D01*
X132744086Y-114982745D01*
X132806578Y-115028148D01*
X132893248Y-115091118D01*
X132899276Y-115093802D01*
X132899278Y-115093803D01*
X133042192Y-115157432D01*
X133067712Y-115168794D01*
X133161112Y-115188647D01*
X133248056Y-115207128D01*
X133248061Y-115207128D01*
X133254513Y-115208500D01*
X133445487Y-115208500D01*
X133451939Y-115207128D01*
X133451944Y-115207128D01*
X133538888Y-115188647D01*
X133632288Y-115168794D01*
X133638315Y-115166111D01*
X133638323Y-115166108D01*
X133704242Y-115136759D01*
X133774609Y-115127325D01*
X133838906Y-115157432D01*
X133876719Y-115217521D01*
X133881490Y-115251866D01*
X133881490Y-115888134D01*
X133861488Y-115956255D01*
X133807832Y-116002748D01*
X133737558Y-116012852D01*
X133704242Y-116003241D01*
X133638323Y-115973892D01*
X133638315Y-115973889D01*
X133632288Y-115971206D01*
X133538888Y-115951353D01*
X133451944Y-115932872D01*
X133451939Y-115932872D01*
X133445487Y-115931500D01*
X133254513Y-115931500D01*
X133248061Y-115932872D01*
X133248056Y-115932872D01*
X133161112Y-115951353D01*
X133067712Y-115971206D01*
X133061682Y-115973891D01*
X133061681Y-115973891D01*
X132899278Y-116046197D01*
X132899276Y-116046198D01*
X132893248Y-116048882D01*
X132887907Y-116052762D01*
X132887906Y-116052763D01*
X132876057Y-116061372D01*
X132738747Y-116161134D01*
X132734326Y-116166044D01*
X132734325Y-116166045D01*
X132656257Y-116252749D01*
X132610960Y-116303056D01*
X132575888Y-116363803D01*
X132547396Y-116413152D01*
X132496014Y-116462145D01*
X132426300Y-116475581D01*
X132360389Y-116449195D01*
X132321869Y-116398371D01*
X132295952Y-116335803D01*
X132295947Y-116335794D01*
X132292788Y-116328168D01*
X132287761Y-116321617D01*
X132287759Y-116321613D01*
X132256820Y-116281292D01*
X132231220Y-116215072D01*
X132245485Y-116145523D01*
X132256821Y-116127885D01*
X132287322Y-116088135D01*
X132295513Y-116073948D01*
X132349448Y-115943738D01*
X132353686Y-115927921D01*
X132365002Y-115841961D01*
X132362791Y-115827779D01*
X132349633Y-115824000D01*
X130747000Y-115824000D01*
X130678879Y-115803998D01*
X130632386Y-115750342D01*
X130621000Y-115698000D01*
X130621000Y-115442000D01*
X130641002Y-115373879D01*
X130694658Y-115327386D01*
X130747000Y-115316000D01*
X132349252Y-115316000D01*
X132363023Y-115311956D01*
X132365052Y-115298417D01*
X132353686Y-115212079D01*
X132349448Y-115196261D01*
X132312772Y-115107718D01*
X132305183Y-115037128D01*
X132336962Y-114973641D01*
X132398021Y-114937414D01*
X132429181Y-114933500D01*
X132641800Y-114933500D01*
X132709921Y-114953502D01*
G37*
%TD.AperFunction*%
%TA.AperFunction,Conductor*%
G36*
X92187013Y-106584369D02*
G01*
X92193596Y-106590498D01*
X92259585Y-106656487D01*
X92293611Y-106718799D01*
X92296490Y-106745582D01*
X92296490Y-107176913D01*
X92295963Y-107188096D01*
X92294288Y-107195589D01*
X92294537Y-107203515D01*
X92294537Y-107203516D01*
X92296428Y-107263666D01*
X92296490Y-107267625D01*
X92296490Y-107295536D01*
X92296987Y-107299470D01*
X92296987Y-107299471D01*
X92296995Y-107299536D01*
X92297928Y-107311373D01*
X92299317Y-107355569D01*
X92304524Y-107373491D01*
X92304968Y-107375019D01*
X92308977Y-107394380D01*
X92311516Y-107414477D01*
X92314435Y-107421848D01*
X92314435Y-107421850D01*
X92327794Y-107455592D01*
X92331639Y-107466822D01*
X92343972Y-107509273D01*
X92348005Y-107516092D01*
X92348007Y-107516097D01*
X92354283Y-107526708D01*
X92362978Y-107544456D01*
X92370438Y-107563297D01*
X92375100Y-107569713D01*
X92375100Y-107569714D01*
X92396426Y-107599067D01*
X92402942Y-107608987D01*
X92425448Y-107647042D01*
X92439769Y-107661363D01*
X92452609Y-107676396D01*
X92464518Y-107692787D01*
X92470624Y-107697838D01*
X92498595Y-107720978D01*
X92507374Y-107728968D01*
X92763163Y-107984757D01*
X92770705Y-107993044D01*
X92774820Y-107999528D01*
X92780601Y-108004957D01*
X92780809Y-108005208D01*
X92808820Y-108070446D01*
X92803319Y-108125194D01*
X92759862Y-108256210D01*
X92756995Y-108269586D01*
X92747328Y-108363938D01*
X92747000Y-108370355D01*
X92747000Y-108482885D01*
X92751475Y-108498124D01*
X92752865Y-108499329D01*
X92760548Y-108501000D01*
X94108000Y-108501000D01*
X94176121Y-108521002D01*
X94222614Y-108574658D01*
X94234000Y-108627000D01*
X94234000Y-109832384D01*
X94238475Y-109847623D01*
X94239865Y-109848828D01*
X94247548Y-109850499D01*
X94502095Y-109850499D01*
X94508614Y-109850162D01*
X94604206Y-109840243D01*
X94617600Y-109837351D01*
X94771784Y-109785912D01*
X94784962Y-109779739D01*
X94922807Y-109694437D01*
X94934208Y-109685401D01*
X95048739Y-109570671D01*
X95057751Y-109559260D01*
X95142816Y-109421257D01*
X95148964Y-109408074D01*
X95155907Y-109387141D01*
X95196337Y-109328781D01*
X95261902Y-109301544D01*
X95331783Y-109314077D01*
X95383795Y-109362402D01*
X95401500Y-109426808D01*
X95401500Y-110353134D01*
X95408255Y-110415316D01*
X95419672Y-110445771D01*
X95424855Y-110516577D01*
X95419674Y-110534224D01*
X95408255Y-110564684D01*
X95401500Y-110626866D01*
X95401500Y-111623134D01*
X95408255Y-111685316D01*
X95419672Y-111715771D01*
X95424855Y-111786577D01*
X95419674Y-111804224D01*
X95408255Y-111834684D01*
X95401500Y-111896866D01*
X95401500Y-112893134D01*
X95408255Y-112955316D01*
X95419672Y-112985771D01*
X95424855Y-113056577D01*
X95419674Y-113074224D01*
X95408255Y-113104684D01*
X95401500Y-113166866D01*
X95401500Y-113251405D01*
X95381498Y-113319526D01*
X95327842Y-113366019D01*
X95257568Y-113376123D01*
X95192988Y-113346629D01*
X95186405Y-113340500D01*
X92015406Y-110169501D01*
X91981380Y-110107189D01*
X91978501Y-110080406D01*
X91978501Y-109139595D01*
X92747001Y-109139595D01*
X92747338Y-109146114D01*
X92757257Y-109241706D01*
X92760149Y-109255100D01*
X92811588Y-109409284D01*
X92817761Y-109422462D01*
X92903063Y-109560307D01*
X92912099Y-109571708D01*
X93026829Y-109686239D01*
X93038240Y-109695251D01*
X93176243Y-109780316D01*
X93189424Y-109786463D01*
X93343710Y-109837638D01*
X93357086Y-109840505D01*
X93451438Y-109850172D01*
X93457854Y-109850500D01*
X93707885Y-109850500D01*
X93723124Y-109846025D01*
X93724329Y-109844635D01*
X93726000Y-109836952D01*
X93726000Y-109027115D01*
X93721525Y-109011876D01*
X93720135Y-109010671D01*
X93712452Y-109009000D01*
X92765116Y-109009000D01*
X92749877Y-109013475D01*
X92748672Y-109014865D01*
X92747001Y-109022548D01*
X92747001Y-109139595D01*
X91978501Y-109139595D01*
X91978501Y-106679593D01*
X91998503Y-106611472D01*
X92052159Y-106564979D01*
X92122433Y-106554875D01*
X92187013Y-106584369D01*
G37*
%TD.AperFunction*%
%TA.AperFunction,Conductor*%
G36*
X118132022Y-105220333D02*
G01*
X118170406Y-105280059D01*
X118174837Y-105302555D01*
X118182474Y-105376167D01*
X118184658Y-105382713D01*
X118235730Y-105535792D01*
X118238450Y-105543946D01*
X118331521Y-105694349D01*
X118456697Y-105819306D01*
X118492532Y-105841395D01*
X118576587Y-105893207D01*
X118607261Y-105912115D01*
X118651674Y-105926846D01*
X118768610Y-105965632D01*
X118768612Y-105965632D01*
X118775138Y-105967797D01*
X118781974Y-105968497D01*
X118781977Y-105968498D01*
X118825030Y-105972909D01*
X118879599Y-105978500D01*
X119000406Y-105978500D01*
X119068527Y-105998502D01*
X119089501Y-106015405D01*
X119702878Y-106628782D01*
X119736904Y-106691094D01*
X119739093Y-106704709D01*
X119740781Y-106720773D01*
X119728007Y-106790612D01*
X119679504Y-106842457D01*
X119650968Y-106854837D01*
X119636876Y-106858975D01*
X119635671Y-106860365D01*
X119634000Y-106868048D01*
X119634000Y-107677885D01*
X119638475Y-107693124D01*
X119639865Y-107694329D01*
X119647548Y-107696000D01*
X119890500Y-107696000D01*
X119958621Y-107716002D01*
X120005114Y-107769658D01*
X120016500Y-107822000D01*
X120016500Y-108078000D01*
X119996498Y-108146121D01*
X119942842Y-108192614D01*
X119890500Y-108204000D01*
X118165116Y-108204000D01*
X118149877Y-108208475D01*
X118148672Y-108209865D01*
X118147001Y-108217548D01*
X118147001Y-108334595D01*
X118147338Y-108341114D01*
X118157257Y-108436706D01*
X118160149Y-108450100D01*
X118211588Y-108604284D01*
X118217761Y-108617462D01*
X118303063Y-108755307D01*
X118312099Y-108766708D01*
X118426828Y-108881238D01*
X118435762Y-108888294D01*
X118476823Y-108946212D01*
X118480053Y-109017135D01*
X118444426Y-109078546D01*
X118436593Y-109085346D01*
X118430652Y-109089022D01*
X118425479Y-109094204D01*
X118394044Y-109125694D01*
X118305695Y-109214197D01*
X118301855Y-109220427D01*
X118301854Y-109220428D01*
X118230302Y-109336507D01*
X118212885Y-109364762D01*
X118157203Y-109532639D01*
X118146500Y-109637100D01*
X118146500Y-110310405D01*
X118126498Y-110378526D01*
X118109595Y-110399500D01*
X117024500Y-111484595D01*
X116962188Y-111518621D01*
X116935405Y-111521500D01*
X116041866Y-111521500D01*
X116038471Y-111521869D01*
X116038467Y-111521869D01*
X116008108Y-111525167D01*
X115938226Y-111512639D01*
X115886210Y-111464318D01*
X115868501Y-111399904D01*
X115868501Y-108599593D01*
X115888503Y-108531472D01*
X115905406Y-108510498D01*
X116738019Y-107677885D01*
X118147000Y-107677885D01*
X118151475Y-107693124D01*
X118152865Y-107694329D01*
X118160548Y-107696000D01*
X119107885Y-107696000D01*
X119123124Y-107691525D01*
X119124329Y-107690135D01*
X119126000Y-107682452D01*
X119126000Y-106872616D01*
X119121525Y-106857377D01*
X119120135Y-106856172D01*
X119112452Y-106854501D01*
X118857905Y-106854501D01*
X118851386Y-106854838D01*
X118755794Y-106864757D01*
X118742400Y-106867649D01*
X118588216Y-106919088D01*
X118575038Y-106925261D01*
X118437193Y-107010563D01*
X118425792Y-107019599D01*
X118311261Y-107134329D01*
X118302249Y-107145740D01*
X118217184Y-107283743D01*
X118211037Y-107296924D01*
X118159862Y-107451210D01*
X118156995Y-107464586D01*
X118147328Y-107558938D01*
X118147000Y-107565355D01*
X118147000Y-107677885D01*
X116738019Y-107677885D01*
X117682257Y-106733647D01*
X117690547Y-106726103D01*
X117697028Y-106721990D01*
X117743669Y-106672322D01*
X117746423Y-106669481D01*
X117766145Y-106649759D01*
X117768622Y-106646566D01*
X117776327Y-106637545D01*
X117784556Y-106628782D01*
X117806596Y-106605311D01*
X117814543Y-106590855D01*
X117816356Y-106587558D01*
X117827212Y-106571031D01*
X117834767Y-106561292D01*
X117834768Y-106561290D01*
X117839624Y-106555030D01*
X117857184Y-106514450D01*
X117862401Y-106503802D01*
X117879885Y-106471999D01*
X117879886Y-106471997D01*
X117883705Y-106465050D01*
X117885994Y-106456138D01*
X117888743Y-106445428D01*
X117895147Y-106426724D01*
X117900043Y-106415410D01*
X117900043Y-106415409D01*
X117903191Y-106408135D01*
X117904430Y-106400312D01*
X117904433Y-106400302D01*
X117910109Y-106364466D01*
X117912515Y-106352846D01*
X117921538Y-106317701D01*
X117921538Y-106317700D01*
X117923510Y-106310020D01*
X117923510Y-106289766D01*
X117925061Y-106270055D01*
X117926990Y-106257876D01*
X117928230Y-106250047D01*
X117924069Y-106206028D01*
X117923510Y-106194171D01*
X117923510Y-105315557D01*
X117943512Y-105247436D01*
X117997168Y-105200943D01*
X118067442Y-105190839D01*
X118132022Y-105220333D01*
G37*
%TD.AperFunction*%
%TA.AperFunction,Conductor*%
G36*
X141589058Y-93238502D02*
G01*
X141635551Y-93292158D01*
X141645655Y-93362432D01*
X141621764Y-93420064D01*
X141559385Y-93503295D01*
X141508255Y-93639684D01*
X141501500Y-93701866D01*
X141501500Y-96798134D01*
X141501869Y-96801529D01*
X141501869Y-96801533D01*
X141506432Y-96843538D01*
X141493904Y-96913420D01*
X141470264Y-96946240D01*
X136841908Y-101574595D01*
X136779596Y-101608621D01*
X136752813Y-101611500D01*
X136641866Y-101611500D01*
X136579684Y-101618255D01*
X136572285Y-101621029D01*
X136569146Y-101621775D01*
X136510854Y-101621775D01*
X136507715Y-101621029D01*
X136500316Y-101618255D01*
X136438134Y-101611500D01*
X135341866Y-101611500D01*
X135279684Y-101618255D01*
X135143295Y-101669385D01*
X135026739Y-101756739D01*
X134939385Y-101873295D01*
X134936233Y-101881704D01*
X134936232Y-101881705D01*
X134893511Y-101995663D01*
X134850870Y-102052428D01*
X134784308Y-102077128D01*
X134714959Y-102061921D01*
X134686433Y-102040529D01*
X134484993Y-101839088D01*
X134098637Y-101452732D01*
X134091103Y-101444453D01*
X134086990Y-101437972D01*
X134037338Y-101391346D01*
X134034497Y-101388592D01*
X134014760Y-101368855D01*
X134011563Y-101366375D01*
X134002541Y-101358670D01*
X133989112Y-101346059D01*
X133970311Y-101328404D01*
X133963365Y-101324585D01*
X133963362Y-101324583D01*
X133952556Y-101318642D01*
X133936037Y-101307791D01*
X133931107Y-101303967D01*
X133920031Y-101295376D01*
X133912762Y-101292231D01*
X133912758Y-101292228D01*
X133879453Y-101277816D01*
X133868803Y-101272599D01*
X133830050Y-101251295D01*
X133810427Y-101246257D01*
X133791724Y-101239853D01*
X133780410Y-101234957D01*
X133780409Y-101234957D01*
X133773135Y-101231809D01*
X133765312Y-101230570D01*
X133765302Y-101230567D01*
X133729466Y-101224891D01*
X133717846Y-101222485D01*
X133682701Y-101213462D01*
X133682700Y-101213462D01*
X133675020Y-101211490D01*
X133654766Y-101211490D01*
X133635055Y-101209939D01*
X133622876Y-101208010D01*
X133615047Y-101206770D01*
X133585776Y-101209537D01*
X133571029Y-101210931D01*
X133559171Y-101211490D01*
X131913777Y-101211490D01*
X131902594Y-101210963D01*
X131895101Y-101209288D01*
X131887175Y-101209537D01*
X131887174Y-101209537D01*
X131827024Y-101211428D01*
X131823065Y-101211490D01*
X131795154Y-101211490D01*
X131791220Y-101211987D01*
X131791219Y-101211987D01*
X131791154Y-101211995D01*
X131779317Y-101212928D01*
X131747059Y-101213942D01*
X131743040Y-101214068D01*
X131735121Y-101214317D01*
X131715667Y-101219969D01*
X131696310Y-101223977D01*
X131684080Y-101225522D01*
X131684079Y-101225522D01*
X131676213Y-101226516D01*
X131668842Y-101229435D01*
X131668840Y-101229435D01*
X131635098Y-101242794D01*
X131623868Y-101246639D01*
X131589027Y-101256761D01*
X131589026Y-101256761D01*
X131581417Y-101258972D01*
X131574598Y-101263005D01*
X131574593Y-101263007D01*
X131563982Y-101269283D01*
X131546234Y-101277978D01*
X131527393Y-101285438D01*
X131520977Y-101290100D01*
X131520976Y-101290100D01*
X131491623Y-101311426D01*
X131481703Y-101317942D01*
X131450475Y-101336410D01*
X131450472Y-101336412D01*
X131443648Y-101340448D01*
X131429327Y-101354769D01*
X131414294Y-101367609D01*
X131397903Y-101379518D01*
X131370884Y-101412178D01*
X131369712Y-101413595D01*
X131361722Y-101422374D01*
X131159501Y-101624595D01*
X131097189Y-101658621D01*
X131070406Y-101661500D01*
X130451603Y-101661501D01*
X130409600Y-101661501D01*
X130303833Y-101672474D01*
X130297286Y-101674658D01*
X130297287Y-101674658D01*
X130142998Y-101726133D01*
X130142996Y-101726134D01*
X130136054Y-101728450D01*
X129985651Y-101821521D01*
X129980478Y-101826703D01*
X129941141Y-101866109D01*
X129860694Y-101946697D01*
X129767885Y-102097261D01*
X129748901Y-102154496D01*
X129717565Y-102248973D01*
X129712203Y-102265138D01*
X129711503Y-102271974D01*
X129711502Y-102271977D01*
X129707971Y-102306445D01*
X129701500Y-102369599D01*
X129701501Y-102720473D01*
X129701501Y-103030404D01*
X129681499Y-103098525D01*
X129664596Y-103119499D01*
X129118595Y-103665500D01*
X129056283Y-103699526D01*
X128985468Y-103694461D01*
X128928632Y-103651914D01*
X128903821Y-103585394D01*
X128903500Y-103576405D01*
X128903500Y-102948767D01*
X128904027Y-102937584D01*
X128905702Y-102930091D01*
X128905232Y-102915121D01*
X128903562Y-102862014D01*
X128903500Y-102858055D01*
X128903500Y-102830144D01*
X128902995Y-102826144D01*
X128902062Y-102814301D01*
X128900922Y-102778029D01*
X128900673Y-102770110D01*
X128895022Y-102750658D01*
X128891014Y-102731306D01*
X128889467Y-102719063D01*
X128888474Y-102711203D01*
X128885556Y-102703832D01*
X128872200Y-102670097D01*
X128868355Y-102658870D01*
X128861891Y-102636622D01*
X128856018Y-102616407D01*
X128851984Y-102609585D01*
X128851981Y-102609579D01*
X128845706Y-102598968D01*
X128837010Y-102581218D01*
X128832472Y-102569756D01*
X128832469Y-102569751D01*
X128829552Y-102562383D01*
X128803573Y-102526625D01*
X128797057Y-102516707D01*
X128783317Y-102493475D01*
X128774542Y-102478637D01*
X128760218Y-102464313D01*
X128747376Y-102449278D01*
X128735472Y-102432893D01*
X128701406Y-102404711D01*
X128692627Y-102396722D01*
X127608651Y-101312746D01*
X127601111Y-101304460D01*
X127596999Y-101297981D01*
X127566439Y-101269283D01*
X127547348Y-101251356D01*
X127544506Y-101248601D01*
X127524769Y-101228864D01*
X127521572Y-101226384D01*
X127512550Y-101218679D01*
X127510562Y-101216812D01*
X127480320Y-101188413D01*
X127473374Y-101184594D01*
X127473371Y-101184592D01*
X127462565Y-101178651D01*
X127446046Y-101167800D01*
X127441193Y-101164036D01*
X127430040Y-101155385D01*
X127422771Y-101152240D01*
X127422767Y-101152237D01*
X127389462Y-101137825D01*
X127378812Y-101132608D01*
X127340059Y-101111304D01*
X127320436Y-101106266D01*
X127301733Y-101099862D01*
X127290419Y-101094966D01*
X127290418Y-101094966D01*
X127283144Y-101091818D01*
X127275321Y-101090579D01*
X127275311Y-101090576D01*
X127239475Y-101084900D01*
X127227855Y-101082494D01*
X127192710Y-101073471D01*
X127192709Y-101073471D01*
X127185029Y-101071499D01*
X127164775Y-101071499D01*
X127145064Y-101069948D01*
X127132885Y-101068019D01*
X127125056Y-101066779D01*
X127095785Y-101069546D01*
X127081038Y-101070940D01*
X127069180Y-101071499D01*
X123163768Y-101071499D01*
X123152585Y-101070972D01*
X123145092Y-101069297D01*
X123137166Y-101069546D01*
X123137165Y-101069546D01*
X123077015Y-101071437D01*
X123073056Y-101071499D01*
X123045145Y-101071499D01*
X123041211Y-101071996D01*
X123041210Y-101071996D01*
X123041145Y-101072004D01*
X123029308Y-101072937D01*
X123000125Y-101073854D01*
X122993030Y-101074077D01*
X122985111Y-101074326D01*
X122967455Y-101079455D01*
X122965659Y-101079977D01*
X122946307Y-101083985D01*
X122939236Y-101084879D01*
X122926204Y-101086525D01*
X122918835Y-101089442D01*
X122918833Y-101089443D01*
X122885098Y-101102799D01*
X122873870Y-101106644D01*
X122831408Y-101118981D01*
X122824586Y-101123015D01*
X122824580Y-101123018D01*
X122813969Y-101129293D01*
X122796219Y-101137989D01*
X122784757Y-101142527D01*
X122784752Y-101142530D01*
X122777384Y-101145447D01*
X122759971Y-101158098D01*
X122741626Y-101171426D01*
X122731708Y-101177942D01*
X122728401Y-101179898D01*
X122693638Y-101200457D01*
X122679314Y-101214781D01*
X122664282Y-101227620D01*
X122647894Y-101239527D01*
X122635002Y-101255111D01*
X122619713Y-101273592D01*
X122611723Y-101282372D01*
X122169500Y-101724595D01*
X122107188Y-101758621D01*
X122080405Y-101761500D01*
X121461603Y-101761501D01*
X121419600Y-101761501D01*
X121313833Y-101772474D01*
X121307286Y-101774658D01*
X121307287Y-101774658D01*
X121152998Y-101826133D01*
X121152996Y-101826134D01*
X121146054Y-101828450D01*
X121128863Y-101839088D01*
X121046498Y-101890056D01*
X120978046Y-101908893D01*
X120910276Y-101887731D01*
X120891101Y-101872006D01*
X120226842Y-101207747D01*
X120219302Y-101199461D01*
X120215190Y-101192982D01*
X120206256Y-101184592D01*
X120165539Y-101146357D01*
X120162697Y-101143602D01*
X120142960Y-101123865D01*
X120139763Y-101121385D01*
X120130741Y-101113680D01*
X120126112Y-101109333D01*
X120098511Y-101083414D01*
X120091565Y-101079595D01*
X120091562Y-101079593D01*
X120080756Y-101073652D01*
X120064237Y-101062801D01*
X120054521Y-101055265D01*
X120048231Y-101050386D01*
X120040962Y-101047241D01*
X120040958Y-101047238D01*
X120007653Y-101032826D01*
X119997003Y-101027609D01*
X119958250Y-101006305D01*
X119938627Y-101001267D01*
X119919924Y-100994863D01*
X119908610Y-100989967D01*
X119908609Y-100989967D01*
X119901335Y-100986819D01*
X119893512Y-100985580D01*
X119893502Y-100985577D01*
X119857666Y-100979901D01*
X119846046Y-100977495D01*
X119810901Y-100968472D01*
X119810900Y-100968472D01*
X119803220Y-100966500D01*
X119782966Y-100966500D01*
X119763255Y-100964949D01*
X119751076Y-100963020D01*
X119743247Y-100961780D01*
X119735355Y-100962526D01*
X119735354Y-100962526D01*
X119712894Y-100964649D01*
X119643193Y-100951146D01*
X119591858Y-100902104D01*
X119575186Y-100833092D01*
X119598470Y-100766023D01*
X119611942Y-100750113D01*
X121616405Y-98745650D01*
X121678717Y-98711624D01*
X121749532Y-98716689D01*
X121806368Y-98759236D01*
X121831179Y-98825756D01*
X121831500Y-98834745D01*
X121831500Y-99958134D01*
X121838255Y-100020316D01*
X121889385Y-100156705D01*
X121976739Y-100273261D01*
X122093295Y-100360615D01*
X122229684Y-100411745D01*
X122291866Y-100418500D01*
X124088134Y-100418500D01*
X124150316Y-100411745D01*
X124286705Y-100360615D01*
X124403261Y-100273261D01*
X124490615Y-100156705D01*
X124512799Y-100097529D01*
X124534598Y-100039382D01*
X124577240Y-99982618D01*
X124643802Y-99957918D01*
X124713150Y-99973126D01*
X124747817Y-100001114D01*
X124776250Y-100033938D01*
X124948126Y-100176632D01*
X125141000Y-100289338D01*
X125349692Y-100369030D01*
X125354760Y-100370061D01*
X125354763Y-100370062D01*
X125449862Y-100389410D01*
X125568597Y-100413567D01*
X125573772Y-100413757D01*
X125573774Y-100413757D01*
X125786673Y-100421564D01*
X125786677Y-100421564D01*
X125791837Y-100421753D01*
X125796957Y-100421097D01*
X125796959Y-100421097D01*
X126008288Y-100394025D01*
X126008289Y-100394025D01*
X126013416Y-100393368D01*
X126018366Y-100391883D01*
X126222429Y-100330661D01*
X126222434Y-100330659D01*
X126227384Y-100329174D01*
X126427994Y-100230896D01*
X126609860Y-100101173D01*
X126650119Y-100061055D01*
X126753616Y-99957918D01*
X126768096Y-99943489D01*
X126855754Y-99821500D01*
X126898453Y-99762077D01*
X126899776Y-99763028D01*
X126946645Y-99719857D01*
X127016580Y-99707625D01*
X127082026Y-99735144D01*
X127109875Y-99766994D01*
X127169987Y-99865088D01*
X127316250Y-100033938D01*
X127488126Y-100176632D01*
X127681000Y-100289338D01*
X127889692Y-100369030D01*
X127894760Y-100370061D01*
X127894763Y-100370062D01*
X127989862Y-100389410D01*
X128108597Y-100413567D01*
X128113772Y-100413757D01*
X128113774Y-100413757D01*
X128326673Y-100421564D01*
X128326677Y-100421564D01*
X128331837Y-100421753D01*
X128336957Y-100421097D01*
X128336959Y-100421097D01*
X128548288Y-100394025D01*
X128548289Y-100394025D01*
X128553416Y-100393368D01*
X128558366Y-100391883D01*
X128762429Y-100330661D01*
X128762434Y-100330659D01*
X128767384Y-100329174D01*
X128967994Y-100230896D01*
X129149860Y-100101173D01*
X129190119Y-100061055D01*
X129293616Y-99957918D01*
X129308096Y-99943489D01*
X129395754Y-99821500D01*
X129438453Y-99762077D01*
X129439640Y-99762930D01*
X129486960Y-99719362D01*
X129556897Y-99707145D01*
X129622338Y-99734678D01*
X129650166Y-99766511D01*
X129707694Y-99860388D01*
X129713777Y-99868699D01*
X129853213Y-100029667D01*
X129860580Y-100036883D01*
X130024434Y-100172916D01*
X130032881Y-100178831D01*
X130216756Y-100286279D01*
X130226042Y-100290729D01*
X130425001Y-100366703D01*
X130434899Y-100369579D01*
X130538250Y-100390606D01*
X130552299Y-100389410D01*
X130556000Y-100379065D01*
X130556000Y-100378517D01*
X131064000Y-100378517D01*
X131068064Y-100392359D01*
X131081478Y-100394393D01*
X131088184Y-100393534D01*
X131098262Y-100391392D01*
X131302255Y-100330191D01*
X131311842Y-100326433D01*
X131503095Y-100232739D01*
X131511945Y-100227464D01*
X131685328Y-100103792D01*
X131693200Y-100097139D01*
X131844052Y-99946812D01*
X131850730Y-99938965D01*
X131975003Y-99766020D01*
X131980313Y-99757183D01*
X132074670Y-99566267D01*
X132078469Y-99556672D01*
X132140377Y-99352910D01*
X132142555Y-99342837D01*
X132143986Y-99331962D01*
X132141775Y-99317778D01*
X132128617Y-99314000D01*
X131082115Y-99314000D01*
X131066876Y-99318475D01*
X131065671Y-99319865D01*
X131064000Y-99327548D01*
X131064000Y-100378517D01*
X130556000Y-100378517D01*
X130556000Y-98787885D01*
X131064000Y-98787885D01*
X131068475Y-98803124D01*
X131069865Y-98804329D01*
X131077548Y-98806000D01*
X132128344Y-98806000D01*
X132141875Y-98802027D01*
X132143180Y-98792947D01*
X132101214Y-98625875D01*
X132097894Y-98616124D01*
X132012972Y-98420814D01*
X132008105Y-98411739D01*
X131892426Y-98232926D01*
X131886136Y-98224757D01*
X131742806Y-98067240D01*
X131735273Y-98060215D01*
X131568139Y-97928222D01*
X131559552Y-97922517D01*
X131373117Y-97819599D01*
X131363705Y-97815369D01*
X131162959Y-97744280D01*
X131152988Y-97741646D01*
X131081837Y-97728972D01*
X131068540Y-97730432D01*
X131064000Y-97744989D01*
X131064000Y-98787885D01*
X130556000Y-98787885D01*
X130556000Y-97743102D01*
X130552082Y-97729758D01*
X130537806Y-97727771D01*
X130499324Y-97733660D01*
X130489288Y-97736051D01*
X130286868Y-97802212D01*
X130277359Y-97806209D01*
X130088463Y-97904542D01*
X130079738Y-97910036D01*
X129909433Y-98037905D01*
X129901726Y-98044748D01*
X129754590Y-98198717D01*
X129748109Y-98206722D01*
X129643498Y-98360074D01*
X129588587Y-98405076D01*
X129518062Y-98413247D01*
X129454315Y-98381993D01*
X129433618Y-98357509D01*
X129352822Y-98232617D01*
X129352820Y-98232614D01*
X129350014Y-98228277D01*
X129199670Y-98063051D01*
X129195619Y-98059852D01*
X129195615Y-98059848D01*
X129028414Y-97927800D01*
X129028410Y-97927798D01*
X129024359Y-97924598D01*
X128988028Y-97904542D01*
X128972136Y-97895769D01*
X128828789Y-97816638D01*
X128823920Y-97814914D01*
X128823916Y-97814912D01*
X128623087Y-97743795D01*
X128623083Y-97743794D01*
X128618212Y-97742069D01*
X128613119Y-97741162D01*
X128613116Y-97741161D01*
X128403373Y-97703800D01*
X128403367Y-97703799D01*
X128398284Y-97702894D01*
X128324452Y-97701992D01*
X128180081Y-97700228D01*
X128180079Y-97700228D01*
X128174911Y-97700165D01*
X127954091Y-97733955D01*
X127741756Y-97803357D01*
X127543607Y-97906507D01*
X127539474Y-97909610D01*
X127539471Y-97909612D01*
X127369100Y-98037530D01*
X127364965Y-98040635D01*
X127210629Y-98202138D01*
X127103201Y-98359621D01*
X127048293Y-98404621D01*
X126977768Y-98412792D01*
X126914021Y-98381538D01*
X126893324Y-98357054D01*
X126812822Y-98232617D01*
X126812820Y-98232614D01*
X126810014Y-98228277D01*
X126659670Y-98063051D01*
X126655619Y-98059852D01*
X126655615Y-98059848D01*
X126488414Y-97927800D01*
X126488410Y-97927798D01*
X126484359Y-97924598D01*
X126448028Y-97904542D01*
X126432136Y-97895769D01*
X126288789Y-97816638D01*
X126283920Y-97814914D01*
X126283916Y-97814912D01*
X126083087Y-97743795D01*
X126083083Y-97743794D01*
X126078212Y-97742069D01*
X126073119Y-97741162D01*
X126073116Y-97741161D01*
X125863373Y-97703800D01*
X125863367Y-97703799D01*
X125858284Y-97702894D01*
X125784452Y-97701992D01*
X125640081Y-97700228D01*
X125640079Y-97700228D01*
X125634911Y-97700165D01*
X125414091Y-97733955D01*
X125401532Y-97738060D01*
X125330568Y-97740210D01*
X125273294Y-97707389D01*
X125058651Y-97492746D01*
X125051111Y-97484460D01*
X125046999Y-97477981D01*
X124997347Y-97431355D01*
X124994506Y-97428601D01*
X124974769Y-97408864D01*
X124971572Y-97406384D01*
X124962550Y-97398679D01*
X124958396Y-97394778D01*
X124930320Y-97368413D01*
X124923374Y-97364594D01*
X124923371Y-97364592D01*
X124912565Y-97358651D01*
X124896046Y-97347800D01*
X124895582Y-97347440D01*
X124880040Y-97335385D01*
X124872771Y-97332240D01*
X124872767Y-97332237D01*
X124839462Y-97317825D01*
X124828812Y-97312608D01*
X124790059Y-97291304D01*
X124770436Y-97286266D01*
X124751733Y-97279862D01*
X124740419Y-97274966D01*
X124740418Y-97274966D01*
X124733144Y-97271818D01*
X124725321Y-97270579D01*
X124725311Y-97270576D01*
X124689475Y-97264900D01*
X124677855Y-97262494D01*
X124642710Y-97253471D01*
X124642709Y-97253471D01*
X124635029Y-97251499D01*
X124614775Y-97251499D01*
X124595064Y-97249948D01*
X124582885Y-97248019D01*
X124575056Y-97246779D01*
X124545785Y-97249546D01*
X124531038Y-97250940D01*
X124519180Y-97251499D01*
X121659920Y-97251499D01*
X121648737Y-97250972D01*
X121641244Y-97249297D01*
X121633318Y-97249546D01*
X121633317Y-97249546D01*
X121573154Y-97251437D01*
X121569196Y-97251499D01*
X121541296Y-97251499D01*
X121537306Y-97252003D01*
X121525472Y-97252935D01*
X121481263Y-97254325D01*
X121473647Y-97256538D01*
X121473645Y-97256538D01*
X121461804Y-97259978D01*
X121442445Y-97263987D01*
X121441135Y-97264153D01*
X121422355Y-97266525D01*
X121414989Y-97269441D01*
X121414983Y-97269443D01*
X121381250Y-97282799D01*
X121370020Y-97286644D01*
X121353980Y-97291304D01*
X121327559Y-97298980D01*
X121320736Y-97303015D01*
X121310118Y-97309294D01*
X121292365Y-97317991D01*
X121284720Y-97321018D01*
X121273535Y-97325447D01*
X121259857Y-97335385D01*
X121237764Y-97351436D01*
X121227847Y-97357950D01*
X121189790Y-97380457D01*
X121175469Y-97394778D01*
X121160436Y-97407618D01*
X121144045Y-97419527D01*
X121135369Y-97430015D01*
X121115854Y-97453604D01*
X121107864Y-97462383D01*
X118688484Y-99881762D01*
X118626172Y-99915788D01*
X118555356Y-99910723D01*
X118498521Y-99868176D01*
X118473710Y-99801656D01*
X118481333Y-99748635D01*
X118487496Y-99732113D01*
X118550817Y-99562341D01*
X118552051Y-99556672D01*
X118603938Y-99318147D01*
X118604894Y-99313753D01*
X118611070Y-99227405D01*
X118620659Y-99093332D01*
X118622084Y-99081418D01*
X118622768Y-99077355D01*
X118622768Y-99077353D01*
X118623576Y-99072552D01*
X118623729Y-99060000D01*
X118619773Y-99032376D01*
X118618500Y-99014514D01*
X118618500Y-96652703D01*
X133780743Y-96652703D01*
X133818268Y-96937734D01*
X133894129Y-97215036D01*
X133895813Y-97218984D01*
X133995888Y-97453604D01*
X134006923Y-97479476D01*
X134018693Y-97499142D01*
X134139003Y-97700165D01*
X134154561Y-97726161D01*
X134334313Y-97950528D01*
X134542851Y-98148423D01*
X134776317Y-98316186D01*
X134780112Y-98318195D01*
X134780113Y-98318196D01*
X134801869Y-98329715D01*
X135030392Y-98450712D01*
X135054699Y-98459607D01*
X135230880Y-98524080D01*
X135300373Y-98549511D01*
X135581264Y-98610755D01*
X135609841Y-98613004D01*
X135804282Y-98628307D01*
X135804291Y-98628307D01*
X135806739Y-98628500D01*
X135962271Y-98628500D01*
X135964407Y-98628354D01*
X135964418Y-98628354D01*
X136172548Y-98614165D01*
X136172554Y-98614164D01*
X136176825Y-98613873D01*
X136181020Y-98613004D01*
X136181022Y-98613004D01*
X136321555Y-98583901D01*
X136458342Y-98555574D01*
X136729343Y-98459607D01*
X136984812Y-98327750D01*
X136988313Y-98325289D01*
X136988317Y-98325287D01*
X137163540Y-98202138D01*
X137220023Y-98162441D01*
X137322471Y-98067240D01*
X137427479Y-97969661D01*
X137427481Y-97969658D01*
X137430622Y-97966740D01*
X137612713Y-97744268D01*
X137762927Y-97499142D01*
X137774598Y-97472556D01*
X137876757Y-97239830D01*
X137878483Y-97235898D01*
X137957244Y-96959406D01*
X137997751Y-96674784D01*
X137997845Y-96656951D01*
X137999235Y-96391583D01*
X137999235Y-96391576D01*
X137999257Y-96387297D01*
X137961732Y-96102266D01*
X137885871Y-95824964D01*
X137773077Y-95560524D01*
X137625439Y-95313839D01*
X137445687Y-95089472D01*
X137237149Y-94891577D01*
X137003683Y-94723814D01*
X136981843Y-94712250D01*
X136958654Y-94699972D01*
X136749608Y-94589288D01*
X136479627Y-94490489D01*
X136198736Y-94429245D01*
X136167685Y-94426801D01*
X135975718Y-94411693D01*
X135975709Y-94411693D01*
X135973261Y-94411500D01*
X135817729Y-94411500D01*
X135815593Y-94411646D01*
X135815582Y-94411646D01*
X135607452Y-94425835D01*
X135607446Y-94425836D01*
X135603175Y-94426127D01*
X135598980Y-94426996D01*
X135598978Y-94426996D01*
X135462416Y-94455277D01*
X135321658Y-94484426D01*
X135050657Y-94580393D01*
X134795188Y-94712250D01*
X134791687Y-94714711D01*
X134791683Y-94714713D01*
X134781594Y-94721804D01*
X134559977Y-94877559D01*
X134349378Y-95073260D01*
X134167287Y-95295732D01*
X134017073Y-95540858D01*
X133901517Y-95804102D01*
X133822756Y-96080594D01*
X133782249Y-96365216D01*
X133782227Y-96369505D01*
X133782226Y-96369512D01*
X133781103Y-96583919D01*
X133780743Y-96652703D01*
X118618500Y-96652703D01*
X118618500Y-94033250D01*
X118620246Y-94012345D01*
X118622770Y-93997344D01*
X118622770Y-93997341D01*
X118623576Y-93992552D01*
X118623729Y-93980000D01*
X118622788Y-93973429D01*
X118622123Y-93943218D01*
X118631916Y-93843789D01*
X118636733Y-93819568D01*
X118672866Y-93700454D01*
X118682315Y-93677645D01*
X118740987Y-93567876D01*
X118754705Y-93547345D01*
X118833671Y-93451124D01*
X118851124Y-93433671D01*
X118947345Y-93354705D01*
X118967876Y-93340987D01*
X119077645Y-93282315D01*
X119100454Y-93272866D01*
X119219568Y-93236733D01*
X119243789Y-93231916D01*
X119339809Y-93222459D01*
X119355868Y-93222909D01*
X119355877Y-93222200D01*
X119364853Y-93222310D01*
X119373724Y-93223691D01*
X119382626Y-93222527D01*
X119382628Y-93222527D01*
X119399059Y-93220378D01*
X119405286Y-93219564D01*
X119421621Y-93218500D01*
X141520937Y-93218500D01*
X141589058Y-93238502D01*
G37*
%TD.AperFunction*%
%TD*%
M02*
